<svg xmlns="http://www.w3.org/2000/svg" xmlns:xlink="http://www.w3.org/1999/xlink" contentStyleType="text/css" data-diagram-type="CLASS" height="906px" preserveAspectRatio="none" style="width:972px;height:906px;background:#FFFFFF;" version="1.1" viewBox="0 0 972 906" width="972px" zoomAndPan="magnify"><defs/><g><!--cluster Zavod Za Zaposljavanje--><g class="cluster" data-entity="Zavod Za Zaposljavanje" data-source-line="1" data-uid="ent0002" id="cluster_Zavod Za Zaposljavanje"><path d="M8.5,6 L196.6611,6 A3.75,3.75 0 0 1 199.1611,8.5 L206.1611,28.2969 L962.5,28.2969 A2.5,2.5 0 0 1 965,30.7969 L965,896.5 A2.5,2.5 0 0 1 962.5,899 L8.5,899 A2.5,2.5 0 0 1 6,896.5 L6,8.5 A2.5,2.5 0 0 1 8.5,6" fill="none" style="stroke:#000000;stroke-width:1.5;"/><line style="stroke:#000000;stroke-width:1.5;" x1="6" x2="206.1611" y1="28.2969" y2="28.2969"/><text fill="#000000" font-family="sans-serif" font-size="14" font-weight="bold" lengthAdjust="spacing" textLength="187.1611" x="10" y="20.9951">Zavod Za Zaposljavanje</text></g><!--cluster Korisnici--><g class="cluster" data-entity="Korisnici" data-source-line="2" data-uid="ent0003" id="cluster_Korisnici"><path d="M170.5,49 L239.8662,49 A3.75,3.75 0 0 1 242.3662,51.5 L249.3662,71.2969 L770.5,71.2969 A2.5,2.5 0 0 1 773,73.7969 L773,514.5 A2.5,2.5 0 0 1 770.5,517 L170.5,517 A2.5,2.5 0 0 1 168,514.5 L168,51.5 A2.5,2.5 0 0 1 170.5,49" fill="none" style="stroke:#000000;stroke-width:1.5;"/><line style="stroke:#000000;stroke-width:1.5;" x1="168" x2="249.3662" y1="71.2969" y2="71.2969"/><text fill="#000000" font-family="sans-serif" font-size="14" font-weight="bold" lengthAdjust="spacing" textLength="68.3662" x="172" y="63.9951">Korisnici</text></g><!--class Oglas--><g class="entity" data-entity="Oglas" data-source-line="42" data-uid="ent0008" id="entity_Oglas"><rect fill="#F1F1F1" height="129.4844" rx="2.5" ry="2.5" style="stroke:#181818;stroke-width:0.5;" width="164.667" x="226.5" y="580"/><ellipse cx="284.749" cy="596" fill="#ADD1B2" rx="11" ry="11" style="stroke:#181818;stroke-width:1;"/><path d="M287.7178,601.6406 Q287.1396,601.9375 286.499,602.0781 Q285.8584,602.2344 285.1553,602.2344 Q282.6553,602.2344 281.3271,600.5938 Q280.0146,598.9375 280.0146,595.8125 Q280.0146,592.6875 281.3271,591.0313 Q282.6553,589.375 285.1553,589.375 Q285.8584,589.375 286.499,589.5313 Q287.1553,589.6875 287.7178,589.9844 L287.7178,592.7031 Q287.0928,592.125 286.499,591.8594 Q285.9053,591.5781 285.2803,591.5781 Q283.9365,591.5781 283.249,592.6563 Q282.5615,593.7188 282.5615,595.8125 Q282.5615,597.9063 283.249,598.9844 Q283.9365,600.0469 285.2803,600.0469 Q285.9053,600.0469 286.499,599.7813 Q287.0928,599.5 287.7178,598.9219 L287.7178,601.6406 Z " fill="#000000"/><text fill="#000000" font-family="sans-serif" font-size="14" lengthAdjust="spacing" textLength="39.6689" x="305.249" y="600.8467">Oglas</text><line style="stroke:#181818;stroke-width:0.5;" x1="227.5" x2="390.167" y1="612" y2="612"/><rect fill="none" height="6" style="stroke:#C82930;stroke-width:1;" width="6" x="234.5" y="622.6484"/><text fill="#000000" font-family="sans-serif" font-size="14" lengthAdjust="spacing" textLength="40.1953" x="246.5" y="628.9951">id: int</text><rect fill="none" height="6" style="stroke:#C82930;stroke-width:1;" width="6" x="234.5" y="638.9453"/><text fill="#000000" font-family="sans-serif" font-size="14" lengthAdjust="spacing" textLength="138.667" x="246.5" y="645.292">nazivPozicije: string</text><rect fill="none" height="6" style="stroke:#C82930;stroke-width:1;" width="6" x="234.5" y="655.2422"/><text fill="#000000" font-family="sans-serif" font-size="14" lengthAdjust="spacing" textLength="77.9912" x="246.5" y="661.5889">opis: string</text><rect fill="none" height="6" style="stroke:#C82930;stroke-width:1;" width="6" x="234.5" y="671.5391"/><text fill="#000000" font-family="sans-serif" font-size="14" lengthAdjust="spacing" textLength="137.3682" x="246.5" y="677.8857">datumObjave: Date</text><rect fill="none" height="6" style="stroke:#C82930;stroke-width:1;" width="6" x="234.5" y="687.8359"/><text fill="#000000" font-family="sans-serif" font-size="14" lengthAdjust="spacing" textLength="130.6826" x="246.5" y="694.1826">rokZaPrijave: Date</text><line style="stroke:#181818;stroke-width:0.5;" x1="227.5" x2="390.167" y1="701.4844" y2="701.4844"/></g><!--class Prijava--><g class="entity" data-entity="Prijava" data-source-line="50" data-uid="ent0009" id="entity_Prijava"><rect fill="#F1F1F1" height="96.8906" rx="2.5" ry="2.5" style="stroke:#181818;stroke-width:0.5;" width="161.5498" x="412" y="786"/><ellipse cx="464.8145" cy="802" fill="#ADD1B2" rx="11" ry="11" style="stroke:#181818;stroke-width:1;"/><path d="M467.7832,807.6406 Q467.2051,807.9375 466.5645,808.0781 Q465.9238,808.2344 465.2207,808.2344 Q462.7207,808.2344 461.3926,806.5938 Q460.0801,804.9375 460.0801,801.8125 Q460.0801,798.6875 461.3926,797.0313 Q462.7207,795.375 465.2207,795.375 Q465.9238,795.375 466.5645,795.5313 Q467.2207,795.6875 467.7832,795.9844 L467.7832,798.7031 Q467.1582,798.125 466.5645,797.8594 Q465.9707,797.5781 465.3457,797.5781 Q464.002,797.5781 463.3145,798.6563 Q462.627,799.7188 462.627,801.8125 Q462.627,803.9063 463.3145,804.9844 Q464.002,806.0469 465.3457,806.0469 Q465.9707,806.0469 466.5645,805.7813 Q467.1582,805.5 467.7832,804.9219 L467.7832,807.6406 Z " fill="#000000"/><text fill="#000000" font-family="sans-serif" font-size="14" lengthAdjust="spacing" textLength="47.4209" x="485.3145" y="806.8467">Prijava</text><line style="stroke:#181818;stroke-width:0.5;" x1="413" x2="572.5498" y1="818" y2="818"/><rect fill="none" height="6" style="stroke:#C82930;stroke-width:1;" width="6" x="420" y="828.6484"/><text fill="#000000" font-family="sans-serif" font-size="14" lengthAdjust="spacing" textLength="40.1953" x="432" y="834.9951">id: int</text><rect fill="none" height="6" style="stroke:#C82930;stroke-width:1;" width="6" x="420" y="844.9453"/><text fill="#000000" font-family="sans-serif" font-size="14" lengthAdjust="spacing" textLength="135.5498" x="432" y="851.292">datumPrijave: Date</text><rect fill="none" height="6" style="stroke:#C82930;stroke-width:1;" width="6" x="420" y="861.2422"/><text fill="#000000" font-family="sans-serif" font-size="14" lengthAdjust="spacing" textLength="109.3135" x="432" y="867.5889">status: «enum»</text><line style="stroke:#181818;stroke-width:0.5;" x1="413" x2="572.5498" y1="874.8906" y2="874.8906"/></g><!--class Status--><g class="entity" data-entity="Status" data-source-line="57" data-uid="ent0010" id="entity_Status"><rect fill="#F1F1F1" height="96.8906" rx="2.5" ry="2.5" style="stroke:#181818;stroke-width:0.5;" width="129.9541" x="22" y="124.5"/><ellipse cx="61.0042" cy="140.5" fill="#EB937F" rx="11" ry="11" style="stroke:#181818;stroke-width:1;"/><path d="M65.1136,146.5 L57.3949,146.5 L57.3949,134.1094 L65.1136,134.1094 L65.1136,136.2656 L59.848,136.2656 L59.848,138.9375 L64.6136,138.9375 L64.6136,141.0938 L59.848,141.0938 L59.848,144.3438 L65.1136,144.3438 L65.1136,146.5 Z " fill="#000000"/><text fill="#000000" font-family="sans-serif" font-size="14" lengthAdjust="spacing" textLength="44.6113" x="80.3385" y="145.3467">Status</text><line style="stroke:#181818;stroke-width:0.5;" x1="23" x2="150.9541" y1="156.5" y2="156.5"/><text fill="#000000" font-family="sans-serif" font-size="14" lengthAdjust="spacing" textLength="117.9541" x="28" y="173.4951">U RAZMATRANJU</text><text fill="#000000" font-family="sans-serif" font-size="14" lengthAdjust="spacing" textLength="65.625" x="28" y="189.792">PRIMLJEN</text><text fill="#000000" font-family="sans-serif" font-size="14" lengthAdjust="spacing" textLength="58.9805" x="28" y="206.0889">ODBIJEN</text><line style="stroke:#181818;stroke-width:0.5;" x1="23" x2="150.9541" y1="213.3906" y2="213.3906"/></g><!--class Notifikacija--><g class="entity" data-entity="Notifikacija" data-source-line="63" data-uid="ent0011" id="entity_Notifikacija"><rect fill="#F1F1F1" height="113.1875" rx="2.5" ry="2.5" style="stroke:#181818;stroke-width:0.5;" width="156.792" x="791.5" y="363.5"/><ellipse cx="827.5665" cy="379.5" fill="#ADD1B2" rx="11" ry="11" style="stroke:#181818;stroke-width:1;"/><path d="M830.5353,385.1406 Q829.9571,385.4375 829.3165,385.5781 Q828.6759,385.7344 827.9728,385.7344 Q825.4728,385.7344 824.1446,384.0938 Q822.8321,382.4375 822.8321,379.3125 Q822.8321,376.1875 824.1446,374.5313 Q825.4728,372.875 827.9728,372.875 Q828.6759,372.875 829.3165,373.0313 Q829.9728,373.1875 830.5353,373.4844 L830.5353,376.2031 Q829.9103,375.625 829.3165,375.3594 Q828.7228,375.0781 828.0978,375.0781 Q826.754,375.0781 826.0665,376.1563 Q825.379,377.2188 825.379,379.3125 Q825.379,381.4063 826.0665,382.4844 Q826.754,383.5469 828.0978,383.5469 Q828.7228,383.5469 829.3165,383.2813 Q829.9103,383 830.5353,382.4219 L830.5353,385.1406 Z " fill="#000000"/><text fill="#000000" font-family="sans-serif" font-size="14" lengthAdjust="spacing" textLength="77.9775" x="846.2479" y="384.3467">Notifikacija</text><line style="stroke:#181818;stroke-width:0.5;" x1="792.5" x2="947.292" y1="395.5" y2="395.5"/><rect fill="none" height="6" style="stroke:#C82930;stroke-width:1;" width="6" x="799.5" y="406.1484"/><text fill="#000000" font-family="sans-serif" font-size="14" lengthAdjust="spacing" textLength="40.1953" x="811.5" y="412.4951">id: int</text><rect fill="none" height="6" style="stroke:#C82930;stroke-width:1;" width="6" x="799.5" y="422.4453"/><text fill="#000000" font-family="sans-serif" font-size="14" lengthAdjust="spacing" textLength="98.123" x="811.5" y="428.792">poruka: string</text><rect fill="none" height="6" style="stroke:#C82930;stroke-width:1;" width="6" x="799.5" y="438.7422"/><text fill="#000000" font-family="sans-serif" font-size="14" lengthAdjust="spacing" textLength="130.792" x="811.5" y="445.0889">datumSlanja: Date</text><rect fill="none" height="6" style="stroke:#C82930;stroke-width:1;" width="6" x="799.5" y="455.0391"/><text fill="#000000" font-family="sans-serif" font-size="14" lengthAdjust="spacing" textLength="105.376" x="811.5" y="461.3857">procitano: bool</text><line style="stroke:#181818;stroke-width:0.5;" x1="792.5" x2="947.292" y1="468.6875" y2="468.6875"/></g><!--class Korisnik--><g class="entity" data-entity="Korisnik" data-source-line="3" data-uid="ent0004" id="entity_Korisnik"><rect fill="#F1F1F1" height="178.375" rx="2.5" ry="2.5" style="stroke:#181818;stroke-width:0.5;" width="152.1299" x="511" y="84"/><ellipse cx="555.0584" cy="100" fill="#ADD1B2" rx="11" ry="11" style="stroke:#181818;stroke-width:1;"/><path d="M558.0271,105.6406 Q557.449,105.9375 556.8084,106.0781 Q556.1678,106.2344 555.4646,106.2344 Q552.9646,106.2344 551.6365,104.5938 Q550.324,102.9375 550.324,99.8125 Q550.324,96.6875 551.6365,95.0313 Q552.9646,93.375 555.4646,93.375 Q556.1678,93.375 556.8084,93.5313 Q557.4646,93.6875 558.0271,93.9844 L558.0271,96.7031 Q557.4021,96.125 556.8084,95.8594 Q556.2146,95.5781 555.5896,95.5781 Q554.2459,95.5781 553.5584,96.6563 Q552.8709,97.7188 552.8709,99.8125 Q552.8709,101.9063 553.5584,102.9844 Q554.2459,104.0469 555.5896,104.0469 Q556.2146,104.0469 556.8084,103.7813 Q557.4021,103.5 558.0271,102.9219 L558.0271,105.6406 Z " fill="#000000"/><text fill="#000000" font-family="sans-serif" font-size="14" lengthAdjust="spacing" textLength="55.5557" x="575.5158" y="104.8467">Korisnik</text><line style="stroke:#181818;stroke-width:0.5;" x1="512" x2="662.1299" y1="116" y2="116"/><rect fill="none" height="6" style="stroke:#C82930;stroke-width:1;" width="6" x="519" y="126.6484"/><text fill="#000000" font-family="sans-serif" font-size="14" lengthAdjust="spacing" textLength="40.1953" x="531" y="132.9951">id: int</text><rect fill="none" height="6" style="stroke:#C82930;stroke-width:1;" width="6" x="519" y="142.9453"/><text fill="#000000" font-family="sans-serif" font-size="14" lengthAdjust="spacing" textLength="75.4961" x="531" y="149.292">ime: string</text><rect fill="none" height="6" style="stroke:#C82930;stroke-width:1;" width="6" x="519" y="159.2422"/><text fill="#000000" font-family="sans-serif" font-size="14" lengthAdjust="spacing" textLength="106.1006" x="531" y="165.5889">prezime: string</text><rect fill="none" height="6" style="stroke:#C82930;stroke-width:1;" width="6" x="519" y="175.5391"/><text fill="#000000" font-family="sans-serif" font-size="14" lengthAdjust="spacing" textLength="87.9648" x="531" y="181.8857">email: string</text><rect fill="none" height="6" style="stroke:#C82930;stroke-width:1;" width="6" x="519" y="191.8359"/><text fill="#000000" font-family="sans-serif" font-size="14" lengthAdjust="spacing" textLength="98.6084" x="531" y="198.1826">lozinka: string</text><line style="stroke:#181818;stroke-width:0.5;" x1="512" x2="662.1299" y1="205.4844" y2="205.4844"/><ellipse cx="522" cy="219.1328" fill="#84BE84" rx="3" ry="3" style="stroke:#038048;stroke-width:1;"/><text fill="#000000" font-family="sans-serif" font-size="14" lengthAdjust="spacing" textLength="93.2148" x="531" y="222.4795">Registracija()</text><ellipse cx="522" cy="235.4297" fill="#84BE84" rx="3" ry="3" style="stroke:#038048;stroke-width:1;"/><text fill="#000000" font-family="sans-serif" font-size="14" lengthAdjust="spacing" textLength="58.3447" x="531" y="238.7764">Prijava()</text><ellipse cx="522" cy="251.7266" fill="#84BE84" rx="3" ry="3" style="stroke:#038048;stroke-width:1;"/><text fill="#000000" font-family="sans-serif" font-size="14" lengthAdjust="spacing" textLength="126.1299" x="531" y="255.0732">AzuriranjeProfila()</text></g><!--class Poslodavac--><g class="entity" data-entity="Poslodavac" data-source-line="15" data-uid="ent0005" id="entity_Poslodavac"><rect fill="#F1F1F1" height="162.0781" rx="2.5" ry="2.5" style="stroke:#181818;stroke-width:0.5;" width="186.7676" x="183.5" y="339"/><ellipse cx="233.2417" cy="355" fill="#ADD1B2" rx="11" ry="11" style="stroke:#181818;stroke-width:1;"/><path d="M236.2104,360.6406 Q235.6323,360.9375 234.9917,361.0781 Q234.3511,361.2344 233.6479,361.2344 Q231.1479,361.2344 229.8198,359.5938 Q228.5073,357.9375 228.5073,354.8125 Q228.5073,351.6875 229.8198,350.0313 Q231.1479,348.375 233.6479,348.375 Q234.3511,348.375 234.9917,348.5313 Q235.6479,348.6875 236.2104,348.9844 L236.2104,351.7031 Q235.5854,351.125 234.9917,350.8594 Q234.3979,350.5781 233.7729,350.5781 Q232.4292,350.5781 231.7417,351.6563 Q231.0542,352.7188 231.0542,354.8125 Q231.0542,356.9063 231.7417,357.9844 Q232.4292,359.0469 233.7729,359.0469 Q234.3979,359.0469 234.9917,358.7813 Q235.5854,358.5 236.2104,357.9219 L236.2104,360.6406 Z " fill="#000000"/><text fill="#000000" font-family="sans-serif" font-size="14" lengthAdjust="spacing" textLength="78.7842" x="253.7417" y="359.8467">Poslodavac</text><line style="stroke:#181818;stroke-width:0.5;" x1="184.5" x2="369.2676" y1="371" y2="371"/><rect fill="none" height="6" style="stroke:#C82930;stroke-width:1;" width="6" x="191.5" y="381.6484"/><text fill="#000000" font-family="sans-serif" font-size="14" lengthAdjust="spacing" textLength="126.2803" x="203.5" y="387.9951">nazivFirme: string</text><rect fill="none" height="6" style="stroke:#C82930;stroke-width:1;" width="6" x="191.5" y="397.9453"/><text fill="#000000" font-family="sans-serif" font-size="14" lengthAdjust="spacing" textLength="97.0635" x="203.5" y="404.292">adresa: string</text><rect fill="none" height="6" style="stroke:#C82930;stroke-width:1;" width="6" x="191.5" y="414.2422"/><text fill="#000000" font-family="sans-serif" font-size="14" lengthAdjust="spacing" textLength="154.6016" x="203.5" y="420.5889">kontaktTelefon: string</text><line style="stroke:#181818;stroke-width:0.5;" x1="184.5" x2="369.2676" y1="427.8906" y2="427.8906"/><ellipse cx="194.5" cy="441.5391" fill="#84BE84" rx="3" ry="3" style="stroke:#038048;stroke-width:1;"/><text fill="#000000" font-family="sans-serif" font-size="14" lengthAdjust="spacing" textLength="101.1377" x="203.5" y="444.8857">PostaviOglas()</text><ellipse cx="194.5" cy="457.8359" fill="#84BE84" rx="3" ry="3" style="stroke:#038048;stroke-width:1;"/><text fill="#000000" font-family="sans-serif" font-size="14" lengthAdjust="spacing" textLength="91.3281" x="203.5" y="461.1826">ObrisiOglas()</text><ellipse cx="194.5" cy="474.1328" fill="#84BE84" rx="3" ry="3" style="stroke:#038048;stroke-width:1;"/><text fill="#000000" font-family="sans-serif" font-size="14" lengthAdjust="spacing" textLength="97.084" x="203.5" y="477.4795">IzmeniOglas()</text><ellipse cx="194.5" cy="490.4297" fill="#84BE84" rx="3" ry="3" style="stroke:#038048;stroke-width:1;"/><text fill="#000000" font-family="sans-serif" font-size="14" lengthAdjust="spacing" textLength="160.7676" x="203.5" y="493.7764">PromeniStatusPrijave()</text></g><!--class Kandidat--><g class="entity" data-entity="Kandidat" data-source-line="25" data-uid="ent0006" id="entity_Kandidat"><rect fill="#F1F1F1" height="96.8906" rx="2.5" ry="2.5" style="stroke:#181818;stroke-width:0.5;" width="174.3467" x="406" y="371.5"/><ellipse cx="457.7412" cy="387.5" fill="#ADD1B2" rx="11" ry="11" style="stroke:#181818;stroke-width:1;"/><path d="M460.71,393.1406 Q460.1318,393.4375 459.4912,393.5781 Q458.8506,393.7344 458.1475,393.7344 Q455.6475,393.7344 454.3193,392.0938 Q453.0068,390.4375 453.0068,387.3125 Q453.0068,384.1875 454.3193,382.5313 Q455.6475,380.875 458.1475,380.875 Q458.8506,380.875 459.4912,381.0313 Q460.1475,381.1875 460.71,381.4844 L460.71,384.2031 Q460.085,383.625 459.4912,383.3594 Q458.8975,383.0781 458.2725,383.0781 Q456.9287,383.0781 456.2412,384.1563 Q455.5537,385.2188 455.5537,387.3125 Q455.5537,389.4063 456.2412,390.4844 Q456.9287,391.5469 458.2725,391.5469 Q458.8975,391.5469 459.4912,391.2813 Q460.085,391 460.71,390.4219 L460.71,393.1406 Z " fill="#000000"/><text fill="#000000" font-family="sans-serif" font-size="14" lengthAdjust="spacing" textLength="62.3643" x="478.2412" y="392.3467">Kandidat</text><line style="stroke:#181818;stroke-width:0.5;" x1="407" x2="579.3467" y1="403.5" y2="403.5"/><rect fill="none" height="6" style="stroke:#C82930;stroke-width:1;" width="6" x="414" y="414.1484"/><text fill="#000000" font-family="sans-serif" font-size="14" lengthAdjust="spacing" textLength="65.3379" x="426" y="420.4951">cv: string</text><rect fill="none" height="6" style="stroke:#C82930;stroke-width:1;" width="6" x="414" y="430.4453"/><text fill="#000000" font-family="sans-serif" font-size="14" lengthAdjust="spacing" textLength="148.3467" x="426" y="436.792">vestine: List&lt;string&gt;</text><line style="stroke:#181818;stroke-width:0.5;" x1="407" x2="579.3467" y1="444.0938" y2="444.0938"/><ellipse cx="417" cy="457.7422" fill="#84BE84" rx="3" ry="3" style="stroke:#038048;stroke-width:1;"/><text fill="#000000" font-family="sans-serif" font-size="14" lengthAdjust="spacing" textLength="103.1885" x="426" y="461.0889">PosaljiPrijavu()</text></g><!--class Admin--><g class="entity" data-entity="Admin" data-source-line="30" data-uid="ent0007" id="entity_Admin"><rect fill="#F1F1F1" height="145.7813" rx="2.5" ry="2.5" style="stroke:#181818;stroke-width:0.5;" width="140.8779" x="615.5" y="347"/><ellipse cx="659.3062" cy="363" fill="#ADD1B2" rx="11" ry="11" style="stroke:#181818;stroke-width:1;"/><path d="M662.2749,368.6406 Q661.6968,368.9375 661.0562,369.0781 Q660.4155,369.2344 659.7124,369.2344 Q657.2124,369.2344 655.8843,367.5938 Q654.5718,365.9375 654.5718,362.8125 Q654.5718,359.6875 655.8843,358.0313 Q657.2124,356.375 659.7124,356.375 Q660.4155,356.375 661.0562,356.5313 Q661.7124,356.6875 662.2749,356.9844 L662.2749,359.7031 Q661.6499,359.125 661.0562,358.8594 Q660.4624,358.5781 659.8374,358.5781 Q658.4937,358.5781 657.8062,359.6563 Q657.1187,360.7188 657.1187,362.8125 Q657.1187,364.9063 657.8062,365.9844 Q658.4937,367.0469 659.8374,367.0469 Q660.4624,367.0469 661.0562,366.7813 Q661.6499,366.5 662.2749,365.9219 L662.2749,368.6406 Z " fill="#000000"/><text fill="#000000" font-family="sans-serif" font-size="14" lengthAdjust="spacing" textLength="44.8643" x="679.7075" y="367.8467">Admin</text><line style="stroke:#181818;stroke-width:0.5;" x1="616.5" x2="755.3779" y1="379" y2="379"/><rect fill="none" height="6" style="stroke:#C82930;stroke-width:1;" width="6" x="623.5" y="389.6484"/><text fill="#000000" font-family="sans-serif" font-size="14" lengthAdjust="spacing" textLength="40.1953" x="635.5" y="395.9951">id: int</text><rect fill="none" height="6" style="stroke:#C82930;stroke-width:1;" width="6" x="623.5" y="405.9453"/><text fill="#000000" font-family="sans-serif" font-size="14" lengthAdjust="spacing" textLength="75.4961" x="635.5" y="412.292">ime: string</text><rect fill="none" height="6" style="stroke:#C82930;stroke-width:1;" width="6" x="623.5" y="422.2422"/><text fill="#000000" font-family="sans-serif" font-size="14" lengthAdjust="spacing" textLength="106.1006" x="635.5" y="428.5889">prezime: string</text><rect fill="none" height="6" style="stroke:#C82930;stroke-width:1;" width="6" x="623.5" y="438.5391"/><text fill="#000000" font-family="sans-serif" font-size="14" lengthAdjust="spacing" textLength="113.1895" x="635.5" y="444.8857">odeljenje: string</text><line style="stroke:#181818;stroke-width:0.5;" x1="616.5" x2="755.3779" y1="452.1875" y2="452.1875"/><ellipse cx="626.5" cy="465.8359" fill="#84BE84" rx="3" ry="3" style="stroke:#038048;stroke-width:1;"/><text fill="#000000" font-family="sans-serif" font-size="14" lengthAdjust="spacing" textLength="91.3281" x="635.5" y="469.1826">ObrisiOglas()</text><ellipse cx="626.5" cy="482.1328" fill="#84BE84" rx="3" ry="3" style="stroke:#038048;stroke-width:1;"/><text fill="#000000" font-family="sans-serif" font-size="14" lengthAdjust="spacing" textLength="114.8779" x="635.5" y="485.4795">BanujKorisnika()</text></g><!--reverse link Korisnik to Kandidat--><g class="link" data-entity-1="Korisnik" data-entity-2="Kandidat" data-source-line="73" data-uid="lnk12" id="link_Korisnik_Kandidat"><path codeLine="73" d="M546.7527,278.9057 C532.5927,315.8157 523.14,340.44 511.24,371.46" fill="none" id="Korisnik-backto-Kandidat" style="stroke:#181818;stroke-width:1;"/><polygon fill="none" points="553.2,262.1,541.1508,276.7566,552.3546,281.0548,553.2,262.1" style="stroke:#181818;stroke-width:1;"/></g><!--reverse link Korisnik to Poslodavac--><g class="link" data-entity-1="Korisnik" data-entity-2="Poslodavac" data-source-line="74" data-uid="lnk13" id="link_Korisnik_Poslodavac"><path codeLine="74" d="M497.2635,270.6285 C449.5935,311.2385 440.71,303.68 389,339 C382.98,343.11 376.81,347.38 370.6,351.7" fill="none" id="Korisnik-backto-Poslodavac" style="stroke:#181818;stroke-width:1;"/><polygon fill="none" points="510.77,258.73,493.2974,266.1264,501.2297,275.1307,510.77,258.73" style="stroke:#181818;stroke-width:1;"/></g><!--reverse link Korisnik to Admin--><g class="link" data-entity-1="Korisnik" data-entity-2="Admin" data-source-line="75" data-uid="lnk14" id="link_Korisnik_Admin"><path codeLine="75" d="M627.9727,279.0813 C634.1227,294.6513 633.9,293.95 640,309 C644.98,321.28 650.34,334.29 655.59,346.91" fill="none" id="Korisnik-backto-Admin" style="stroke:#181818;stroke-width:1;"/><polygon fill="none" points="621.36,262.34,622.3922,281.2856,633.5531,276.8771,621.36,262.34" style="stroke:#181818;stroke-width:1;"/></g><!--link Poslodavac to Oglas--><g class="link" data-entity-1="Poslodavac" data-entity-2="Oglas" data-source-line="77" data-uid="lnk15" id="link_Poslodavac_Oglas"><path codeLine="77" d="M288.51,501.01 C292.23,526.93 295.4664,549.361 298.9964,573.921" fill="none" id="Poslodavac-to-Oglas" style="stroke:#181818;stroke-width:1;"/><polygon fill="#181818" points="299.85,579.86,302.5289,570.3825,299.1387,574.9109,294.6103,571.5206,299.85,579.86" style="stroke:#181818;stroke-width:1;"/><text fill="#000000" font-family="sans-serif" font-size="13" lengthAdjust="spacing" textLength="62.5498" x="295" y="546.0669">objavljuje</text><text fill="#000000" font-family="sans-serif" font-size="13" lengthAdjust="spacing" textLength="8.271" x="281.2255" y="521.2389">1</text><text fill="#000000" font-family="sans-serif" font-size="13" lengthAdjust="spacing" textLength="6.5" x="292.5666" y="569.0174">*</text></g><!--link Kandidat to Prijava--><g class="link" data-entity-1="Kandidat" data-entity-2="Prijava" data-source-line="78" data-uid="lnk16" id="link_Kandidat_Prijava"><path codeLine="78" d="M493,468.72 C493,548.14 493,700.54 493,779.89" fill="none" id="Kandidat-to-Prijava" style="stroke:#181818;stroke-width:1;"/><polygon fill="#181818" points="493,785.89,497,776.89,493,780.89,489,776.89,493,785.89" style="stroke:#181818;stroke-width:1;"/><text fill="#000000" font-family="sans-serif" font-size="13" lengthAdjust="spacing" textLength="29.9609" x="494" y="649.0669">salje</text><text fill="#000000" font-family="sans-serif" font-size="13" lengthAdjust="spacing" textLength="6.5" x="486.6072" y="488.3577">*</text><text fill="#000000" font-family="sans-serif" font-size="13" lengthAdjust="spacing" textLength="6.5" x="486.6449" y="775.0835">*</text></g><!--link Oglas to Prijava--><g class="link" data-entity-1="Oglas" data-entity-2="Prijava" data-source-line="79" data-uid="lnk17" id="link_Oglas_Prijava"><path codeLine="79" d="M371.29,709.15 C395.9,734.29 419.4836,758.3816 442.2836,781.6816" fill="none" id="Oglas-to-Prijava" style="stroke:#181818;stroke-width:1;"/><polygon fill="#181818" points="446.48,785.97,443.0444,776.7398,442.983,782.3963,437.3265,782.335,446.48,785.97" style="stroke:#181818;stroke-width:1;"/><text fill="#000000" font-family="sans-serif" font-size="13" lengthAdjust="spacing" textLength="37.8384" x="413" y="752.0669">prima</text><text fill="#000000" font-family="sans-serif" font-size="13" lengthAdjust="spacing" textLength="8.271" x="370.0647" y="729.5389">1</text><text fill="#000000" font-family="sans-serif" font-size="13" lengthAdjust="spacing" textLength="6.5" x="433.2765" y="774.8253">*</text></g><!--link Korisnik to Notifikacija--><g class="link" data-entity-1="Korisnik" data-entity-2="Notifikacija" data-source-line="81" data-uid="lnk18" id="link_Korisnik_Notifikacija"><path codeLine="81" d="M663.21,239.98 C707.74,278.53 758.7839,322.7127 801.1039,359.3527" fill="none" id="Korisnik-to-Notifikacija" style="stroke:#181818;stroke-width:1;"/><polygon fill="#181818" points="805.64,363.28,801.454,354.365,801.8599,360.0073,796.2176,360.4131,805.64,363.28" style="stroke:#181818;stroke-width:1;"/><text fill="#000000" font-family="sans-serif" font-size="13" lengthAdjust="spacing" textLength="37.8384" x="737" y="305.0669">prima</text><text fill="#000000" font-family="sans-serif" font-size="13" lengthAdjust="spacing" textLength="8.271" x="671.1126" y="242.89">1</text><text fill="#000000" font-family="sans-serif" font-size="13" lengthAdjust="spacing" textLength="6.5" x="791.4736" y="352.5167">*</text></g><!--link Notifikacija to Prijava--><g class="link" data-entity-1="Notifikacija" data-entity-2="Prijava" data-source-line="82" data-uid="lnk19" id="link_Notifikacija_Prijava"><path codeLine="82" d="M819.16,476.63 C744.59,558.22 610.8881,704.5214 540.6681,781.3414" fill="none" id="Notifikacija-to-Prijava" style="stroke:#181818;stroke-width:1;"/><polygon fill="#181818" points="536.62,785.77,545.6446,781.8258,539.9934,782.0795,539.7398,776.4283,536.62,785.77" style="stroke:#181818;stroke-width:1;"/><text fill="#000000" font-family="sans-serif" font-size="13" lengthAdjust="spacing" textLength="65.6094" x="719" y="649.0669">vezana za</text><text fill="#000000" font-family="sans-serif" font-size="13" lengthAdjust="spacing" textLength="6.5" x="806.3071" y="496.91">*</text><text fill="#000000" font-family="sans-serif" font-size="13" lengthAdjust="spacing" textLength="8.271" x="534.2423" y="774.9466">1</text></g><!--SRC=[dPDDZwCm38Rl_8g8qtw8mrnHLOdHx4gTZnPrPYwzkP1MXf2W43Wmk_zz7S97Q6zRjLBznjXFNfiQiXAkd8Kdw5JEJa3VMZMYW0vamKFs5THJoelIs4ZCCFmACW5DmqQbf2p68inZXj8CVoiUiyPeb5SRrfhtDnAl08Kl2DMZBC6JVXxv5Ic230luzjqggKPBveAaRpLgYvbgTK7XvE1lCDAbT0-LKthc-2JqsFr6lGQ1NFF6RnkLIXeepGSN_AAa3qGL3NHuk59znt0uamE-iEihBds1sApoRi2qZUFdT39Jle3CCGVZ6BFE9-buOr0IxYlvi77wTWG1KQ0hrmxbNBKahr3-npXKpaN1oKh_kdUNUmJP5jFG5xldkmofTzq7trCQByrntRJ6ne_9XROwdAr3CNi2mwseLNc2qRTHNIRirk6kur1e_GofpJ22c6qsNBRLTclhaCwO3PaRq53AVZxPCJcz9H_7PF_yEMhfSVVs-lnhFuQ7fyVT5Cr8UsNmGkROdRtZgfLkLolkIDy5BJ4ieBLM6HgGAcPdfSJ0IR_vRTlyYQ9vRsxaPUbl3eRD20BlfGWVGXP5MnR-2CV9nKnPzqNH5ZoO5zEUJtcJutG7Ma0UkEVyIaj6hR423zlFMjaqfQx4kUk3NxFZFKXWFVm3]--></g></svg>