<svg xmlns="http://www.w3.org/2000/svg" xmlns:xlink="http://www.w3.org/1999/xlink" contentStyleType="text/css" data-diagram-type="DESCRIPTION" height="218px" preserveAspectRatio="none" style="width:2883px;height:218px;background:#FFFFFF;" version="1.1" viewBox="0 0 2883 218" width="2883px" zoomAndPan="magnify"><defs/><g><!--cluster Svi korisnici--><g class="cluster" data-entity="Svi korisnici" data-source-line="6" data-uid="ent0006" id="cluster_Svi korisnici"><rect fill="none" height="90" rx="2.5" ry="2.5" style="stroke:#181818;stroke-width:1;" width="905" x="1972" y="114.5"/><text fill="#000000" font-family="sans-serif" font-size="14" font-weight="bold" lengthAdjust="spacing" textLength="95.71" x="2376.645" y="129.4951">Svi korisnici</text></g><!--cluster Kandidat--><g class="cluster" data-entity="Kandidat" data-source-line="14" data-uid="ent0012" id="cluster_Kandidat"><rect fill="none" height="94" rx="2.5" ry="2.5" style="stroke:#181818;stroke-width:1;" width="392" x="7" y="112.5"/><text fill="#000000" font-family="sans-serif" font-size="14" font-weight="bold" lengthAdjust="spacing" textLength="71.2441" x="167.3779" y="127.4951">Kandidat</text></g><!--cluster Poslodavac--><g class="cluster" data-entity="Poslodavac" data-source-line="19" data-uid="ent0015" id="cluster_Poslodavac"><rect fill="none" height="106" rx="2.5" ry="2.5" style="stroke:#181818;stroke-width:1;" width="1065" x="423" y="106.5"/><text fill="#000000" font-family="sans-serif" font-size="14" font-weight="bold" lengthAdjust="spacing" textLength="88.9697" x="911.0151" y="121.4951">Poslodavac</text></g><!--cluster Administrator--><g class="cluster" data-entity="Administrator" data-source-line="28" data-uid="ent0021" id="cluster_Administrator"><rect fill="none" height="94" rx="2.5" ry="2.5" style="stroke:#181818;stroke-width:1;" width="436" x="1512" y="112.5"/><text fill="#000000" font-family="sans-serif" font-size="14" font-weight="bold" lengthAdjust="spacing" textLength="109.6006" x="1675.1997" y="127.4951">Administrator</text></g><!--entity Registracija--><g class="entity" data-entity="Registracija" data-source-line="7" data-uid="ent0007" id="entity_Registracija"><ellipse cx="2799.904" cy="169.0808" fill="#F1F1F1" rx="60.904" ry="14.5808" style="stroke:#181818;stroke-width:0.5;"/><text fill="#000000" font-family="sans-serif" font-size="14" lengthAdjust="spacing" textLength="82.291" x="2758.7585" y="173.7292">Registracija</text></g><!--entity Prijava--><g class="entity" data-entity="Prijava" data-source-line="8" data-uid="ent0008" id="entity_Prijava"><ellipse cx="2628.0217" cy="169.0043" fill="#F1F1F1" rx="75.5217" ry="17.5043" style="stroke:#181818;stroke-width:0.5;"/><text fill="#000000" font-family="sans-serif" font-size="14" lengthAdjust="spacing" textLength="119.9912" x="2568.0261" y="173.6528">Prijava na sistem</text></g><!--entity AzuriranjeProfila--><g class="entity" data-entity="AzuriranjeProfila" data-source-line="9" data-uid="ent0009" id="entity_AzuriranjeProfila"><ellipse cx="2442.067" cy="169.0134" fill="#F1F1F1" rx="75.567" ry="17.5134" style="stroke:#181818;stroke-width:0.5;"/><text fill="#000000" font-family="sans-serif" font-size="14" lengthAdjust="spacing" textLength="120.1006" x="2382.0167" y="173.6618">Ažuriranje profila</text></g><!--entity PregledOglasa--><g class="entity" data-entity="PregledOglasa" data-source-line="10" data-uid="ent0010" id="entity_PregledOglasa"><ellipse cx="2261.7974" cy="169.1595" fill="#F1F1F1" rx="68.7974" ry="16.1595" style="stroke:#181818;stroke-width:0.5;"/><text fill="#000000" font-family="sans-serif" font-size="14" lengthAdjust="spacing" textLength="103.332" x="2210.1314" y="173.8079">Pregled oglasa</text></g><!--entity PrimanjeNotifikacija--><g class="entity" data-entity="PrimanjeNotifikacija" data-source-line="11" data-uid="ent0011" id="entity_PrimanjeNotifikacija"><ellipse cx="2073.0799" cy="168.916" fill="#F1F1F1" rx="85.0799" ry="19.416" style="stroke:#181818;stroke-width:0.5;"/><text fill="#000000" font-family="sans-serif" font-size="14" lengthAdjust="spacing" textLength="142.5088" x="2001.8255" y="173.5644">Primanje notifikacija</text></g><!--entity SlanjePrijave--><g class="entity" data-entity="SlanjePrijave" data-source-line="15" data-uid="ent0013" id="entity_SlanjePrijave"><ellipse cx="317.1101" cy="169.022" fill="#F1F1F1" rx="65.6101" ry="15.522" style="stroke:#181818;stroke-width:0.5;"/><text fill="#000000" font-family="sans-serif" font-size="14" lengthAdjust="spacing" textLength="95.0811" x="269.5696" y="173.6705">Slanje prijave</text></g><!--entity PracenjeStatusa--><g class="entity" data-entity="PracenjeStatusa" data-source-line="16" data-uid="ent0014" id="entity_PracenjeStatusa"><ellipse cx="120.2468" cy="169.2494" fill="#F1F1F1" rx="96.7468" ry="21.7494" style="stroke:#181818;stroke-width:0.5;"/><text fill="#000000" font-family="sans-serif" font-size="14" lengthAdjust="spacing" textLength="168.8613" x="35.8161" y="173.8978">Praćenje statusa prijave</text></g><!--entity ObjavaOglasa--><g class="entity" data-entity="ObjavaOglasa" data-source-line="20" data-uid="ent0016" id="entity_ObjavaOglasa"><ellipse cx="1403.7975" cy="168.8595" fill="#F1F1F1" rx="67.2975" ry="15.8595" style="stroke:#181818;stroke-width:0.5;"/><text fill="#000000" font-family="sans-serif" font-size="14" lengthAdjust="spacing" textLength="99.4834" x="1354.0558" y="173.5079">Objava oglasa</text></g><!--entity UpravljanjeOglasima--><g class="entity" data-entity="UpravljanjeOglasima" data-source-line="21" data-uid="ent0017" id="entity_UpravljanjeOglasima"><ellipse cx="1214.1504" cy="168.8301" fill="#F1F1F1" rx="87.1504" ry="19.8301" style="stroke:#181818;stroke-width:0.5;"/><text fill="#000000" font-family="sans-serif" font-size="14" lengthAdjust="spacing" textLength="147.2598" x="1140.5205" y="173.4785">Upravljanje oglasima</text></g><!--entity NotifikacijePoslodavca--><g class="entity" data-entity="NotifikacijePoslodavca" data-source-line="22" data-uid="ent0018" id="entity_NotifikacijePoslodavca"><ellipse cx="967.0305" cy="168.9061" fill="#F1F1F1" rx="125.0305" ry="27.4061" style="stroke:#181818;stroke-width:0.5;"/><text fill="#000000" font-family="sans-serif" font-size="14" lengthAdjust="spacing" textLength="230.0566" x="852.0022" y="173.5545">Primanje notifikacija o prijavama</text></g><!--entity ObradaPrijava--><g class="entity" data-entity="ObradaPrijava" data-source-line="23" data-uid="ent0019" id="entity_ObradaPrijava"><ellipse cx="738.0689" cy="169.2138" fill="#F1F1F1" rx="69.0689" ry="16.2138" style="stroke:#181818;stroke-width:0.5;"/><text fill="#000000" font-family="sans-serif" font-size="14" lengthAdjust="spacing" textLength="104.0225" x="686.0576" y="173.8622">Obrada prijava</text></g><!--entity PromenaStatusa--><g class="entity" data-entity="PromenaStatusa" data-source-line="24" data-uid="ent0020" id="entity_PromenaStatusa"><ellipse cx="536.1497" cy="168.9299" fill="#F1F1F1" rx="97.6497" ry="21.9299" style="stroke:#181818;stroke-width:0.5;"/><text fill="#000000" font-family="sans-serif" font-size="14" lengthAdjust="spacing" textLength="170.8643" x="450.7176" y="173.5784">Promena statusa prijave</text></g><!--entity UpravljanjeKorisnicima--><g class="entity" data-entity="UpravljanjeKorisnicima" data-source-line="29" data-uid="ent0022" id="entity_UpravljanjeKorisnicima"><ellipse cx="1837.1163" cy="168.8233" fill="#F1F1F1" rx="94.6163" ry="21.3233" style="stroke:#181818;stroke-width:0.5;"/><text fill="#000000" font-family="sans-serif" font-size="14" lengthAdjust="spacing" textLength="164.1172" x="1755.0577" y="173.4717">Upravljanje korisnicima</text></g><!--entity UpravljanjeSistemom--><g class="entity" data-entity="UpravljanjeSistemom" data-source-line="30" data-uid="ent0023" id="entity_UpravljanjeSistemom"><ellipse cx="1617.8902" cy="168.778" fill="#F1F1F1" rx="89.3902" ry="20.278" style="stroke:#181818;stroke-width:0.5;"/><text fill="#000000" font-family="sans-serif" font-size="14" lengthAdjust="spacing" textLength="152.3594" x="1541.7105" y="173.4265">Upravljanje sistemom</text></g><!--entity KandidatAlias--><g class="entity" data-entity="KandidatAlias" data-source-line="1" data-uid="ent0002" id="entity_KandidatAlias"><ellipse cx="219.1821" cy="14" fill="#F1F1F1" rx="8" ry="8" style="stroke:#181818;stroke-width:0.5;"/><path d="M219.1821,22 L219.1821,49 M206.1821,30 L232.1821,30 M219.1821,49 L206.1821,64 M219.1821,49 L232.1821,64" fill="none" style="stroke:#181818;stroke-width:0.5;"/><text fill="#000000" font-family="sans-serif" font-size="14" lengthAdjust="spacing" textLength="62.3643" x="188" y="78.4951">Kandidat</text></g><!--entity PoslodavacAlias--><g class="entity" data-entity="PoslodavacAlias" data-source-line="2" data-uid="ent0003" id="entity_PoslodavacAlias"><ellipse cx="966.8921" cy="14" fill="#F1F1F1" rx="8" ry="8" style="stroke:#181818;stroke-width:0.5;"/><path d="M966.8921,22 L966.8921,49 M953.8921,30 L979.8921,30 M966.8921,49 L953.8921,64 M966.8921,49 L979.8921,64" fill="none" style="stroke:#181818;stroke-width:0.5;"/><text fill="#000000" font-family="sans-serif" font-size="14" lengthAdjust="spacing" textLength="78.7842" x="927.5" y="78.4951">Poslodavac</text></g><!--entity AdminAlias--><g class="entity" data-entity="AdminAlias" data-source-line="3" data-uid="ent0004" id="entity_AdminAlias"><ellipse cx="1726.8413" cy="14" fill="#F1F1F1" rx="8" ry="8" style="stroke:#181818;stroke-width:0.5;"/><path d="M1726.8413,22 L1726.8413,49 M1713.8413,30 L1739.8413,30 M1726.8413,49 L1713.8413,64 M1726.8413,49 L1739.8413,64" fill="none" style="stroke:#181818;stroke-width:0.5;"/><text fill="#000000" font-family="sans-serif" font-size="14" lengthAdjust="spacing" textLength="95.6826" x="1679" y="78.4951">Administrator</text></g><!--entity KorisnikAlias--><g class="entity" data-entity="KorisnikAlias" data-source-line="4" data-uid="ent0005" id="entity_KorisnikAlias"><ellipse cx="2441.7778" cy="14" fill="#F1F1F1" rx="8" ry="8" style="stroke:#181818;stroke-width:0.5;"/><path d="M2441.7778,22 L2441.7778,49 M2428.7778,30 L2454.7778,30 M2441.7778,49 L2428.7778,64 M2441.7778,49 L2454.7778,64" fill="none" style="stroke:#181818;stroke-width:0.5;"/><text fill="#000000" font-family="sans-serif" font-size="14" lengthAdjust="spacing" textLength="55.5557" x="2414" y="78.4951">Korisnik</text></g><!--link KorisnikAlias to Registracija--><g class="link" data-entity-1="KorisnikAlias" data-entity-2="Registracija" data-source-line="35" data-uid="lnk24" id="link_KorisnikAlias_Registracija"><path d="M2470.06,45.13 C2522.14,47.3 2636.19,56.87 2721,98.5 C2749.04,112.27 2770.9094,134.1429 2784.9694,150.1429" fill="none" id="KorisnikAlias-to-Registracija" style="stroke:#181818;stroke-width:1;"/><polygon fill="#181818" points="2788.93,154.65,2785.9938,145.249,2785.6295,150.8941,2779.9844,150.5298,2788.93,154.65" style="stroke:#181818;stroke-width:1;"/></g><!--link KorisnikAlias to Prijava--><g class="link" data-entity-1="KorisnikAlias" data-entity-2="Prijava" data-source-line="36" data-uid="lnk25" id="link_KorisnikAlias_Prijava"><path d="M2470.18,59.74 C2488.89,70.14 2513.82,84.5 2535,98.5 C2560.9,115.61 2584.5719,133.5833 2603.0919,148.1333" fill="none" id="KorisnikAlias-to-Prijava" style="stroke:#181818;stroke-width:1;"/><polygon fill="#181818" points="2607.81,151.84,2603.204,143.1346,2603.8783,148.7511,2598.2617,149.4253,2607.81,151.84" style="stroke:#181818;stroke-width:1;"/></g><!--link KorisnikAlias to AzuriranjeProfila--><g class="link" data-entity-1="KorisnikAlias" data-entity-2="AzuriranjeProfila" data-source-line="37" data-uid="lnk26" id="link_KorisnikAlias_AzuriranjeProfila"><path d="M2442,81.55 C2442,104.72 2442,127.43 2442,145.23" fill="none" id="KorisnikAlias-to-AzuriranjeProfila" style="stroke:#181818;stroke-width:1;"/><polygon fill="#181818" points="2442,151.23,2446,142.23,2442,146.23,2438,142.23,2442,151.23" style="stroke:#181818;stroke-width:1;"/></g><!--link KorisnikAlias to PregledOglasa--><g class="link" data-entity-1="KorisnikAlias" data-entity-2="PregledOglasa" data-source-line="38" data-uid="lnk27" id="link_KorisnikAlias_PregledOglasa"><path d="M2413.67,59.52 C2394.89,69.82 2369.96,84.16 2349,98.5 C2323.47,115.97 2300.4302,134.8507 2283.3202,149.4807" fill="none" id="KorisnikAlias-to-PregledOglasa" style="stroke:#181818;stroke-width:1;"/><polygon fill="#181818" points="2278.76,153.38,2288.1999,150.5713,2282.5602,150.1306,2283.0009,144.491,2278.76,153.38" style="stroke:#181818;stroke-width:1;"/></g><!--link KorisnikAlias to PrimanjeNotifikacija--><g class="link" data-entity-1="KorisnikAlias" data-entity-2="PrimanjeNotifikacija" data-source-line="39" data-uid="lnk28" id="link_KorisnikAlias_PrimanjeNotifikacija"><path d="M2413.76,46.59 C2363.98,51.04 2258.14,64.07 2176,98.5 C2145.36,111.34 2118.9922,130.1281 2099.1122,146.0581" fill="none" id="KorisnikAlias-to-PrimanjeNotifikacija" style="stroke:#181818;stroke-width:1;"/><polygon fill="#181818" points="2094.43,149.81,2103.9546,147.3036,2098.3319,146.6834,2098.9521,141.0607,2094.43,149.81" style="stroke:#181818;stroke-width:1;"/></g><!--link KandidatAlias to SlanjePrijave--><g class="link" data-entity-1="KandidatAlias" data-entity-2="SlanjePrijave" data-source-line="43" data-uid="lnk29" id="link_KandidatAlias_SlanjePrijave"><path d="M248.4,81.55 C267.57,105.71 287.7995,131.2107 301.7395,148.7707" fill="none" id="KandidatAlias-to-SlanjePrijave" style="stroke:#181818;stroke-width:1;"/><polygon fill="#181818" points="305.47,153.47,303.0071,143.9341,302.3612,149.5539,296.7414,148.9081,305.47,153.47" style="stroke:#181818;stroke-width:1;"/></g><!--link KandidatAlias to PracenjeStatusa--><g class="link" data-entity-1="KandidatAlias" data-entity-2="PracenjeStatusa" data-source-line="44" data-uid="lnk30" id="link_KandidatAlias_PracenjeStatusa"><path d="M189.3,81.55 C171.98,103.15 154.5517,124.8976 140.2017,142.8076" fill="none" id="KandidatAlias-to-PracenjeStatusa" style="stroke:#181818;stroke-width:1;"/><polygon fill="#181818" points="136.45,147.49,145.1991,142.9675,139.5764,143.588,138.9559,137.9653,136.45,147.49" style="stroke:#181818;stroke-width:1;"/></g><!--link PoslodavacAlias to ObjavaOglasa--><g class="link" data-entity-1="PoslodavacAlias" data-entity-2="ObjavaOglasa" data-source-line="48" data-uid="lnk31" id="link_PoslodavacAlias_ObjavaOglasa"><path d="M1006.64,43.91 C1073.87,44.32 1213.24,51.42 1319,98.5 C1347.91,111.37 1370.9286,132.4285 1386.4486,148.6985" fill="none" id="PoslodavacAlias-to-ObjavaOglasa" style="stroke:#181818;stroke-width:1;"/><polygon fill="#181818" points="1390.59,153.04,1387.2723,143.7668,1387.1388,149.4221,1381.4836,149.2886,1390.59,153.04" style="stroke:#181818;stroke-width:1;"/></g><!--link PoslodavacAlias to UpravljanjeOglasima--><g class="link" data-entity-1="PoslodavacAlias" data-entity-2="UpravljanjeOglasima" data-source-line="49" data-uid="lnk32" id="link_PoslodavacAlias_UpravljanjeOglasima"><path d="M1006.57,56.73 C1035.87,66.43 1076.37,81.2 1110,98.5 C1138.77,113.3 1164.4462,130.8655 1184.9262,145.9255" fill="none" id="PoslodavacAlias-to-UpravljanjeOglasima" style="stroke:#181818;stroke-width:1;"/><polygon fill="#181818" points="1189.76,149.48,1184.879,140.9257,1185.7319,146.5179,1180.1397,147.3707,1189.76,149.48" style="stroke:#181818;stroke-width:1;"/></g><!--link PoslodavacAlias to ObradaPrijava--><g class="link" data-entity-1="PoslodavacAlias" data-entity-2="ObradaPrijava" data-source-line="50" data-uid="lnk33" id="link_PoslodavacAlias_ObradaPrijava"><path d="M927.26,55.94 C897.94,65.25 857.64,79.87 825,98.5 C797.63,114.12 774.2594,133.961 757.6794,149.261" fill="none" id="PoslodavacAlias-to-ObradaPrijava" style="stroke:#181818;stroke-width:1;"/><polygon fill="#181818" points="753.27,153.33,762.5968,150.1661,756.9445,149.9392,757.1715,144.2869,753.27,153.33" style="stroke:#181818;stroke-width:1;"/></g><!--link PoslodavacAlias to PromenaStatusa--><g class="link" data-entity-1="PoslodavacAlias" data-entity-2="PromenaStatusa" data-source-line="51" data-uid="lnk34" id="link_PoslodavacAlias_PromenaStatusa"><path d="M927.49,46.6 C866.61,50.86 746.95,63.32 652,98.5 C619.42,110.57 590.6527,128.4654 568.0327,144.3254" fill="none" id="PoslodavacAlias-to-PromenaStatusa" style="stroke:#181818;stroke-width:1;"/><polygon fill="#181818" points="563.12,147.77,572.7855,145.8783,567.2139,144.8995,568.1927,139.328,563.12,147.77" style="stroke:#181818;stroke-width:1;"/></g><!--link PoslodavacAlias to NotifikacijePoslodavca--><g class="link" data-entity-1="PoslodavacAlias" data-entity-2="NotifikacijePoslodavca" data-source-line="52" data-uid="lnk35" id="link_PoslodavacAlias_NotifikacijePoslodavca"><path d="M967,81.55 C967,100.74 967,117.73 967,135.18" fill="none" id="PoslodavacAlias-to-NotifikacijePoslodavca" style="stroke:#181818;stroke-width:1;"/><polygon fill="#181818" points="967,141.18,971,132.18,967,136.18,963,132.18,967,141.18" style="stroke:#181818;stroke-width:1;"/></g><!--link AdminAlias to UpravljanjeKorisnicima--><g class="link" data-entity-1="AdminAlias" data-entity-2="UpravljanjeKorisnicima" data-source-line="56" data-uid="lnk36" id="link_AdminAlias_UpravljanjeKorisnicima"><path d="M1760,81.55 C1779.37,103.3 1799.0996,125.4493 1815.0496,143.3593" fill="none" id="AdminAlias-to-UpravljanjeKorisnicima" style="stroke:#181818;stroke-width:1;"/><polygon fill="#181818" points="1819.04,147.84,1816.0416,138.4587,1815.7147,144.1061,1810.0673,143.7792,1819.04,147.84" style="stroke:#181818;stroke-width:1;"/></g><!--link AdminAlias to UpravljanjeSistemom--><g class="link" data-entity-1="AdminAlias" data-entity-2="UpravljanjeSistemom" data-source-line="57" data-uid="lnk37" id="link_AdminAlias_UpravljanjeSistemom"><path d="M1694.3,81.55 C1674.86,103.58 1654.9595,126.1208 1639.1495,144.0408" fill="none" id="AdminAlias-to-UpravljanjeSistemom" style="stroke:#181818;stroke-width:1;"/><polygon fill="#181818" points="1635.18,148.54,1644.1337,144.4375,1638.4879,144.7906,1638.1347,139.1448,1635.18,148.54" style="stroke:#181818;stroke-width:1;"/></g><!--SRC=[ZLGvRiCm4EprYeKQL_v20DS6OYD2qcyesg1rq21b5JPIvrUfad-5Mf8HIL50t75szXhF2jaW5PHxx6jHur02Ql2FNIjG5sWPHwbRMUE8Z3ZpCsBjwaxqGWyApPE8X4ISlLH2zwAnlTp3CWh5sO3zkULGLgE0naQPA1y5cDzDSuRQ15_ucRemSK6g4m8nzQWCD2Bq2DfGU6VdjsXCtVrytPHGs5yuN9KyYTOMtzqzVBHese6RYMkGvnOrkl847GXPpDDHXruEuYIQUGSVUGu2nKSaolm_9O9KhPjwMejJEGlPHNaw0tv_yYb13pZSD4Q99igcO6LZoGYX4P8X3k-aTA23HN8ol5uLZks5fgO4ipkb1863m_yX84Yt0heoWOZSZymmdLTXxNVt0qzGrXtcl-_uvAAiP1GB50ibIwxYiQx4d-6NOkpdq7g-TRZiqkJAuTDac-rs2s_ypk6Elc73mQ154PsZWPxYmrg6lLBBoF9eSjdXcMIhBo-Ys42qWJi9T1k47oyg4j_1CfxQFMrm_NCFTKY-V5GYidcEa3Drlb1elnmZSLgEicBzT2yCNMbtcp_MwTIX-zPPtcQ_]--></g></svg>