<svg xmlns="http://www.w3.org/2000/svg" xmlns:xlink="http://www.w3.org/1999/xlink" contentStyleType="text/css" data-diagram-type="CLASS" height="1114px" preserveAspectRatio="none" style="width:1039px;height:1114px;background:#FFFFFF;" version="1.1" viewBox="0 0 1039 1114" width="1039px" zoomAndPan="magnify"><defs/><g><!--cluster Sistem za fakultet--><g class="cluster" data-entity="Sistem za fakultet" data-source-line="1" data-uid="ent0002" id="cluster_Sistem za fakultet"><path d="M8.5,6 L153.3281,6 A3.75,3.75 0 0 1 155.8281,8.5 L162.8281,28.2969 L1029.5,28.2969 A2.5,2.5 0 0 1 1032,30.7969 L1032,1104.89 A2.5,2.5 0 0 1 1029.5,1107.39 L8.5,1107.39 A2.5,2.5 0 0 1 6,1104.89 L6,8.5 A2.5,2.5 0 0 1 8.5,6" fill="none" style="stroke:#000000;stroke-width:1.5;"/><line style="stroke:#000000;stroke-width:1.5;" x1="6" x2="162.8281" y1="28.2969" y2="28.2969"/><text fill="#000000" font-family="sans-serif" font-size="14" font-weight="bold" lengthAdjust="spacing" textLength="143.8281" x="10" y="20.9951">Sistem za fakultet</text></g><!--class Univerzitet--><g class="entity" data-entity="Univerzitet" data-source-line="2" data-uid="ent0003" id="entity_Univerzitet"><rect fill="#F1F1F1" height="178.375" rx="2.5" ry="2.5" style="stroke:#181818;stroke-width:0.5;" width="264.7451" x="511.63" y="41"/><ellipse cx="601.5055" cy="57" fill="#ADD1B2" rx="11" ry="11" style="stroke:#181818;stroke-width:1;"/><path d="M604.4742,62.6406 Q603.8961,62.9375 603.2555,63.0781 Q602.6149,63.2344 601.9117,63.2344 Q599.4117,63.2344 598.0836,61.5938 Q596.7711,59.9375 596.7711,56.8125 Q596.7711,53.6875 598.0836,52.0313 Q599.4117,50.375 601.9117,50.375 Q602.6149,50.375 603.2555,50.5313 Q603.9117,50.6875 604.4742,50.9844 L604.4742,53.7031 Q603.8492,53.125 603.2555,52.8594 Q602.6617,52.5781 602.0367,52.5781 Q600.693,52.5781 600.0055,53.6563 Q599.318,54.7188 599.318,56.8125 Q599.318,58.9063 600.0055,59.9844 Q600.693,61.0469 602.0367,61.0469 Q602.6617,61.0469 603.2555,60.7813 Q603.8492,60.5 604.4742,59.9219 L604.4742,62.6406 Z " fill="#000000"/><text fill="#000000" font-family="sans-serif" font-size="14" lengthAdjust="spacing" textLength="76.4941" x="622.0055" y="61.8467">Univerzitet</text><line style="stroke:#181818;stroke-width:0.5;" x1="512.63" x2="775.3751" y1="73" y2="73"/><rect fill="none" height="6" style="stroke:#C82930;stroke-width:1;" width="6" x="519.63" y="83.6484"/><text fill="#000000" font-family="sans-serif" font-size="14" lengthAdjust="spacing" textLength="65.8574" x="531.63" y="89.9951">ID: String</text><rect fill="none" height="6" style="stroke:#C82930;stroke-width:1;" width="6" x="519.63" y="99.9453"/><text fill="#000000" font-family="sans-serif" font-size="14" lengthAdjust="spacing" textLength="89.5234" x="531.63" y="106.292">Naziv: String</text><rect fill="none" height="6" style="stroke:#C82930;stroke-width:1;" width="6" x="519.63" y="116.2422"/><text fill="#000000" font-family="sans-serif" font-size="14" lengthAdjust="spacing" textLength="108.0557" x="531.63" y="122.5889">Lokacija: String</text><rect fill="none" height="6" style="stroke:#C82930;stroke-width:1;" width="6" x="519.63" y="132.5391"/><text fill="#000000" font-family="sans-serif" font-size="14" lengthAdjust="spacing" textLength="151.1289" x="531.63" y="138.8857">Godina_osnivanja: Int</text><rect fill="none" height="6" style="stroke:#C82930;stroke-width:1;" width="6" x="519.63" y="148.8359"/><text fill="#000000" font-family="sans-serif" font-size="14" lengthAdjust="spacing" textLength="133.1504" x="531.63" y="155.1826">Broj_studenata: Int</text><rect fill="none" height="6" style="stroke:#C82930;stroke-width:1;" width="6" x="519.63" y="165.1328"/><text fill="#000000" font-family="sans-serif" font-size="14" lengthAdjust="spacing" textLength="112.1436" x="531.63" y="171.4795">Broj_osoblja: Int</text><rect fill="none" height="6" style="stroke:#C82930;stroke-width:1;" width="6" x="519.63" y="181.4297"/><text fill="#000000" font-family="sans-serif" font-size="14" lengthAdjust="spacing" textLength="184.5498" x="531.63" y="187.7764">Status_akreditacije: String</text><rect fill="none" height="6" style="stroke:#C82930;stroke-width:1;" width="6" x="519.63" y="197.7266"/><text fill="#000000" font-family="sans-serif" font-size="14" lengthAdjust="spacing" textLength="238.7451" x="531.63" y="204.0732">Ponudjeni_programi: List&lt;String&gt;</text><line style="stroke:#181818;stroke-width:0.5;" x1="512.63" x2="775.3751" y1="211.375" y2="211.375"/></g><!--class Korisnik--><g class="entity" data-entity="Korisnik" data-source-line="13" data-uid="ent0004" id="entity_Korisnik"><rect fill="#F1F1F1" height="162.0781" rx="2.5" ry="2.5" style="stroke:#181818;stroke-width:0.5;" width="181.9072" x="761.05" y="279.37"/><ellipse cx="819.9758" cy="295.37" fill="#ADD1B2" rx="11" ry="11" style="stroke:#181818;stroke-width:1;"/><path d="M822.9445,301.0106 Q822.3664,301.3075 821.7258,301.4481 Q821.0852,301.6044 820.382,301.6044 Q817.882,301.6044 816.5539,299.9638 Q815.2414,298.3075 815.2414,295.1825 Q815.2414,292.0575 816.5539,290.4013 Q817.882,288.745 820.382,288.745 Q821.0852,288.745 821.7258,288.9013 Q822.382,289.0575 822.9445,289.3544 L822.9445,292.0731 Q822.3195,291.495 821.7258,291.2294 Q821.132,290.9481 820.507,290.9481 Q819.1633,290.9481 818.4758,292.0263 Q817.7883,293.0888 817.7883,295.1825 Q817.7883,297.2763 818.4758,298.3544 Q819.1633,299.4169 820.507,299.4169 Q821.132,299.4169 821.7258,299.1513 Q822.3195,298.87 822.9445,298.2919 L822.9445,301.0106 Z " fill="#000000"/><text fill="#000000" font-family="sans-serif" font-size="14" lengthAdjust="spacing" textLength="55.5557" x="840.4758" y="300.2167">Korisnik</text><line style="stroke:#181818;stroke-width:0.5;" x1="762.05" x2="941.9572" y1="311.37" y2="311.37"/><rect fill="none" height="6" style="stroke:#C82930;stroke-width:1;" width="6" x="769.05" y="322.0184"/><text fill="#000000" font-family="sans-serif" font-size="14" lengthAdjust="spacing" textLength="65.8574" x="781.05" y="328.3651">ID: String</text><rect fill="none" height="6" style="stroke:#C82930;stroke-width:1;" width="6" x="769.05" y="338.3153"/><text fill="#000000" font-family="sans-serif" font-size="14" lengthAdjust="spacing" textLength="77.3281" x="781.05" y="344.662">Ime: String</text><rect fill="none" height="6" style="stroke:#C82930;stroke-width:1;" width="6" x="769.05" y="354.6122"/><text fill="#000000" font-family="sans-serif" font-size="14" lengthAdjust="spacing" textLength="107.249" x="781.05" y="360.9589">Prezime: String</text><rect fill="none" height="6" style="stroke:#C82930;stroke-width:1;" width="6" x="769.05" y="370.9091"/><text fill="#000000" font-family="sans-serif" font-size="14" lengthAdjust="spacing" textLength="155.9072" x="781.05" y="377.2557">Korisnicko_ime: String</text><rect fill="none" height="6" style="stroke:#C82930;stroke-width:1;" width="6" x="769.05" y="387.2059"/><text fill="#000000" font-family="sans-serif" font-size="14" lengthAdjust="spacing" textLength="89.79" x="781.05" y="393.5526">Email: String</text><rect fill="none" height="6" style="stroke:#C82930;stroke-width:1;" width="6" x="769.05" y="403.5028"/><text fill="#000000" font-family="sans-serif" font-size="14" lengthAdjust="spacing" textLength="150.1514" x="781.05" y="409.8495">Datum_rodenja: Date</text><rect fill="none" height="6" style="stroke:#C82930;stroke-width:1;" width="6" x="769.05" y="419.7997"/><text fill="#000000" font-family="sans-serif" font-size="14" lengthAdjust="spacing" textLength="104.1113" x="781.05" y="426.1464">Lozinka: String</text><line style="stroke:#181818;stroke-width:0.5;" x1="762.05" x2="941.9572" y1="433.4481" y2="433.4481"/></g><!--class TipKorisnika--><g class="entity" data-entity="TipKorisnika" data-source-line="23" data-uid="ent0005" id="entity_TipKorisnika"><rect fill="#F1F1F1" height="113.1875" rx="2.5" ry="2.5" style="stroke:#181818;stroke-width:0.5;" width="168.6865" x="829.66" y="73.59"/><ellipse cx="867.7106" cy="89.59" fill="#EB937F" rx="11" ry="11" style="stroke:#181818;stroke-width:1;"/><path d="M871.82,95.59 L864.1013,95.59 L864.1013,83.1994 L871.82,83.1994 L871.82,85.3556 L866.5544,85.3556 L866.5544,88.0275 L871.32,88.0275 L871.32,90.1838 L866.5544,90.1838 L866.5544,93.4338 L871.82,93.4338 L871.82,95.59 Z " fill="#000000"/><text fill="#000000" font-family="sans-serif" font-size="14" lengthAdjust="spacing" textLength="85.4629" x="886.833" y="94.4367">TipKorisnika</text><line style="stroke:#181818;stroke-width:0.5;" x1="830.66" x2="997.3465" y1="105.59" y2="105.59"/><text fill="#000000" font-family="sans-serif" font-size="14" lengthAdjust="spacing" textLength="66.3359" x="835.66" y="122.5851">STUDENT</text><text fill="#000000" font-family="sans-serif" font-size="14" lengthAdjust="spacing" textLength="75.7217" x="835.66" y="138.882">PROFESOR</text><text fill="#000000" font-family="sans-serif" font-size="14" lengthAdjust="spacing" textLength="117.209" x="835.66" y="155.1789">ADMINISTRATOR</text><text fill="#000000" font-family="sans-serif" font-size="14" lengthAdjust="spacing" textLength="156.6865" x="835.66" y="171.4757">STUDENTSKA_SLUZBA</text><line style="stroke:#181818;stroke-width:0.5;" x1="830.66" x2="997.3465" y1="178.7775" y2="178.7775"/></g><!--class Student--><g class="entity" data-entity="Student" data-source-line="30" data-uid="ent0006" id="entity_Student"><rect fill="#F1F1F1" height="210.9688" rx="2.5" ry="2.5" style="stroke:#181818;stroke-width:0.5;" width="198.9424" x="817.53" y="501.45"/><ellipse cx="885.1955" cy="517.45" fill="#ADD1B2" rx="11" ry="11" style="stroke:#181818;stroke-width:1;"/><path d="M888.1643,523.0906 Q887.5862,523.3875 886.9455,523.5281 Q886.3049,523.6844 885.6018,523.6844 Q883.1018,523.6844 881.7737,522.0438 Q880.4612,520.3875 880.4612,517.2625 Q880.4612,514.1375 881.7737,512.4813 Q883.1018,510.825 885.6018,510.825 Q886.3049,510.825 886.9455,510.9813 Q887.6018,511.1375 888.1643,511.4344 L888.1643,514.1531 Q887.5393,513.575 886.9455,513.3094 Q886.3518,513.0281 885.7268,513.0281 Q884.383,513.0281 883.6955,514.1063 Q883.008,515.1688 883.008,517.2625 Q883.008,519.3563 883.6955,520.4344 Q884.383,521.4969 885.7268,521.4969 Q886.3518,521.4969 886.9455,521.2313 Q887.5393,520.95 888.1643,520.3719 L888.1643,523.0906 Z " fill="#000000"/><text fill="#000000" font-family="sans-serif" font-size="14" lengthAdjust="spacing" textLength="55.1113" x="905.6955" y="522.2967">Student</text><line style="stroke:#181818;stroke-width:0.5;" x1="818.53" x2="1015.4724" y1="533.45" y2="533.45"/><rect fill="none" height="6" style="stroke:#C82930;stroke-width:1;" width="6" x="825.53" y="544.0984"/><text fill="#000000" font-family="sans-serif" font-size="14" lengthAdjust="spacing" textLength="65.8574" x="837.53" y="550.4451">ID: String</text><rect fill="none" height="6" style="stroke:#C82930;stroke-width:1;" width="6" x="825.53" y="560.3953"/><text fill="#000000" font-family="sans-serif" font-size="14" lengthAdjust="spacing" textLength="87.8418" x="837.53" y="566.742">Smer: String</text><rect fill="none" height="6" style="stroke:#C82930;stroke-width:1;" width="6" x="825.53" y="576.6922"/><text fill="#000000" font-family="sans-serif" font-size="14" lengthAdjust="spacing" textLength="131.2021" x="837.53" y="583.0389">Godina_studija: Int</text><rect fill="none" height="6" style="stroke:#C82930;stroke-width:1;" width="6" x="825.53" y="592.9891"/><text fill="#000000" font-family="sans-serif" font-size="14" lengthAdjust="spacing" textLength="155.0391" x="837.53" y="599.3357">Dodeljeni_dom: String</text><rect fill="none" height="6" style="stroke:#C82930;stroke-width:1;" width="6" x="825.53" y="609.2859"/><text fill="#000000" font-family="sans-serif" font-size="14" lengthAdjust="spacing" textLength="108.958" x="837.53" y="615.6326">Stipendija: bool</text><line style="stroke:#181818;stroke-width:0.5;" x1="818.53" x2="1015.4724" y1="622.9344" y2="622.9344"/><ellipse cx="828.53" cy="636.5828" fill="#84BE84" rx="3" ry="3" style="stroke:#038048;stroke-width:1;"/><text fill="#000000" font-family="sans-serif" font-size="14" lengthAdjust="spacing" textLength="83.3438" x="837.53" y="639.9295">PrijaviIspit()</text><ellipse cx="828.53" cy="652.8797" fill="#84BE84" rx="3" ry="3" style="stroke:#038048;stroke-width:1;"/><text fill="#000000" font-family="sans-serif" font-size="14" lengthAdjust="spacing" textLength="85.1621" x="837.53" y="656.2264">OdjaviIspit()</text><ellipse cx="828.53" cy="669.1766" fill="#84BE84" rx="3" ry="3" style="stroke:#038048;stroke-width:1;"/><text fill="#000000" font-family="sans-serif" font-size="14" lengthAdjust="spacing" textLength="172.9424" x="837.53" y="672.5232">PristupiKalendaruIspita()</text><ellipse cx="828.53" cy="685.4734" fill="#84BE84" rx="3" ry="3" style="stroke:#038048;stroke-width:1;"/><text fill="#000000" font-family="sans-serif" font-size="14" lengthAdjust="spacing" textLength="159.4551" x="837.53" y="688.8201">PristupiPredavanjima()</text><ellipse cx="828.53" cy="701.7703" fill="#84BE84" rx="3" ry="3" style="stroke:#038048;stroke-width:1;"/><text fill="#000000" font-family="sans-serif" font-size="14" lengthAdjust="spacing" textLength="113.8457" x="837.53" y="705.117">GetInternships()</text></g><!--class Profesor--><g class="entity" data-entity="Profesor" data-source-line="43" data-uid="ent0007" id="entity_Profesor"><rect fill="#F1F1F1" height="178.375" rx="2.5" ry="2.5" style="stroke:#181818;stroke-width:0.5;" width="205.8672" x="255.07" y="517.75"/><ellipse cx="324.7931" cy="533.75" fill="#ADD1B2" rx="11" ry="11" style="stroke:#181818;stroke-width:1;"/><path d="M327.7619,539.3906 Q327.1838,539.6875 326.5431,539.8281 Q325.9025,539.9844 325.1994,539.9844 Q322.6994,539.9844 321.3713,538.3438 Q320.0588,536.6875 320.0588,533.5625 Q320.0588,530.4375 321.3713,528.7813 Q322.6994,527.125 325.1994,527.125 Q325.9025,527.125 326.5431,527.2813 Q327.1994,527.4375 327.7619,527.7344 L327.7619,530.4531 Q327.1369,529.875 326.5431,529.6094 Q325.9494,529.3281 325.3244,529.3281 Q323.9806,529.3281 323.2931,530.4063 Q322.6056,531.4688 322.6056,533.5625 Q322.6056,535.6563 323.2931,536.7344 Q323.9806,537.7969 325.3244,537.7969 Q325.9494,537.7969 326.5431,537.5313 Q327.1369,537.25 327.7619,536.6719 L327.7619,539.3906 Z " fill="#000000"/><text fill="#000000" font-family="sans-serif" font-size="14" lengthAdjust="spacing" textLength="57.9209" x="345.2931" y="538.5967">Profesor</text><line style="stroke:#181818;stroke-width:0.5;" x1="256.07" x2="459.9372" y1="549.75" y2="549.75"/><rect fill="none" height="6" style="stroke:#C82930;stroke-width:1;" width="6" x="263.07" y="560.3984"/><text fill="#000000" font-family="sans-serif" font-size="14" lengthAdjust="spacing" textLength="65.8574" x="275.07" y="566.7451">ID: String</text><rect fill="none" height="6" style="stroke:#C82930;stroke-width:1;" width="6" x="263.07" y="576.6953"/><text fill="#000000" font-family="sans-serif" font-size="14" lengthAdjust="spacing" textLength="179.8672" x="275.07" y="583.042">Predmeti: List&lt;Predmet&gt;</text><rect fill="none" height="6" style="stroke:#C82930;stroke-width:1;" width="6" x="263.07" y="592.9922"/><text fill="#000000" font-family="sans-serif" font-size="14" lengthAdjust="spacing" textLength="128.4746" x="275.07" y="599.3389">Kancelarija: String</text><line style="stroke:#181818;stroke-width:0.5;" x1="256.07" x2="459.9372" y1="606.6406" y2="606.6406"/><ellipse cx="266.07" cy="620.2891" fill="#84BE84" rx="3" ry="3" style="stroke:#038048;stroke-width:1;"/><text fill="#000000" font-family="sans-serif" font-size="14" lengthAdjust="spacing" textLength="86.2764" x="275.07" y="623.6357">KreirajIspit()</text><ellipse cx="266.07" cy="636.5859" fill="#84BE84" rx="3" ry="3" style="stroke:#038048;stroke-width:1;"/><text fill="#000000" font-family="sans-serif" font-size="14" lengthAdjust="spacing" textLength="85.0459" x="275.07" y="639.9326">OtkaziIspit()</text><ellipse cx="266.07" cy="652.8828" fill="#84BE84" rx="3" ry="3" style="stroke:#038048;stroke-width:1;"/><text fill="#000000" font-family="sans-serif" font-size="14" lengthAdjust="spacing" textLength="114.625" x="275.07" y="656.2295">UrediRaspored()</text><ellipse cx="266.07" cy="669.1797" fill="#84BE84" rx="3" ry="3" style="stroke:#038048;stroke-width:1;"/><text fill="#000000" font-family="sans-serif" font-size="14" lengthAdjust="spacing" textLength="172.9424" x="275.07" y="672.5264">PristupiKalendaruIspita()</text><ellipse cx="266.07" cy="685.4766" fill="#84BE84" rx="3" ry="3" style="stroke:#038048;stroke-width:1;"/><text fill="#000000" font-family="sans-serif" font-size="14" lengthAdjust="spacing" textLength="159.4551" x="275.07" y="688.8232">PristupiPredavanjima()</text></g><!--class Asistent--><g class="entity" data-entity="Asistent" data-source-line="54" data-uid="ent0008" id="entity_Asistent"><rect fill="#F1F1F1" height="96.8906" rx="2.5" ry="2.5" style="stroke:#181818;stroke-width:0.5;" width="205.8672" x="22.07" y="311.97"/><ellipse cx="92.4938" cy="327.97" fill="#ADD1B2" rx="11" ry="11" style="stroke:#181818;stroke-width:1;"/><path d="M95.4626,333.6106 Q94.8845,333.9075 94.2438,334.0481 Q93.6032,334.2044 92.9001,334.2044 Q90.4001,334.2044 89.072,332.5638 Q87.7595,330.9075 87.7595,327.7825 Q87.7595,324.6575 89.072,323.0013 Q90.4001,321.345 92.9001,321.345 Q93.6032,321.345 94.2438,321.5013 Q94.9001,321.6575 95.4626,321.9544 L95.4626,324.6731 Q94.8376,324.095 94.2438,323.8294 Q93.6501,323.5481 93.0251,323.5481 Q91.6813,323.5481 90.9938,324.6263 Q90.3063,325.6888 90.3063,327.7825 Q90.3063,329.8763 90.9938,330.9544 Q91.6813,332.0169 93.0251,332.0169 Q93.6501,332.0169 94.2438,331.7513 Q94.8376,331.47 95.4626,330.8919 L95.4626,333.6106 Z " fill="#000000"/><text fill="#000000" font-family="sans-serif" font-size="14" lengthAdjust="spacing" textLength="56.5195" x="112.9938" y="332.8167">Asistent</text><line style="stroke:#181818;stroke-width:0.5;" x1="23.07" x2="226.9372" y1="343.97" y2="343.97"/><rect fill="none" height="6" style="stroke:#C82930;stroke-width:1;" width="6" x="30.07" y="354.6184"/><text fill="#000000" font-family="sans-serif" font-size="14" lengthAdjust="spacing" textLength="65.8574" x="42.07" y="360.9651">ID: String</text><rect fill="none" height="6" style="stroke:#C82930;stroke-width:1;" width="6" x="30.07" y="370.9153"/><text fill="#000000" font-family="sans-serif" font-size="14" lengthAdjust="spacing" textLength="125.0088" x="42.07" y="377.262">Profesor: Profesor</text><rect fill="none" height="6" style="stroke:#C82930;stroke-width:1;" width="6" x="30.07" y="387.2122"/><text fill="#000000" font-family="sans-serif" font-size="14" lengthAdjust="spacing" textLength="179.8672" x="42.07" y="393.5589">Predmeti: List&lt;Predmet&gt;</text><line style="stroke:#181818;stroke-width:0.5;" x1="23.07" x2="226.9372" y1="400.8606" y2="400.8606"/></g><!--class StudentskaSluzba--><g class="entity" data-entity="StudentskaSluzba" data-source-line="60" data-uid="ent0009" id="entity_StudentskaSluzba"><rect fill="#F1F1F1" height="113.1875" rx="2.5" ry="2.5" style="stroke:#181818;stroke-width:0.5;" width="163.2861" x="562.36" y="303.82"/><ellipse cx="579.9387" cy="319.82" fill="#ADD1B2" rx="11" ry="11" style="stroke:#181818;stroke-width:1;"/><path d="M582.9075,325.4606 Q582.3293,325.7575 581.6887,325.8981 Q581.0481,326.0544 580.345,326.0544 Q577.845,326.0544 576.5168,324.4138 Q575.2043,322.7575 575.2043,319.6325 Q575.2043,316.5075 576.5168,314.8513 Q577.845,313.195 580.345,313.195 Q581.0481,313.195 581.6887,313.3513 Q582.345,313.5075 582.9075,313.8044 L582.9075,316.5231 Q582.2825,315.945 581.6887,315.6794 Q581.095,315.3981 580.47,315.3981 Q579.1262,315.3981 578.4387,316.4763 Q577.7512,317.5388 577.7512,319.6325 Q577.7512,321.7263 578.4387,322.8044 Q579.1262,323.8669 580.47,323.8669 Q581.095,323.8669 581.6887,323.6013 Q582.2825,323.32 582.9075,322.7419 L582.9075,325.4606 Z " fill="#000000"/><text fill="#000000" font-family="sans-serif" font-size="14" lengthAdjust="spacing" textLength="125.5557" x="594.5118" y="324.6667">StudentskaSluzba</text><line style="stroke:#181818;stroke-width:0.5;" x1="563.36" x2="724.6461" y1="335.82" y2="335.82"/><rect fill="none" height="6" style="stroke:#C82930;stroke-width:1;" width="6" x="570.36" y="346.4684"/><text fill="#000000" font-family="sans-serif" font-size="14" lengthAdjust="spacing" textLength="65.8574" x="582.36" y="352.8151">ID: String</text><rect fill="none" height="6" style="stroke:#C82930;stroke-width:1;" width="6" x="570.36" y="362.7653"/><text fill="#000000" font-family="sans-serif" font-size="14" lengthAdjust="spacing" textLength="89.5234" x="582.36" y="369.112">Naziv: String</text><rect fill="none" height="6" style="stroke:#C82930;stroke-width:1;" width="6" x="570.36" y="379.0622"/><text fill="#000000" font-family="sans-serif" font-size="14" lengthAdjust="spacing" textLength="117.2363" x="582.36" y="385.4089">Odeljenje: String</text><rect fill="none" height="6" style="stroke:#C82930;stroke-width:1;" width="6" x="570.36" y="395.3591"/><text fill="#000000" font-family="sans-serif" font-size="14" lengthAdjust="spacing" textLength="137.2861" x="582.36" y="401.7057">Broj_zaposlenih: Int</text><line style="stroke:#181818;stroke-width:0.5;" x1="563.36" x2="724.6461" y1="409.0075" y2="409.0075"/></g><!--class Administrator--><g class="entity" data-entity="Administrator" data-source-line="67" data-uid="ent0010" id="entity_Administrator"><rect fill="#F1F1F1" height="96.8906" rx="2.5" ry="2.5" style="stroke:#181818;stroke-width:0.5;" width="286.2783" x="495.86" y="558.49"/><ellipse cx="586.9079" cy="574.49" fill="#ADD1B2" rx="11" ry="11" style="stroke:#181818;stroke-width:1;"/><path d="M589.8766,580.1306 Q589.2985,580.4275 588.6579,580.5681 Q588.0172,580.7244 587.3141,580.7244 Q584.8141,580.7244 583.486,579.0838 Q582.1735,577.4275 582.1735,574.3025 Q582.1735,571.1775 583.486,569.5213 Q584.8141,567.865 587.3141,567.865 Q588.0172,567.865 588.6579,568.0213 Q589.3141,568.1775 589.8766,568.4744 L589.8766,571.1931 Q589.2516,570.615 588.6579,570.3494 Q588.0641,570.0681 587.4391,570.0681 Q586.0954,570.0681 585.4079,571.1463 Q584.7204,572.2088 584.7204,574.3025 Q584.7204,576.3963 585.4079,577.4744 Q586.0954,578.5369 587.4391,578.5369 Q588.0641,578.5369 588.6579,578.2713 Q589.2516,577.99 589.8766,577.4119 L589.8766,580.1306 Z " fill="#000000"/><text fill="#000000" font-family="sans-serif" font-size="14" lengthAdjust="spacing" textLength="95.6826" x="607.4079" y="579.3367">Administrator</text><line style="stroke:#181818;stroke-width:0.5;" x1="496.86" x2="781.1383" y1="590.49" y2="590.49"/><rect fill="none" height="6" style="stroke:#C82930;stroke-width:1;" width="6" x="503.86" y="601.1384"/><text fill="#000000" font-family="sans-serif" font-size="14" lengthAdjust="spacing" textLength="65.8574" x="515.86" y="607.4851">ID: String</text><rect fill="none" height="6" style="stroke:#C82930;stroke-width:1;" width="6" x="503.86" y="617.4353"/><text fill="#000000" font-family="sans-serif" font-size="14" lengthAdjust="spacing" textLength="146.1797" x="515.86" y="623.782">Radno_mesto: String</text><rect fill="none" height="6" style="stroke:#C82930;stroke-width:1;" width="6" x="503.86" y="633.7322"/><text fill="#000000" font-family="sans-serif" font-size="14" lengthAdjust="spacing" textLength="260.2783" x="515.86" y="640.0789">StudentskaSluzba: StudentskaSluzba</text><line style="stroke:#181818;stroke-width:0.5;" x1="496.86" x2="781.1383" y1="647.3806" y2="647.3806"/></g><!--class Departman--><g class="entity" data-entity="Departman" data-source-line="73" data-uid="ent0011" id="entity_Departman"><rect fill="#F1F1F1" height="129.4844" rx="2.5" ry="2.5" style="stroke:#181818;stroke-width:0.5;" width="263.8633" x="263.07" y="295.67"/><ellipse cx="351.1545" cy="311.67" fill="#ADD1B2" rx="11" ry="11" style="stroke:#181818;stroke-width:1;"/><path d="M354.1232,317.3106 Q353.5451,317.6075 352.9045,317.7481 Q352.2638,317.9044 351.5607,317.9044 Q349.0607,317.9044 347.7326,316.2638 Q346.4201,314.6075 346.4201,311.4825 Q346.4201,308.3575 347.7326,306.7013 Q349.0607,305.045 351.5607,305.045 Q352.2638,305.045 352.9045,305.2013 Q353.5607,305.3575 354.1232,305.6544 L354.1232,308.3731 Q353.4982,307.795 352.9045,307.5294 Q352.3107,307.2481 351.6857,307.2481 Q350.342,307.2481 349.6545,308.3263 Q348.967,309.3888 348.967,311.4825 Q348.967,313.5763 349.6545,314.6544 Q350.342,315.7169 351.6857,315.7169 Q352.3107,315.7169 352.9045,315.4513 Q353.4982,315.17 354.1232,314.5919 L354.1232,317.3106 Z " fill="#000000"/><text fill="#000000" font-family="sans-serif" font-size="14" lengthAdjust="spacing" textLength="79.1943" x="371.6545" y="316.5167">Departman</text><line style="stroke:#181818;stroke-width:0.5;" x1="264.07" x2="525.9333" y1="327.67" y2="327.67"/><rect fill="none" height="6" style="stroke:#C82930;stroke-width:1;" width="6" x="271.07" y="338.3184"/><text fill="#000000" font-family="sans-serif" font-size="14" lengthAdjust="spacing" textLength="65.8574" x="283.07" y="344.6651">ID: String</text><rect fill="none" height="6" style="stroke:#C82930;stroke-width:1;" width="6" x="271.07" y="354.6153"/><text fill="#000000" font-family="sans-serif" font-size="14" lengthAdjust="spacing" textLength="89.5234" x="283.07" y="360.962">Naziv: String</text><rect fill="none" height="6" style="stroke:#C82930;stroke-width:1;" width="6" x="271.07" y="370.9122"/><text fill="#000000" font-family="sans-serif" font-size="14" lengthAdjust="spacing" textLength="89.5166" x="283.07" y="377.2589">Sef: Profesor</text><rect fill="none" height="6" style="stroke:#C82930;stroke-width:1;" width="6" x="271.07" y="387.2091"/><text fill="#000000" font-family="sans-serif" font-size="14" lengthAdjust="spacing" textLength="229.0449" x="283.07" y="393.5557">Studijski_programi: List&lt;String&gt;</text><rect fill="none" height="6" style="stroke:#C82930;stroke-width:1;" width="6" x="271.07" y="403.5059"/><text fill="#000000" font-family="sans-serif" font-size="14" lengthAdjust="spacing" textLength="237.8633" x="283.07" y="409.8526">Nastavno_osoblje: List&lt;Profesor&gt;</text><line style="stroke:#181818;stroke-width:0.5;" x1="264.07" x2="525.9333" y1="417.1544" y2="417.1544"/></g><!--class Predmet--><g class="entity" data-entity="Predmet" data-source-line="81" data-uid="ent0012" id="entity_Predmet"><rect fill="#F1F1F1" height="162.0781" rx="2.5" ry="2.5" style="stroke:#181818;stroke-width:0.5;" width="197.377" x="22.31" y="525.9"/><ellipse cx="87.0292" cy="541.9" fill="#ADD1B2" rx="11" ry="11" style="stroke:#181818;stroke-width:1;"/><path d="M89.998,547.5406 Q89.4199,547.8375 88.7792,547.9781 Q88.1386,548.1344 87.4355,548.1344 Q84.9355,548.1344 83.6074,546.4938 Q82.2949,544.8375 82.2949,541.7125 Q82.2949,538.5875 83.6074,536.9313 Q84.9355,535.275 87.4355,535.275 Q88.1386,535.275 88.7792,535.4313 Q89.4355,535.5875 89.998,535.8844 L89.998,538.6031 Q89.373,538.025 88.7792,537.7594 Q88.1855,537.4781 87.5605,537.4781 Q86.2167,537.4781 85.5292,538.5563 Q84.8417,539.6188 84.8417,541.7125 Q84.8417,543.8063 85.5292,544.8844 Q86.2167,545.9469 87.5605,545.9469 Q88.1855,545.9469 88.7792,545.6813 Q89.373,545.4 89.998,544.8219 L89.998,547.5406 Z " fill="#000000"/><text fill="#000000" font-family="sans-serif" font-size="14" lengthAdjust="spacing" textLength="59.4385" x="107.5292" y="546.7467">Predmet</text><line style="stroke:#181818;stroke-width:0.5;" x1="23.31" x2="218.687" y1="557.9" y2="557.9"/><rect fill="none" height="6" style="stroke:#C82930;stroke-width:1;" width="6" x="30.31" y="568.5484"/><text fill="#000000" font-family="sans-serif" font-size="14" lengthAdjust="spacing" textLength="65.8574" x="42.31" y="574.8951">ID: String</text><rect fill="none" height="6" style="stroke:#C82930;stroke-width:1;" width="6" x="30.31" y="584.8453"/><text fill="#000000" font-family="sans-serif" font-size="14" lengthAdjust="spacing" textLength="89.5234" x="42.31" y="591.192">Naziv: String</text><rect fill="none" height="6" style="stroke:#C82930;stroke-width:1;" width="6" x="30.31" y="601.1422"/><text fill="#000000" font-family="sans-serif" font-size="14" lengthAdjust="spacing" textLength="167.5557" x="42.31" y="607.4889">Departman: Departman</text><rect fill="none" height="6" style="stroke:#C82930;stroke-width:1;" width="6" x="30.31" y="617.4391"/><text fill="#000000" font-family="sans-serif" font-size="14" lengthAdjust="spacing" textLength="125.0088" x="42.31" y="623.7857">Profesor: Profesor</text><rect fill="none" height="6" style="stroke:#C82930;stroke-width:1;" width="6" x="30.31" y="633.7359"/><text fill="#000000" font-family="sans-serif" font-size="14" lengthAdjust="spacing" textLength="117.2568" x="42.31" y="640.0826">Raspored: String</text><rect fill="none" height="6" style="stroke:#C82930;stroke-width:1;" width="6" x="30.31" y="650.0328"/><text fill="#000000" font-family="sans-serif" font-size="14" lengthAdjust="spacing" textLength="99.9961" x="42.31" y="656.3795">Broj_upisa: Int</text><rect fill="none" height="6" style="stroke:#C82930;stroke-width:1;" width="6" x="30.31" y="666.3297"/><text fill="#000000" font-family="sans-serif" font-size="14" lengthAdjust="spacing" textLength="171.377" x="42.31" y="672.6764">Preduslovi: List&lt;String&gt;</text><line style="stroke:#181818;stroke-width:0.5;" x1="23.31" x2="218.687" y1="679.9781" y2="679.9781"/></g><!--class Ispit--><g class="entity" data-entity="Ispit" data-source-line="91" data-uid="ent0013" id="entity_Ispit"><rect fill="#F1F1F1" height="145.7813" rx="2.5" ry="2.5" style="stroke:#181818;stroke-width:0.5;" width="154.0439" x="463.98" y="772.42"/><ellipse cx="521.9077" cy="788.42" fill="#ADD1B2" rx="11" ry="11" style="stroke:#181818;stroke-width:1;"/><path d="M524.8765,794.0606 Q524.2984,794.3575 523.6577,794.4981 Q523.0171,794.6544 522.314,794.6544 Q519.814,794.6544 518.4859,793.0138 Q517.1734,791.3575 517.1734,788.2325 Q517.1734,785.1075 518.4859,783.4513 Q519.814,781.795 522.314,781.795 Q523.0171,781.795 523.6577,781.9513 Q524.314,782.1075 524.8765,782.4044 L524.8765,785.1231 Q524.2515,784.545 523.6577,784.2794 Q523.064,783.9981 522.439,783.9981 Q521.0952,783.9981 520.4077,785.0763 Q519.7202,786.1388 519.7202,788.2325 Q519.7202,790.3263 520.4077,791.4044 Q521.0952,792.4669 522.439,792.4669 Q523.064,792.4669 523.6577,792.2013 Q524.2515,791.92 524.8765,791.3419 L524.8765,794.0606 Z " fill="#000000"/><text fill="#000000" font-family="sans-serif" font-size="14" lengthAdjust="spacing" textLength="29.6885" x="542.4077" y="793.2667">Ispit</text><line style="stroke:#181818;stroke-width:0.5;" x1="464.98" x2="617.0239" y1="804.42" y2="804.42"/><rect fill="none" height="6" style="stroke:#C82930;stroke-width:1;" width="6" x="471.98" y="815.0684"/><text fill="#000000" font-family="sans-serif" font-size="14" lengthAdjust="spacing" textLength="65.8574" x="483.98" y="821.4151">ID: String</text><rect fill="none" height="6" style="stroke:#C82930;stroke-width:1;" width="6" x="471.98" y="831.3653"/><text fill="#000000" font-family="sans-serif" font-size="14" lengthAdjust="spacing" textLength="119.3896" x="483.98" y="837.712">Student: Student</text><rect fill="none" height="6" style="stroke:#C82930;stroke-width:1;" width="6" x="471.98" y="847.6622"/><text fill="#000000" font-family="sans-serif" font-size="14" lengthAdjust="spacing" textLength="128.0439" x="483.98" y="854.0089">Predmet: Predmet</text><rect fill="none" height="6" style="stroke:#C82930;stroke-width:1;" width="6" x="471.98" y="863.9591"/><text fill="#000000" font-family="sans-serif" font-size="14" lengthAdjust="spacing" textLength="89.9883" x="483.98" y="870.3057">Datum: Date</text><rect fill="none" height="6" style="stroke:#C82930;stroke-width:1;" width="6" x="471.98" y="880.2559"/><text fill="#000000" font-family="sans-serif" font-size="14" lengthAdjust="spacing" textLength="95.5596" x="483.98" y="886.6026">Status: String</text><rect fill="none" height="6" style="stroke:#C82930;stroke-width:1;" width="6" x="471.98" y="896.5528"/><text fill="#000000" font-family="sans-serif" font-size="14" lengthAdjust="spacing" textLength="104.3096" x="483.98" y="902.8995">Ocena: Integer</text><line style="stroke:#181818;stroke-width:0.5;" x1="464.98" x2="617.0239" y1="910.2013" y2="910.2013"/></g><!--class PrijavaZaPraksu--><g class="entity" data-entity="PrijavaZaPraksu" data-source-line="100" data-uid="ent0014" id="entity_PrijavaZaPraksu"><rect fill="#F1F1F1" height="96.8906" rx="2.5" ry="2.5" style="stroke:#181818;stroke-width:0.5;" width="161.5498" x="836.23" y="796.87"/><ellipse cx="858.8383" cy="812.87" fill="#ADD1B2" rx="11" ry="11" style="stroke:#181818;stroke-width:1;"/><path d="M861.807,818.5106 Q861.2289,818.8075 860.5883,818.9481 Q859.9476,819.1044 859.2445,819.1044 Q856.7445,819.1044 855.4164,817.4638 Q854.1039,815.8075 854.1039,812.6825 Q854.1039,809.5575 855.4164,807.9013 Q856.7445,806.245 859.2445,806.245 Q859.9476,806.245 860.5883,806.4013 Q861.2445,806.5575 861.807,806.8544 L861.807,809.5731 Q861.182,808.995 860.5883,808.7294 Q859.9945,808.4481 859.3695,808.4481 Q858.0258,808.4481 857.3383,809.5263 Q856.6508,810.5888 856.6508,812.6825 Q856.6508,814.7763 857.3383,815.8544 Q858.0258,816.9169 859.3695,816.9169 Q859.9945,816.9169 860.5883,816.6513 Q861.182,816.37 861.807,815.7919 L861.807,818.5106 Z " fill="#000000"/><text fill="#000000" font-family="sans-serif" font-size="14" lengthAdjust="spacing" textLength="112.6426" x="874.529" y="817.7167">PrijavaZaPraksu</text><line style="stroke:#181818;stroke-width:0.5;" x1="837.23" x2="996.7798" y1="828.87" y2="828.87"/><rect fill="none" height="6" style="stroke:#C82930;stroke-width:1;" width="6" x="844.23" y="839.5184"/><text fill="#000000" font-family="sans-serif" font-size="14" lengthAdjust="spacing" textLength="40.1953" x="856.23" y="845.8651">id: int</text><rect fill="none" height="6" style="stroke:#C82930;stroke-width:1;" width="6" x="844.23" y="855.8153"/><text fill="#000000" font-family="sans-serif" font-size="14" lengthAdjust="spacing" textLength="135.5498" x="856.23" y="862.162">datumPrijave: Date</text><rect fill="none" height="6" style="stroke:#C82930;stroke-width:1;" width="6" x="844.23" y="872.1122"/><text fill="#000000" font-family="sans-serif" font-size="14" lengthAdjust="spacing" textLength="109.3135" x="856.23" y="878.4589">status: «enum»</text><line style="stroke:#181818;stroke-width:0.5;" x1="837.23" x2="996.7798" y1="885.7606" y2="885.7606"/></g><!--class Praksa--><g class="entity" data-entity="Praksa" data-source-line="107" data-uid="ent0015" id="entity_Praksa"><rect fill="#F1F1F1" height="113.1875" rx="2.5" ry="2.5" style="stroke:#181818;stroke-width:0.5;" width="158.2002" x="837.9" y="978.2"/><ellipse cx="889.3712" cy="994.2" fill="#ADD1B2" rx="11" ry="11" style="stroke:#181818;stroke-width:1;"/><path d="M892.3399,999.8406 Q891.7618,1000.1375 891.1212,1000.2781 Q890.4806,1000.4344 889.7774,1000.4344 Q887.2774,1000.4344 885.9493,998.7938 Q884.6368,997.1375 884.6368,994.0125 Q884.6368,990.8875 885.9493,989.2313 Q887.2774,987.575 889.7774,987.575 Q890.4806,987.575 891.1212,987.7313 Q891.7774,987.8875 892.3399,988.1844 L892.3399,990.9031 Q891.7149,990.325 891.1212,990.0594 Q890.5274,989.7781 889.9024,989.7781 Q888.5587,989.7781 887.8712,990.8563 Q887.1837,991.9188 887.1837,994.0125 Q887.1837,996.1063 887.8712,997.1844 Q888.5587,998.2469 889.9024,998.2469 Q890.5274,998.2469 891.1212,997.9813 Q891.7149,997.7 892.3399,997.1219 L892.3399,999.8406 Z " fill="#000000"/><text fill="#000000" font-family="sans-serif" font-size="14" lengthAdjust="spacing" textLength="46.7578" x="909.8712" y="999.0467">Praksa</text><line style="stroke:#181818;stroke-width:0.5;" x1="838.9" x2="995.1002" y1="1010.2" y2="1010.2"/><rect fill="none" height="6" style="stroke:#C82930;stroke-width:1;" width="6" x="845.9" y="1020.8484"/><text fill="#000000" font-family="sans-serif" font-size="14" lengthAdjust="spacing" textLength="65.8574" x="857.9" y="1027.1951">ID: String</text><rect fill="none" height="6" style="stroke:#C82930;stroke-width:1;" width="6" x="845.9" y="1037.1453"/><text fill="#000000" font-family="sans-serif" font-size="14" lengthAdjust="spacing" textLength="87.8418" x="857.9" y="1043.492">Smer: String</text><rect fill="none" height="6" style="stroke:#C82930;stroke-width:1;" width="6" x="845.9" y="1053.4422"/><text fill="#000000" font-family="sans-serif" font-size="14" lengthAdjust="spacing" textLength="132.2002" x="857.9" y="1059.7889">DatumIsteka: Date</text><rect fill="none" height="6" style="stroke:#C82930;stroke-width:1;" width="6" x="845.9" y="1069.7391"/><text fill="#000000" font-family="sans-serif" font-size="14" lengthAdjust="spacing" textLength="90.8633" x="857.9" y="1076.0857">Firma: String</text><line style="stroke:#181818;stroke-width:0.5;" x1="838.9" x2="995.1002" y1="1083.3875" y2="1083.3875"/></g><!--link Univerzitet to StudentskaSluzba--><g class="link" data-entity-1="Univerzitet" data-entity-2="StudentskaSluzba" data-source-line="118" data-uid="lnk16" id="link_Univerzitet_StudentskaSluzba"><path codeLine="118" d="M644,219.75 C644,247.94 644,278.33 644,303.54" fill="none" id="Univerzitet-StudentskaSluzba" style="stroke:#181818;stroke-width:1;"/><text fill="#000000" font-family="sans-serif" font-size="13" lengthAdjust="spacing" textLength="8.271" x="635.6918" y="239.5569">1</text><text fill="#000000" font-family="sans-serif" font-size="13" lengthAdjust="spacing" textLength="8.271" x="635.5286" y="292.7694">1</text></g><!--link StudentskaSluzba to Administrator--><g class="link" data-entity-1="StudentskaSluzba" data-entity-2="Administrator" data-source-line="119" data-uid="lnk17" id="link_StudentskaSluzba_Administrator"><path codeLine="119" d="M642.86,417.21 C641.99,459.77 640.8,517.79 639.98,558.22" fill="none" id="StudentskaSluzba-Administrator" style="stroke:#181818;stroke-width:1;"/><text fill="#000000" font-family="sans-serif" font-size="13" lengthAdjust="spacing" textLength="8.271" x="634.2497" y="437.1211">1</text><text fill="#000000" font-family="sans-serif" font-size="13" lengthAdjust="spacing" textLength="6.5" x="633.7312" y="547.391">*</text></g><!--link Univerzitet to Student--><g class="link" data-entity-1="Univerzitet" data-entity-2="Student" data-source-line="120" data-uid="lnk18" id="link_Univerzitet_Student"><path codeLine="120" d="M776.83,202.44 C788.65,208.31 800.49,214.04 812,219.37 C876.39,249.24 920.34,220.51 960,279.37 C1003.61,344.11 988.49,432.66 964.87,501.21" fill="none" id="Univerzitet-Student" style="stroke:#181818;stroke-width:1;"/><text fill="#000000" font-family="sans-serif" font-size="13" lengthAdjust="spacing" textLength="8.271" x="784.3202" y="203.0517">1</text><text fill="#000000" font-family="sans-serif" font-size="13" lengthAdjust="spacing" textLength="23.0356" x="944.4284" y="490.3205">1..*</text></g><!--link Univerzitet to Departman--><g class="link" data-entity-1="Univerzitet" data-entity-2="Departman" data-source-line="121" data-uid="lnk19" id="link_Univerzitet_Departman"><path codeLine="121" d="M547.37,219.75 C519.9,244.94 490.51,271.87 464.95,295.3" fill="none" id="Univerzitet-Departman" style="stroke:#181818;stroke-width:1;"/><text fill="#000000" font-family="sans-serif" font-size="13" lengthAdjust="spacing" textLength="8.271" x="531.3616" y="239.5569">1</text><text fill="#000000" font-family="sans-serif" font-size="13" lengthAdjust="spacing" textLength="23.0356" x="448.3447" y="284.4322">1..*</text></g><!--link Departman to Profesor--><g class="link" data-entity-1="Departman" data-entity-2="Profesor" data-source-line="122" data-uid="lnk20" id="link_Departman_Profesor"><path codeLine="122" d="M385.33,425.34 C381.07,453.5 375.99,487.05 371.37,517.55" fill="none" id="Departman-Profesor" style="stroke:#181818;stroke-width:1;"/><text fill="#000000" font-family="sans-serif" font-size="13" lengthAdjust="spacing" textLength="8.271" x="375.8495" y="445.3359">1</text><text fill="#000000" font-family="sans-serif" font-size="13" lengthAdjust="spacing" textLength="23.0356" x="348.526" y="506.5989">1..*</text></g><!--link Departman to Predmet--><g class="link" data-entity-1="Departman" data-entity-2="Predmet" data-source-line="123" data-uid="lnk21" id="link_Departman_Predmet"><path codeLine="123" d="M323.09,425.54 C296.36,449.38 265.79,476.65 238,501.45 C229.26,509.25 220.16,517.38 211.06,525.5" fill="none" id="Departman-Predmet" style="stroke:#181818;stroke-width:1;"/><text fill="#000000" font-family="sans-serif" font-size="13" lengthAdjust="spacing" textLength="8.271" x="307.2756" y="445.1035">1</text><text fill="#000000" font-family="sans-serif" font-size="13" lengthAdjust="spacing" textLength="23.0356" x="194.8129" y="514.9294">1..*</text></g><!--link Student to PrijavaZaPraksu--><g class="link" data-entity-1="Student" data-entity-2="PrijavaZaPraksu" data-source-line="124" data-uid="lnk22" id="link_Student_PrijavaZaPraksu"><path codeLine="124" d="M917,712.65 C917,741.91 917,772.3 917,796.49" fill="none" id="Student-PrijavaZaPraksu" style="stroke:#181818;stroke-width:1;"/><text fill="#000000" font-family="sans-serif" font-size="13" lengthAdjust="spacing" textLength="8.271" x="908.7403" y="732.328">1</text><text fill="#000000" font-family="sans-serif" font-size="13" lengthAdjust="spacing" textLength="6.5" x="910.6126" y="785.6455">*</text></g><!--link PrijavaZaPraksu to Praksa--><g class="link" data-entity-1="PrijavaZaPraksu" data-entity-2="Praksa" data-source-line="125" data-uid="lnk23" id="link_PrijavaZaPraksu_Praksa"><path codeLine="125" d="M917,894.11 C917,919.6 917,951.12 917,977.76" fill="none" id="PrijavaZaPraksu-Praksa" style="stroke:#181818;stroke-width:1;"/><text fill="#000000" font-family="sans-serif" font-size="13" lengthAdjust="spacing" textLength="6.5" x="910.6298" y="913.7504">*</text><text fill="#000000" font-family="sans-serif" font-size="13" lengthAdjust="spacing" textLength="8.271" x="908.529" y="966.9699">1</text></g><!--reverse link Korisnik to Student--><g class="link" data-entity-1="Korisnik" data-entity-2="Student" data-source-line="127" data-uid="lnk24" id="link_Korisnik_Student"><path codeLine="127" d="M878.0011,459.2141 C883.0411,478.1441 883.84,481.2 889.11,501.03" fill="none" id="Korisnik-backto-Student" style="stroke:#181818;stroke-width:1;"/><polygon fill="none" points="873.37,441.82,872.203,460.7577,883.7991,457.6704,873.37,441.82" style="stroke:#181818;stroke-width:1;"/></g><!--reverse link Korisnik to Profesor--><g class="link" data-entity-1="Korisnik" data-entity-2="Profesor" data-source-line="128" data-uid="lnk25" id="link_Korisnik_Profesor"><path codeLine="128" d="M745.1844,441.1474 C739.2844,444.4774 748.98,438.72 743,441.45 C633.13,491.58 585.69,446.81 478,501.45 C469.01,506.01 460.14,511.4 451.55,517.28" fill="none" id="Korisnik-backto-Profesor" style="stroke:#181818;stroke-width:1;"/><polygon fill="none" points="760.86,432.3,742.2353,435.9222,748.1336,446.3726,760.86,432.3" style="stroke:#181818;stroke-width:1;"/></g><!--reverse link Korisnik to Administrator--><g class="link" data-entity-1="Korisnik" data-entity-2="Administrator" data-source-line="129" data-uid="lnk26" id="link_Korisnik_Administrator"><path codeLine="129" d="M770.1368,455.3925 C736.5468,493.9525 709.28,525.25 680.48,558.32" fill="none" id="Korisnik-backto-Administrator" style="stroke:#181818;stroke-width:1;"/><polygon fill="none" points="781.96,441.82,765.6127,451.4515,774.661,459.3336,781.96,441.82" style="stroke:#181818;stroke-width:1;"/></g><!--link Student to Ispit--><g class="link" data-entity-1="Student" data-entity-2="Ispit" data-source-line="133" data-uid="lnk27" id="link_Student_Ispit"><path codeLine="133" d="M817.19,699.98 C811.48,704.32 805.73,708.5 800,712.42 C742.42,751.81 671.5,787.12 618.43,811.27" fill="none" id="Student-Ispit" style="stroke:#181818;stroke-width:1;"/></g><!--link Profesor to Ispit--><g class="link" data-entity-1="Profesor" data-entity-2="Ispit" data-source-line="134" data-uid="lnk28" id="link_Profesor_Ispit"><path codeLine="134" d="M426.4,696.29 C445.79,721.34 466.66,748.29 485.21,772.25" fill="none" id="Profesor-Ispit" style="stroke:#181818;stroke-width:1;"/></g><!--link Asistent to Predmet--><g class="link" data-entity-1="Asistent" data-entity-2="Predmet" data-source-line="135" data-uid="lnk29" id="link_Asistent_Predmet"><path codeLine="135" d="M124.22,409.14 C123.68,442.22 122.94,487.07 122.31,525.6" fill="none" id="Asistent-Predmet" style="stroke:#181818;stroke-width:1;"/></g><!--SRC=[hLPBR-8m4BxpAo9Ekwsej5U4aAXeguXkGGGklKG3SUcGs8viXmEx-z_NTXx4n6mHsXp0cHdFuvjNSjYci2D1FqAf20sE47n0McIAg7xmgnVePvk1bC6QuO688sf6HJVF80Ydmo1I0jckHNo38nuyz5UUmXRtu66zy0GPn5ngEy2CICXKY_ye-3wMgaW80-NdSiatMVTcf40LCePKa0ILiKyyzXUS5ScUC8npmNS2A0w3Lut9g9GSMz4_lHOYCovGUvj-3KT8lHO5EQANKsdUfZps2pnHmCn3d-f8QIou1idWe5-9W_uHMUg2NqL4M4635UPrJD0AAbgjfqzlg-PziPm_FqNpPKEOJ7-6Rs6qMavMBMfrBPfDukXr_VuuwI8OsNHUKKyH9U9opPYgm6xUfng6p6OquTIdL65EM7bpmtdMiEvrQZJrWA7CKNtxtcBC4pzTNz1Uv3Y3JAi4KLWHyChel2TWQXofA_12b8w022O_CPSLom5i8VW7aLnyZPWnGecgYxXw7RUB3DYMP21yxNWVp0H10NiF0YhLpTsbhqrtBK7cN1_-9pOE01DfnjGr9LD3DMnELwBZgr2PGfGLnmtSFlhcPJ5wPu-TNaV8kTG8uUUfaDtO4ufCkoj0NLC1IqWOZocHYdkBtmrisA5q7PYI78IYm6v78I8VteH4jeLb-i_fMwkM2Wuwj7BSaoQ7fTAnhsjiUc_tkWbyU3fUMsfrIrnAkovwsHbTnkD2PlpWNqBcjnMVxQSgkavaJQgR3FUS7XZMXrvhXRHMHxq_pvJEjteFMxV9ZWY_N-KKXNTO24XbKNk86WkitKYCkLAGjAtAokXeP5RJk1EvOqPhXvkNY0qur5CbxMxCPnJqV5zQw-OnX_PNKVz7FnWCx9-tbpgpfBvmrtTx-xBcXuUxlfF6or9kePvQrvLo2lQoqAb0wfNTylqipLRiFFL6hiAcJ5S9N_C9DVez63Y1kHp7JPVb8gVxlbUxg9csCthDrcmepHePD7tm5m00]--></g><script xmlns=""/></svg>