<?xml version="1.0" encoding="us-ascii" standalone="no"?><svg xmlns="http://www.w3.org/2000/svg" xmlns:xlink="http://www.w3.org/1999/xlink" contentStyleType="text/css" height="948px" preserveAspectRatio="none" style="width:1050px;height:948px;background:#FFFFFF;" version="1.1" viewBox="0 0 1050 948" width="1050px" zoomAndPan="magnify"><defs/><g><!--cluster Sistem za fakultet--><g id="cluster_Sistem za fakultet"><path d="M109.5,6 L233.5,6 A3.75,3.75 0 0 1 236,8.5 L243,29.6094 L1040.5,29.6094 A2.5,2.5 0 0 1 1043,32.1094 L1043,741.5 A2.5,2.5 0 0 1 1040.5,744 L109.5,744 A2.5,2.5 0 0 1 107,741.5 L107,8.5 A2.5,2.5 0 0 1 109.5,6 " fill="none" style="stroke:#000000;stroke-width:1.5;"/><line style="stroke:#000000;stroke-width:1.5;" x1="107" x2="243" y1="29.6094" y2="29.6094"/><text fill="#000000" font-family="sans-serif" font-size="14" font-weight="bold" lengthAdjust="spacing" textLength="123" x="111" y="22.5332">Sistem za fakultet</text></g><!--class Univerzitet--><g id="elem_Univerzitet"><rect codeLine="7" fill="#F1F1F1" height="188.875" id="Univerzitet" rx="2.5" ry="2.5" style="stroke:#181818;stroke-width:0.5;" width="236" x="570" y="42"/><ellipse cx="651.25" cy="58" fill="#ADD1B2" rx="11" ry="11" style="stroke:#181818;stroke-width:1.0;"/><path d="M654.0156,53.875 Q654.1719,53.6563 654.3594,53.5469 Q654.5469,53.4375 654.7656,53.4375 Q655.1406,53.4375 655.375,53.6953 Q655.6094,53.9531 655.6094,54.5625 L655.6094,56.0156 Q655.6094,56.625 655.375,56.8906 Q655.1406,57.1563 654.7656,57.1563 Q654.4219,57.1563 654.2188,56.9531 Q654.0156,56.7656 653.9063,56.25 Q653.8594,55.8906 653.6719,55.7031 Q653.3438,55.3281 652.7344,55.1094 Q652.125,54.8906 651.5,54.8906 Q650.7344,54.8906 650.1016,55.2188 Q649.4688,55.5469 648.9766,56.2969 Q648.4844,57.0469 648.4844,58.0781 L648.4844,59.1719 Q648.4844,60.4063 649.375,61.2266 Q650.2656,62.0469 651.8594,62.0469 Q652.7969,62.0469 653.4531,61.7969 Q653.8438,61.6406 654.2656,61.2031 Q654.5313,60.9375 654.6797,60.8594 Q654.8281,60.7813 655.0313,60.7813 Q655.3594,60.7813 655.6172,61.0391 Q655.875,61.2969 655.875,61.6406 Q655.875,61.9844 655.5313,62.3906 Q655.0313,62.9688 654.2344,63.2969 Q653.1563,63.75 651.8594,63.75 Q650.3438,63.75 649.1406,63.125 Q648.1563,62.625 647.4688,61.5547 Q646.7813,60.4844 646.7813,59.2031 L646.7813,58.0469 Q646.7813,56.7188 647.3984,55.5703 Q648.0156,54.4219 649.1094,53.8047 Q650.2031,53.1875 651.4375,53.1875 Q652.1719,53.1875 652.8203,53.3516 Q653.4688,53.5156 654.0156,53.875 Z " fill="#000000"/><text fill="#000000" font-family="sans-serif" font-size="14" lengthAdjust="spacing" textLength="65" x="671.75" y="63.7285">Univerzitet</text><line style="stroke:#181818;stroke-width:0.5;" x1="571" x2="805" y1="74" y2="74"/><rect fill="none" height="6" style="stroke:#C82930;stroke-width:1.0;" width="6" x="578" y="85.3047"/><text fill="#000000" font-family="sans-serif" font-size="14" lengthAdjust="spacing" textLength="58" x="590" y="92.5332">ID: String</text><rect fill="none" height="6" style="stroke:#C82930;stroke-width:1.0;" width="6" x="578" y="102.9141"/><text fill="#000000" font-family="sans-serif" font-size="14" lengthAdjust="spacing" textLength="78" x="590" y="110.1426">Naziv: String</text><rect fill="none" height="6" style="stroke:#C82930;stroke-width:1.0;" width="6" x="578" y="120.5234"/><text fill="#000000" font-family="sans-serif" font-size="14" lengthAdjust="spacing" textLength="97" x="590" y="127.752">Lokacija: String</text><rect fill="none" height="6" style="stroke:#C82930;stroke-width:1.0;" width="6" x="578" y="138.1328"/><text fill="#000000" font-family="sans-serif" font-size="14" lengthAdjust="spacing" textLength="137" x="590" y="145.3613">Godina_osnivanja: Int</text><rect fill="none" height="6" style="stroke:#C82930;stroke-width:1.0;" width="6" x="578" y="155.7422"/><text fill="#000000" font-family="sans-serif" font-size="14" lengthAdjust="spacing" textLength="119" x="590" y="162.9707">Broj_studenata: Int</text><rect fill="none" height="6" style="stroke:#C82930;stroke-width:1.0;" width="6" x="578" y="173.3516"/><text fill="#000000" font-family="sans-serif" font-size="14" lengthAdjust="spacing" textLength="101" x="590" y="180.5801">Broj_osoblja: Int</text><rect fill="none" height="6" style="stroke:#C82930;stroke-width:1.0;" width="6" x="578" y="190.9609"/><text fill="#000000" font-family="sans-serif" font-size="14" lengthAdjust="spacing" textLength="165" x="590" y="198.1895">Status_akreditacije: String</text><rect fill="none" height="6" style="stroke:#C82930;stroke-width:1.0;" width="6" x="578" y="208.5703"/><text fill="#000000" font-family="sans-serif" font-size="14" lengthAdjust="spacing" textLength="210" x="590" y="215.7988">Ponudjeni_programi: List&lt;String&gt;</text><line style="stroke:#181818;stroke-width:0.5;" x1="571" x2="805" y1="222.875" y2="222.875"/></g><!--class Korisnik--><g id="elem_Korisnik"><rect codeLine="18" fill="#F1F1F1" height="171.2656" id="Korisnik" rx="2.5" ry="2.5" style="stroke:#181818;stroke-width:0.5;" width="166" x="798" y="291"/><ellipse cx="851.75" cy="307" fill="#ADD1B2" rx="11" ry="11" style="stroke:#181818;stroke-width:1.0;"/><path d="M854.5156,302.875 Q854.6719,302.6563 854.8594,302.5469 Q855.0469,302.4375 855.2656,302.4375 Q855.6406,302.4375 855.875,302.6953 Q856.1094,302.9531 856.1094,303.5625 L856.1094,305.0156 Q856.1094,305.625 855.875,305.8906 Q855.6406,306.1563 855.2656,306.1563 Q854.9219,306.1563 854.7188,305.9531 Q854.5156,305.7656 854.4063,305.25 Q854.3594,304.8906 854.1719,304.7031 Q853.8438,304.3281 853.2344,304.1094 Q852.625,303.8906 852,303.8906 Q851.2344,303.8906 850.6016,304.2188 Q849.9688,304.5469 849.4766,305.2969 Q848.9844,306.0469 848.9844,307.0781 L848.9844,308.1719 Q848.9844,309.4063 849.875,310.2266 Q850.7656,311.0469 852.3594,311.0469 Q853.2969,311.0469 853.9531,310.7969 Q854.3438,310.6406 854.7656,310.2031 Q855.0313,309.9375 855.1797,309.8594 Q855.3281,309.7813 855.5313,309.7813 Q855.8594,309.7813 856.1172,310.0391 Q856.375,310.2969 856.375,310.6406 Q856.375,310.9844 856.0313,311.3906 Q855.5313,311.9688 854.7344,312.2969 Q853.6563,312.75 852.3594,312.75 Q850.8438,312.75 849.6406,312.125 Q848.6563,311.625 847.9688,310.5547 Q847.2813,309.4844 847.2813,308.2031 L847.2813,307.0469 Q847.2813,305.7188 847.8984,304.5703 Q848.5156,303.4219 849.6094,302.8047 Q850.7031,302.1875 851.9375,302.1875 Q852.6719,302.1875 853.3203,302.3516 Q853.9688,302.5156 854.5156,302.875 Z " fill="#000000"/><text fill="#000000" font-family="sans-serif" font-size="14" lengthAdjust="spacing" textLength="50" x="872.25" y="312.7285">Korisnik</text><line style="stroke:#181818;stroke-width:0.5;" x1="799" x2="963" y1="323" y2="323"/><rect fill="none" height="6" style="stroke:#C82930;stroke-width:1.0;" width="6" x="806" y="334.3047"/><text fill="#000000" font-family="sans-serif" font-size="14" lengthAdjust="spacing" textLength="58" x="818" y="341.5332">ID: String</text><rect fill="none" height="6" style="stroke:#C82930;stroke-width:1.0;" width="6" x="806" y="351.9141"/><text fill="#000000" font-family="sans-serif" font-size="14" lengthAdjust="spacing" textLength="67" x="818" y="359.1426">Ime: String</text><rect fill="none" height="6" style="stroke:#C82930;stroke-width:1.0;" width="6" x="806" y="369.5234"/><text fill="#000000" font-family="sans-serif" font-size="14" lengthAdjust="spacing" textLength="95" x="818" y="376.752">Prezime: String</text><rect fill="none" height="6" style="stroke:#C82930;stroke-width:1.0;" width="6" x="806" y="387.1328"/><text fill="#000000" font-family="sans-serif" font-size="14" lengthAdjust="spacing" textLength="140" x="818" y="394.3613">Korisnicko_ime: String</text><rect fill="none" height="6" style="stroke:#C82930;stroke-width:1.0;" width="6" x="806" y="404.7422"/><text fill="#000000" font-family="sans-serif" font-size="14" lengthAdjust="spacing" textLength="79" x="818" y="411.9707">Email: String</text><rect fill="none" height="6" style="stroke:#C82930;stroke-width:1.0;" width="6" x="806" y="422.3516"/><text fill="#000000" font-family="sans-serif" font-size="14" lengthAdjust="spacing" textLength="135" x="818" y="429.5801">Datum_rodenja: Date</text><rect fill="none" height="6" style="stroke:#C82930;stroke-width:1.0;" width="6" x="806" y="439.9609"/><text fill="#000000" font-family="sans-serif" font-size="14" lengthAdjust="spacing" textLength="93" x="818" y="447.1895">Lozinka: String</text><line style="stroke:#181818;stroke-width:0.5;" x1="799" x2="963" y1="454.2656" y2="454.2656"/></g><!--class TipKorisnika--><g id="elem_TipKorisnika"><rect codeLine="28" fill="#F1F1F1" height="118.4375" id="TipKorisnika" rx="2.5" ry="2.5" style="stroke:#181818;stroke-width:0.5;" width="163" x="249.5" y="77.5"/><ellipse cx="288.35" cy="93.5" fill="#EB937F" rx="11" ry="11" style="stroke:#181818;stroke-width:1.0;"/><path d="M287.2094,94.2969 L287.2094,96.7969 L291.5375,96.7969 L291.5375,95.875 Q291.5375,95.2656 291.7797,95 Q292.0219,94.7344 292.3969,94.7344 Q292.7719,94.7344 293.0063,95 Q293.2406,95.2656 293.2406,95.875 L293.2406,98.5 L285.2406,98.5 Q284.6156,98.5 284.3578,98.2656 Q284.1,98.0313 284.1,97.6406 Q284.1,97.2656 284.3656,97.0313 Q284.6313,96.7969 285.2406,96.7969 L285.5063,96.7969 L285.5063,90.1406 L285.2406,90.1406 Q284.6156,90.1406 284.3578,89.9063 Q284.1,89.6719 284.1,89.2813 Q284.1,88.9063 284.3578,88.6719 Q284.6156,88.4375 285.2406,88.4375 L292.8656,88.4375 L292.8656,91.0313 Q292.8656,91.6406 292.6391,91.8984 Q292.4125,92.1563 292.0219,92.1563 Q291.6469,92.1563 291.4125,91.8984 Q291.1781,91.6406 291.1781,91.0313 L291.1781,90.1406 L287.2094,90.1406 L287.2094,92.5938 L288.6938,92.5938 Q288.6938,91.9375 288.8188,91.75 Q289.0844,91.3438 289.5531,91.3438 Q289.9281,91.3438 290.1625,91.6016 Q290.3969,91.8594 290.3969,92.4688 L290.3969,94.4375 Q290.3969,94.9844 290.2719,95.1719 Q290.0063,95.5625 289.5531,95.5625 Q289.0844,95.5625 288.8188,95.1563 Q288.6938,94.9688 288.6938,94.2969 L287.2094,94.2969 Z " fill="#000000"/><text fill="#000000" font-family="sans-serif" font-size="14" lengthAdjust="spacing" textLength="78" x="307.65" y="99.2285">TipKorisnika</text><line style="stroke:#181818;stroke-width:0.5;" x1="250.5" x2="411.5" y1="109.5" y2="109.5"/><text fill="#000000" font-family="sans-serif" font-size="14" lengthAdjust="spacing" textLength="64" x="255.5" y="128.0332">STUDENT</text><text fill="#000000" font-family="sans-serif" font-size="14" lengthAdjust="spacing" textLength="78" x="255.5" y="145.6426">PROFESOR</text><text fill="#000000" font-family="sans-serif" font-size="14" lengthAdjust="spacing" textLength="112" x="255.5" y="163.252">ADMINISTRATOR</text><text fill="#000000" font-family="sans-serif" font-size="14" lengthAdjust="spacing" textLength="151" x="255.5" y="180.8613">STUDENTSKA_SLUZBA</text><line style="stroke:#181818;stroke-width:0.5;" x1="250.5" x2="411.5" y1="187.9375" y2="187.9375"/></g><!--class Student--><g id="elem_Student"><rect codeLine="35" fill="#F1F1F1" height="206.4844" id="Student" rx="2.5" ry="2.5" style="stroke:#181818;stroke-width:0.5;" width="181" x="845.5" y="522"/><ellipse cx="907.25" cy="538" fill="#ADD1B2" rx="11" ry="11" style="stroke:#181818;stroke-width:1.0;"/><path d="M910.0156,533.875 Q910.1719,533.6563 910.3594,533.5469 Q910.5469,533.4375 910.7656,533.4375 Q911.1406,533.4375 911.375,533.6953 Q911.6094,533.9531 911.6094,534.5625 L911.6094,536.0156 Q911.6094,536.625 911.375,536.8906 Q911.1406,537.1563 910.7656,537.1563 Q910.4219,537.1563 910.2188,536.9531 Q910.0156,536.7656 909.9063,536.25 Q909.8594,535.8906 909.6719,535.7031 Q909.3438,535.3281 908.7344,535.1094 Q908.125,534.8906 907.5,534.8906 Q906.7344,534.8906 906.1016,535.2188 Q905.4688,535.5469 904.9766,536.2969 Q904.4844,537.0469 904.4844,538.0781 L904.4844,539.1719 Q904.4844,540.4063 905.375,541.2266 Q906.2656,542.0469 907.8594,542.0469 Q908.7969,542.0469 909.4531,541.7969 Q909.8438,541.6406 910.2656,541.2031 Q910.5313,540.9375 910.6797,540.8594 Q910.8281,540.7813 911.0313,540.7813 Q911.3594,540.7813 911.6172,541.0391 Q911.875,541.2969 911.875,541.6406 Q911.875,541.9844 911.5313,542.3906 Q911.0313,542.9688 910.2344,543.2969 Q909.1563,543.75 907.8594,543.75 Q906.3438,543.75 905.1406,543.125 Q904.1563,542.625 903.4688,541.5547 Q902.7813,540.4844 902.7813,539.2031 L902.7813,538.0469 Q902.7813,536.7188 903.3984,535.5703 Q904.0156,534.4219 905.1094,533.8047 Q906.2031,533.1875 907.4375,533.1875 Q908.1719,533.1875 908.8203,533.3516 Q909.4688,533.5156 910.0156,533.875 Z " fill="#000000"/><text fill="#000000" font-family="sans-serif" font-size="14" lengthAdjust="spacing" textLength="49" x="927.75" y="543.7285">Student</text><line style="stroke:#181818;stroke-width:0.5;" x1="846.5" x2="1025.5" y1="554" y2="554"/><rect fill="none" height="6" style="stroke:#C82930;stroke-width:1.0;" width="6" x="853.5" y="565.3047"/><text fill="#000000" font-family="sans-serif" font-size="14" lengthAdjust="spacing" textLength="58" x="865.5" y="572.5332">ID: String</text><rect fill="none" height="6" style="stroke:#C82930;stroke-width:1.0;" width="6" x="853.5" y="582.9141"/><text fill="#000000" font-family="sans-serif" font-size="14" lengthAdjust="spacing" textLength="78" x="865.5" y="590.1426">Smer: String</text><rect fill="none" height="6" style="stroke:#C82930;stroke-width:1.0;" width="6" x="853.5" y="600.5234"/><text fill="#000000" font-family="sans-serif" font-size="14" lengthAdjust="spacing" textLength="118" x="865.5" y="607.752">Godina_studija: Int</text><rect fill="none" height="6" style="stroke:#C82930;stroke-width:1.0;" width="6" x="853.5" y="618.1328"/><text fill="#000000" font-family="sans-serif" font-size="14" lengthAdjust="spacing" textLength="139" x="865.5" y="625.3613">Dodeljeni_dom: String</text><rect fill="none" height="6" style="stroke:#C82930;stroke-width:1.0;" width="6" x="853.5" y="635.7422"/><text fill="#000000" font-family="sans-serif" font-size="14" lengthAdjust="spacing" textLength="97" x="865.5" y="642.9707">Stipendija: bool</text><line style="stroke:#181818;stroke-width:0.5;" x1="846.5" x2="1025.5" y1="650.0469" y2="650.0469"/><ellipse cx="856.5" cy="664.3516" fill="#84BE84" rx="3" ry="3" style="stroke:#038048;stroke-width:1.0;"/><text fill="#000000" font-family="sans-serif" font-size="14" lengthAdjust="spacing" textLength="73" x="865.5" y="668.5801">PrijaviIspit()</text><ellipse cx="856.5" cy="681.9609" fill="#84BE84" rx="3" ry="3" style="stroke:#038048;stroke-width:1.0;"/><text fill="#000000" font-family="sans-serif" font-size="14" lengthAdjust="spacing" textLength="75" x="865.5" y="686.1895">OdjaviIspit()</text><ellipse cx="856.5" cy="699.5703" fill="#84BE84" rx="3" ry="3" style="stroke:#038048;stroke-width:1.0;"/><text fill="#000000" font-family="sans-serif" font-size="14" lengthAdjust="spacing" textLength="155" x="865.5" y="703.7988">PristupiKalendaruIspita()</text><ellipse cx="856.5" cy="717.1797" fill="#84BE84" rx="3" ry="3" style="stroke:#038048;stroke-width:1.0;"/><text fill="#000000" font-family="sans-serif" font-size="14" lengthAdjust="spacing" textLength="143" x="865.5" y="721.4082">PristupiPredavanjima()</text></g><!--class Profesor--><g id="elem_Profesor"><rect codeLine="47" fill="#F1F1F1" height="188.875" id="Profesor" rx="2.5" ry="2.5" style="stroke:#181818;stroke-width:0.5;" width="181" x="333.5" y="530.5"/><ellipse cx="392.75" cy="546.5" fill="#ADD1B2" rx="11" ry="11" style="stroke:#181818;stroke-width:1.0;"/><path d="M395.5156,542.375 Q395.6719,542.1563 395.8594,542.0469 Q396.0469,541.9375 396.2656,541.9375 Q396.6406,541.9375 396.875,542.1953 Q397.1094,542.4531 397.1094,543.0625 L397.1094,544.5156 Q397.1094,545.125 396.875,545.3906 Q396.6406,545.6563 396.2656,545.6563 Q395.9219,545.6563 395.7188,545.4531 Q395.5156,545.2656 395.4063,544.75 Q395.3594,544.3906 395.1719,544.2031 Q394.8438,543.8281 394.2344,543.6094 Q393.625,543.3906 393,543.3906 Q392.2344,543.3906 391.6016,543.7188 Q390.9688,544.0469 390.4766,544.7969 Q389.9844,545.5469 389.9844,546.5781 L389.9844,547.6719 Q389.9844,548.9063 390.875,549.7266 Q391.7656,550.5469 393.3594,550.5469 Q394.2969,550.5469 394.9531,550.2969 Q395.3438,550.1406 395.7656,549.7031 Q396.0313,549.4375 396.1797,549.3594 Q396.3281,549.2813 396.5313,549.2813 Q396.8594,549.2813 397.1172,549.5391 Q397.375,549.7969 397.375,550.1406 Q397.375,550.4844 397.0313,550.8906 Q396.5313,551.4688 395.7344,551.7969 Q394.6563,552.25 393.3594,552.25 Q391.8438,552.25 390.6406,551.625 Q389.6563,551.125 388.9688,550.0547 Q388.2813,548.9844 388.2813,547.7031 L388.2813,546.5469 Q388.2813,545.2188 388.8984,544.0703 Q389.5156,542.9219 390.6094,542.3047 Q391.7031,541.6875 392.9375,541.6875 Q393.6719,541.6875 394.3203,541.8516 Q394.9688,542.0156 395.5156,542.375 Z " fill="#000000"/><text fill="#000000" font-family="sans-serif" font-size="14" lengthAdjust="spacing" textLength="54" x="413.25" y="552.2285">Profesor</text><line style="stroke:#181818;stroke-width:0.5;" x1="334.5" x2="513.5" y1="562.5" y2="562.5"/><rect fill="none" height="6" style="stroke:#C82930;stroke-width:1.0;" width="6" x="341.5" y="573.8047"/><text fill="#000000" font-family="sans-serif" font-size="14" lengthAdjust="spacing" textLength="58" x="353.5" y="581.0332">ID: String</text><rect fill="none" height="6" style="stroke:#C82930;stroke-width:1.0;" width="6" x="341.5" y="591.4141"/><text fill="#000000" font-family="sans-serif" font-size="14" lengthAdjust="spacing" textLength="155" x="353.5" y="598.6426">Predmeti: List&lt;Predmet&gt;</text><rect fill="none" height="6" style="stroke:#C82930;stroke-width:1.0;" width="6" x="341.5" y="609.0234"/><text fill="#000000" font-family="sans-serif" font-size="14" lengthAdjust="spacing" textLength="115" x="353.5" y="616.252">Kancelarija: String</text><line style="stroke:#181818;stroke-width:0.5;" x1="334.5" x2="513.5" y1="623.3281" y2="623.3281"/><ellipse cx="344.5" cy="637.6328" fill="#84BE84" rx="3" ry="3" style="stroke:#038048;stroke-width:1.0;"/><text fill="#000000" font-family="sans-serif" font-size="14" lengthAdjust="spacing" textLength="76" x="353.5" y="641.8613">KreirajIspit()</text><ellipse cx="344.5" cy="655.2422" fill="#84BE84" rx="3" ry="3" style="stroke:#038048;stroke-width:1.0;"/><text fill="#000000" font-family="sans-serif" font-size="14" lengthAdjust="spacing" textLength="74" x="353.5" y="659.4707">OtkaziIspit()</text><ellipse cx="344.5" cy="672.8516" fill="#84BE84" rx="3" ry="3" style="stroke:#038048;stroke-width:1.0;"/><text fill="#000000" font-family="sans-serif" font-size="14" lengthAdjust="spacing" textLength="105" x="353.5" y="677.0801">UrediRaspored()</text><ellipse cx="344.5" cy="690.4609" fill="#84BE84" rx="3" ry="3" style="stroke:#038048;stroke-width:1.0;"/><text fill="#000000" font-family="sans-serif" font-size="14" lengthAdjust="spacing" textLength="155" x="353.5" y="694.6895">PristupiKalendaruIspita()</text><ellipse cx="344.5" cy="708.0703" fill="#84BE84" rx="3" ry="3" style="stroke:#038048;stroke-width:1.0;"/><text fill="#000000" font-family="sans-serif" font-size="14" lengthAdjust="spacing" textLength="143" x="353.5" y="712.2988">PristupiPredavanjima()</text></g><!--class Asistent--><g id="elem_Asistent"><rect codeLine="58" fill="#F1F1F1" height="100.8281" id="Asistent" rx="2.5" ry="2.5" style="stroke:#181818;stroke-width:0.5;" width="181" x="123.5" y="326"/><ellipse cx="184.75" cy="342" fill="#ADD1B2" rx="11" ry="11" style="stroke:#181818;stroke-width:1.0;"/><path d="M187.5156,337.875 Q187.6719,337.6563 187.8594,337.5469 Q188.0469,337.4375 188.2656,337.4375 Q188.6406,337.4375 188.875,337.6953 Q189.1094,337.9531 189.1094,338.5625 L189.1094,340.0156 Q189.1094,340.625 188.875,340.8906 Q188.6406,341.1563 188.2656,341.1563 Q187.9219,341.1563 187.7188,340.9531 Q187.5156,340.7656 187.4063,340.25 Q187.3594,339.8906 187.1719,339.7031 Q186.8438,339.3281 186.2344,339.1094 Q185.625,338.8906 185,338.8906 Q184.2344,338.8906 183.6016,339.2188 Q182.9688,339.5469 182.4766,340.2969 Q181.9844,341.0469 181.9844,342.0781 L181.9844,343.1719 Q181.9844,344.4063 182.875,345.2266 Q183.7656,346.0469 185.3594,346.0469 Q186.2969,346.0469 186.9531,345.7969 Q187.3438,345.6406 187.7656,345.2031 Q188.0313,344.9375 188.1797,344.8594 Q188.3281,344.7813 188.5313,344.7813 Q188.8594,344.7813 189.1172,345.0391 Q189.375,345.2969 189.375,345.6406 Q189.375,345.9844 189.0313,346.3906 Q188.5313,346.9688 187.7344,347.2969 Q186.6563,347.75 185.3594,347.75 Q183.8438,347.75 182.6406,347.125 Q181.6563,346.625 180.9688,345.5547 Q180.2813,344.4844 180.2813,343.2031 L180.2813,342.0469 Q180.2813,340.7188 180.8984,339.5703 Q181.5156,338.4219 182.6094,337.8047 Q183.7031,337.1875 184.9375,337.1875 Q185.6719,337.1875 186.3203,337.3516 Q186.9688,337.5156 187.5156,337.875 Z " fill="#000000"/><text fill="#000000" font-family="sans-serif" font-size="14" lengthAdjust="spacing" textLength="50" x="205.25" y="347.7285">Asistent</text><line style="stroke:#181818;stroke-width:0.5;" x1="124.5" x2="303.5" y1="358" y2="358"/><rect fill="none" height="6" style="stroke:#C82930;stroke-width:1.0;" width="6" x="131.5" y="369.3047"/><text fill="#000000" font-family="sans-serif" font-size="14" lengthAdjust="spacing" textLength="58" x="143.5" y="376.5332">ID: String</text><rect fill="none" height="6" style="stroke:#C82930;stroke-width:1.0;" width="6" x="131.5" y="386.9141"/><text fill="#000000" font-family="sans-serif" font-size="14" lengthAdjust="spacing" textLength="116" x="143.5" y="394.1426">Profesor: Profesor</text><rect fill="none" height="6" style="stroke:#C82930;stroke-width:1.0;" width="6" x="131.5" y="404.5234"/><text fill="#000000" font-family="sans-serif" font-size="14" lengthAdjust="spacing" textLength="155" x="143.5" y="411.752">Predmeti: List&lt;Predmet&gt;</text><line style="stroke:#181818;stroke-width:0.5;" x1="124.5" x2="303.5" y1="418.8281" y2="418.8281"/></g><!--class StudentskaSluzba--><g id="elem_StudentskaSluzba"><rect codeLine="64" fill="#F1F1F1" height="118.4375" id="StudentskaSluzba" rx="2.5" ry="2.5" style="stroke:#181818;stroke-width:0.5;" width="149" x="613.5" y="317.5"/><ellipse cx="630.3" cy="333.5" fill="#ADD1B2" rx="11" ry="11" style="stroke:#181818;stroke-width:1.0;"/><path d="M633.0656,329.375 Q633.2219,329.1563 633.4094,329.0469 Q633.5969,328.9375 633.8156,328.9375 Q634.1906,328.9375 634.425,329.1953 Q634.6594,329.4531 634.6594,330.0625 L634.6594,331.5156 Q634.6594,332.125 634.425,332.3906 Q634.1906,332.6563 633.8156,332.6563 Q633.4719,332.6563 633.2688,332.4531 Q633.0656,332.2656 632.9563,331.75 Q632.9094,331.3906 632.7219,331.2031 Q632.3938,330.8281 631.7844,330.6094 Q631.175,330.3906 630.55,330.3906 Q629.7844,330.3906 629.1516,330.7188 Q628.5188,331.0469 628.0266,331.7969 Q627.5344,332.5469 627.5344,333.5781 L627.5344,334.6719 Q627.5344,335.9063 628.425,336.7266 Q629.3156,337.5469 630.9094,337.5469 Q631.8469,337.5469 632.5031,337.2969 Q632.8938,337.1406 633.3156,336.7031 Q633.5813,336.4375 633.7297,336.3594 Q633.8781,336.2813 634.0813,336.2813 Q634.4094,336.2813 634.6672,336.5391 Q634.925,336.7969 634.925,337.1406 Q634.925,337.4844 634.5813,337.8906 Q634.0813,338.4688 633.2844,338.7969 Q632.2063,339.25 630.9094,339.25 Q629.3938,339.25 628.1906,338.625 Q627.2063,338.125 626.5188,337.0547 Q625.8313,335.9844 625.8313,334.7031 L625.8313,333.5469 Q625.8313,332.2188 626.4484,331.0703 Q627.0656,329.9219 628.1594,329.3047 Q629.2531,328.6875 630.4875,328.6875 Q631.2219,328.6875 631.8703,328.8516 Q632.5188,329.0156 633.0656,329.375 Z " fill="#000000"/><text fill="#000000" font-family="sans-serif" font-size="14" lengthAdjust="spacing" textLength="113" x="644.7" y="339.2285">StudentskaSluzba</text><line style="stroke:#181818;stroke-width:0.5;" x1="614.5" x2="761.5" y1="349.5" y2="349.5"/><rect fill="none" height="6" style="stroke:#C82930;stroke-width:1.0;" width="6" x="621.5" y="360.8047"/><text fill="#000000" font-family="sans-serif" font-size="14" lengthAdjust="spacing" textLength="58" x="633.5" y="368.0332">ID: String</text><rect fill="none" height="6" style="stroke:#C82930;stroke-width:1.0;" width="6" x="621.5" y="378.4141"/><text fill="#000000" font-family="sans-serif" font-size="14" lengthAdjust="spacing" textLength="78" x="633.5" y="385.6426">Naziv: String</text><rect fill="none" height="6" style="stroke:#C82930;stroke-width:1.0;" width="6" x="621.5" y="396.0234"/><text fill="#000000" font-family="sans-serif" font-size="14" lengthAdjust="spacing" textLength="105" x="633.5" y="403.252">Odeljenje: String</text><rect fill="none" height="6" style="stroke:#C82930;stroke-width:1.0;" width="6" x="621.5" y="413.6328"/><text fill="#000000" font-family="sans-serif" font-size="14" lengthAdjust="spacing" textLength="123" x="633.5" y="420.8613">Broj_zaposlenih: Int</text><line style="stroke:#181818;stroke-width:0.5;" x1="614.5" x2="761.5" y1="427.9375" y2="427.9375"/></g><!--class Administrator--><g id="elem_Administrator"><rect codeLine="71" fill="#F1F1F1" height="100.8281" id="Administrator" rx="2.5" ry="2.5" style="stroke:#181818;stroke-width:0.5;" width="260" x="550" y="574.5"/><ellipse cx="634.25" cy="590.5" fill="#ADD1B2" rx="11" ry="11" style="stroke:#181818;stroke-width:1.0;"/><path d="M637.0156,586.375 Q637.1719,586.1563 637.3594,586.0469 Q637.5469,585.9375 637.7656,585.9375 Q638.1406,585.9375 638.375,586.1953 Q638.6094,586.4531 638.6094,587.0625 L638.6094,588.5156 Q638.6094,589.125 638.375,589.3906 Q638.1406,589.6563 637.7656,589.6563 Q637.4219,589.6563 637.2188,589.4531 Q637.0156,589.2656 636.9063,588.75 Q636.8594,588.3906 636.6719,588.2031 Q636.3438,587.8281 635.7344,587.6094 Q635.125,587.3906 634.5,587.3906 Q633.7344,587.3906 633.1016,587.7188 Q632.4688,588.0469 631.9766,588.7969 Q631.4844,589.5469 631.4844,590.5781 L631.4844,591.6719 Q631.4844,592.9063 632.375,593.7266 Q633.2656,594.5469 634.8594,594.5469 Q635.7969,594.5469 636.4531,594.2969 Q636.8438,594.1406 637.2656,593.7031 Q637.5313,593.4375 637.6797,593.3594 Q637.8281,593.2813 638.0313,593.2813 Q638.3594,593.2813 638.6172,593.5391 Q638.875,593.7969 638.875,594.1406 Q638.875,594.4844 638.5313,594.8906 Q638.0313,595.4688 637.2344,595.7969 Q636.1563,596.25 634.8594,596.25 Q633.3438,596.25 632.1406,595.625 Q631.1563,595.125 630.4688,594.0547 Q629.7813,592.9844 629.7813,591.7031 L629.7813,590.5469 Q629.7813,589.2188 630.3984,588.0703 Q631.0156,586.9219 632.1094,586.3047 Q633.2031,585.6875 634.4375,585.6875 Q635.1719,585.6875 635.8203,585.8516 Q636.4688,586.0156 637.0156,586.375 Z " fill="#000000"/><text fill="#000000" font-family="sans-serif" font-size="14" lengthAdjust="spacing" textLength="83" x="654.75" y="596.2285">Administrator</text><line style="stroke:#181818;stroke-width:0.5;" x1="551" x2="809" y1="606.5" y2="606.5"/><rect fill="none" height="6" style="stroke:#C82930;stroke-width:1.0;" width="6" x="558" y="617.8047"/><text fill="#000000" font-family="sans-serif" font-size="14" lengthAdjust="spacing" textLength="58" x="570" y="625.0332">ID: String</text><rect fill="none" height="6" style="stroke:#C82930;stroke-width:1.0;" width="6" x="558" y="635.4141"/><text fill="#000000" font-family="sans-serif" font-size="14" lengthAdjust="spacing" textLength="133" x="570" y="642.6426">Radno_mesto: String</text><rect fill="none" height="6" style="stroke:#C82930;stroke-width:1.0;" width="6" x="558" y="653.0234"/><text fill="#000000" font-family="sans-serif" font-size="14" lengthAdjust="spacing" textLength="234" x="570" y="660.252">StudentskaSluzba: StudentskaSluzba</text><line style="stroke:#181818;stroke-width:0.5;" x1="551" x2="809" y1="667.3281" y2="667.3281"/></g><!--class Departman--><g id="elem_Departman"><rect codeLine="77" fill="#F1F1F1" height="136.0469" id="Departman" rx="2.5" ry="2.5" style="stroke:#181818;stroke-width:0.5;" width="238" x="340" y="308.5"/><ellipse cx="419.75" cy="324.5" fill="#ADD1B2" rx="11" ry="11" style="stroke:#181818;stroke-width:1.0;"/><path d="M422.5156,320.375 Q422.6719,320.1563 422.8594,320.0469 Q423.0469,319.9375 423.2656,319.9375 Q423.6406,319.9375 423.875,320.1953 Q424.1094,320.4531 424.1094,321.0625 L424.1094,322.5156 Q424.1094,323.125 423.875,323.3906 Q423.6406,323.6563 423.2656,323.6563 Q422.9219,323.6563 422.7188,323.4531 Q422.5156,323.2656 422.4063,322.75 Q422.3594,322.3906 422.1719,322.2031 Q421.8438,321.8281 421.2344,321.6094 Q420.625,321.3906 420,321.3906 Q419.2344,321.3906 418.6016,321.7188 Q417.9688,322.0469 417.4766,322.7969 Q416.9844,323.5469 416.9844,324.5781 L416.9844,325.6719 Q416.9844,326.9063 417.875,327.7266 Q418.7656,328.5469 420.3594,328.5469 Q421.2969,328.5469 421.9531,328.2969 Q422.3438,328.1406 422.7656,327.7031 Q423.0313,327.4375 423.1797,327.3594 Q423.3281,327.2813 423.5313,327.2813 Q423.8594,327.2813 424.1172,327.5391 Q424.375,327.7969 424.375,328.1406 Q424.375,328.4844 424.0313,328.8906 Q423.5313,329.4688 422.7344,329.7969 Q421.6563,330.25 420.3594,330.25 Q418.8438,330.25 417.6406,329.625 Q416.6563,329.125 415.9688,328.0547 Q415.2813,326.9844 415.2813,325.7031 L415.2813,324.5469 Q415.2813,323.2188 415.8984,322.0703 Q416.5156,320.9219 417.6094,320.3047 Q418.7031,319.6875 419.9375,319.6875 Q420.6719,319.6875 421.3203,319.8516 Q421.9688,320.0156 422.5156,320.375 Z " fill="#000000"/><text fill="#000000" font-family="sans-serif" font-size="14" lengthAdjust="spacing" textLength="70" x="440.25" y="330.2285">Departman</text><line style="stroke:#181818;stroke-width:0.5;" x1="341" x2="577" y1="340.5" y2="340.5"/><rect fill="none" height="6" style="stroke:#C82930;stroke-width:1.0;" width="6" x="348" y="351.8047"/><text fill="#000000" font-family="sans-serif" font-size="14" lengthAdjust="spacing" textLength="58" x="360" y="359.0332">ID: String</text><rect fill="none" height="6" style="stroke:#C82930;stroke-width:1.0;" width="6" x="348" y="369.4141"/><text fill="#000000" font-family="sans-serif" font-size="14" lengthAdjust="spacing" textLength="78" x="360" y="376.6426">Naziv: String</text><rect fill="none" height="6" style="stroke:#C82930;stroke-width:1.0;" width="6" x="348" y="387.0234"/><text fill="#000000" font-family="sans-serif" font-size="14" lengthAdjust="spacing" textLength="83" x="360" y="394.252">Sef: Profesor</text><rect fill="none" height="6" style="stroke:#C82930;stroke-width:1.0;" width="6" x="348" y="404.6328"/><text fill="#000000" font-family="sans-serif" font-size="14" lengthAdjust="spacing" textLength="199" x="360" y="411.8613">Studijski_programi: List&lt;String&gt;</text><rect fill="none" height="6" style="stroke:#C82930;stroke-width:1.0;" width="6" x="348" y="422.2422"/><text fill="#000000" font-family="sans-serif" font-size="14" lengthAdjust="spacing" textLength="212" x="360" y="429.4707">Nastavno_osoblje: List&lt;Profesor&gt;</text><line style="stroke:#181818;stroke-width:0.5;" x1="341" x2="577" y1="436.5469" y2="436.5469"/></g><!--class Predmet--><g id="elem_Predmet"><rect codeLine="85" fill="#F1F1F1" height="171.2656" id="Predmet" rx="2.5" ry="2.5" style="stroke:#181818;stroke-width:0.5;" width="175" x="123.5" y="539.5"/><ellipse cx="180.25" cy="555.5" fill="#ADD1B2" rx="11" ry="11" style="stroke:#181818;stroke-width:1.0;"/><path d="M183.0156,551.375 Q183.1719,551.1563 183.3594,551.0469 Q183.5469,550.9375 183.7656,550.9375 Q184.1406,550.9375 184.375,551.1953 Q184.6094,551.4531 184.6094,552.0625 L184.6094,553.5156 Q184.6094,554.125 184.375,554.3906 Q184.1406,554.6563 183.7656,554.6563 Q183.4219,554.6563 183.2188,554.4531 Q183.0156,554.2656 182.9063,553.75 Q182.8594,553.3906 182.6719,553.2031 Q182.3438,552.8281 181.7344,552.6094 Q181.125,552.3906 180.5,552.3906 Q179.7344,552.3906 179.1016,552.7188 Q178.4688,553.0469 177.9766,553.7969 Q177.4844,554.5469 177.4844,555.5781 L177.4844,556.6719 Q177.4844,557.9063 178.375,558.7266 Q179.2656,559.5469 180.8594,559.5469 Q181.7969,559.5469 182.4531,559.2969 Q182.8438,559.1406 183.2656,558.7031 Q183.5313,558.4375 183.6797,558.3594 Q183.8281,558.2813 184.0313,558.2813 Q184.3594,558.2813 184.6172,558.5391 Q184.875,558.7969 184.875,559.1406 Q184.875,559.4844 184.5313,559.8906 Q184.0313,560.4688 183.2344,560.7969 Q182.1563,561.25 180.8594,561.25 Q179.3438,561.25 178.1406,560.625 Q177.1563,560.125 176.4688,559.0547 Q175.7813,557.9844 175.7813,556.7031 L175.7813,555.5469 Q175.7813,554.2188 176.3984,553.0703 Q177.0156,551.9219 178.1094,551.3047 Q179.2031,550.6875 180.4375,550.6875 Q181.1719,550.6875 181.8203,550.8516 Q182.4688,551.0156 183.0156,551.375 Z " fill="#000000"/><text fill="#000000" font-family="sans-serif" font-size="14" lengthAdjust="spacing" textLength="53" x="200.75" y="561.2285">Predmet</text><line style="stroke:#181818;stroke-width:0.5;" x1="124.5" x2="297.5" y1="571.5" y2="571.5"/><rect fill="none" height="6" style="stroke:#C82930;stroke-width:1.0;" width="6" x="131.5" y="582.8047"/><text fill="#000000" font-family="sans-serif" font-size="14" lengthAdjust="spacing" textLength="58" x="143.5" y="590.0332">ID: String</text><rect fill="none" height="6" style="stroke:#C82930;stroke-width:1.0;" width="6" x="131.5" y="600.4141"/><text fill="#000000" font-family="sans-serif" font-size="14" lengthAdjust="spacing" textLength="78" x="143.5" y="607.6426">Naziv: String</text><rect fill="none" height="6" style="stroke:#C82930;stroke-width:1.0;" width="6" x="131.5" y="618.0234"/><text fill="#000000" font-family="sans-serif" font-size="14" lengthAdjust="spacing" textLength="148" x="143.5" y="625.252">Departman: Departman</text><rect fill="none" height="6" style="stroke:#C82930;stroke-width:1.0;" width="6" x="131.5" y="635.6328"/><text fill="#000000" font-family="sans-serif" font-size="14" lengthAdjust="spacing" textLength="116" x="143.5" y="642.8613">Profesor: Profesor</text><rect fill="none" height="6" style="stroke:#C82930;stroke-width:1.0;" width="6" x="131.5" y="653.2422"/><text fill="#000000" font-family="sans-serif" font-size="14" lengthAdjust="spacing" textLength="107" x="143.5" y="660.4707">Raspored: String</text><rect fill="none" height="6" style="stroke:#C82930;stroke-width:1.0;" width="6" x="131.5" y="670.8516"/><text fill="#000000" font-family="sans-serif" font-size="14" lengthAdjust="spacing" textLength="90" x="143.5" y="678.0801">Broj_upisa: Int</text><rect fill="none" height="6" style="stroke:#C82930;stroke-width:1.0;" width="6" x="131.5" y="688.4609"/><text fill="#000000" font-family="sans-serif" font-size="14" lengthAdjust="spacing" textLength="149" x="143.5" y="695.6895">Preduslovi: List&lt;String&gt;</text><line style="stroke:#181818;stroke-width:0.5;" x1="124.5" x2="297.5" y1="702.7656" y2="702.7656"/></g><!--class Entity--><g id="elem_Entity"><rect codeLine="2" fill="#F1F1F1" height="65.6094" id="Entity" rx="2.5" ry="2.5" style="stroke:#181818;stroke-width:0.5;" width="84" x="7" y="103.5"/><ellipse cx="29.65" cy="119.5" fill="#A9DCDF" rx="11" ry="11" style="stroke:#181818;stroke-width:1.0;"/><path d="M31.8375,121.2656 L27.6969,121.2656 L27.275,122.2969 L27.6969,122.2969 Q28.3063,122.2969 28.5719,122.5313 Q28.8375,122.7656 28.8375,123.1563 Q28.8375,123.5313 28.5719,123.7656 Q28.3063,124 27.6969,124 L25.4,124 Q24.7906,124 24.5328,123.7656 Q24.275,123.5313 24.275,123.1406 Q24.275,122.7656 24.5484,122.5234 Q24.8219,122.2813 25.4469,122.2969 L28.1188,115.6406 L27.0094,115.6406 Q26.4,115.6406 26.1344,115.4063 Q25.8688,115.1719 25.8688,114.7813 Q25.8688,114.4063 26.1344,114.1719 Q26.4,113.9375 27.0094,113.9375 L30.6813,113.9375 L34.0719,122.2969 Q34.6656,122.2969 34.8531,122.4375 Q35.2438,122.7031 35.2438,123.1563 Q35.2438,123.5313 34.9859,123.7656 Q34.7281,124 34.1188,124 L31.8219,124 Q31.2125,124 30.9469,123.7656 Q30.6813,123.5313 30.6813,123.1406 Q30.6813,122.7656 30.9469,122.5313 Q31.2125,122.2969 31.8219,122.2969 L32.2438,122.2969 L31.8375,121.2656 Z M31.1188,119.5625 L29.7594,116.1875 L28.3844,119.5625 L31.1188,119.5625 Z " fill="#000000"/><text fill="#000000" font-family="sans-serif" font-size="14" font-style="italic" lengthAdjust="spacing" textLength="35" x="45.35" y="125.2285">Entity</text><line style="stroke:#181818;stroke-width:0.5;" x1="8" x2="90" y1="135.5" y2="135.5"/><rect fill="none" height="6" style="stroke:#C82930;stroke-width:1.0;" width="6" x="15" y="146.8047"/><text fill="#000000" font-family="sans-serif" font-size="14" lengthAdjust="spacing" textLength="58" x="27" y="154.0332">ID: String</text><line style="stroke:#181818;stroke-width:0.5;" x1="8" x2="90" y1="161.1094" y2="161.1094"/></g><!--class Ispit--><g id="elem_Ispit"><rect codeLine="107" fill="#F1F1F1" height="153.6563" id="Ispit" rx="2.5" ry="2.5" style="stroke:#181818;stroke-width:0.5;" width="140" x="610" y="788"/><ellipse cx="663.25" cy="804" fill="#ADD1B2" rx="11" ry="11" style="stroke:#181818;stroke-width:1.0;"/><path d="M666.0156,799.875 Q666.1719,799.6563 666.3594,799.5469 Q666.5469,799.4375 666.7656,799.4375 Q667.1406,799.4375 667.375,799.6953 Q667.6094,799.9531 667.6094,800.5625 L667.6094,802.0156 Q667.6094,802.625 667.375,802.8906 Q667.1406,803.1563 666.7656,803.1563 Q666.4219,803.1563 666.2188,802.9531 Q666.0156,802.7656 665.9063,802.25 Q665.8594,801.8906 665.6719,801.7031 Q665.3438,801.3281 664.7344,801.1094 Q664.125,800.8906 663.5,800.8906 Q662.7344,800.8906 662.1016,801.2188 Q661.4688,801.5469 660.9766,802.2969 Q660.4844,803.0469 660.4844,804.0781 L660.4844,805.1719 Q660.4844,806.4063 661.375,807.2266 Q662.2656,808.0469 663.8594,808.0469 Q664.7969,808.0469 665.4531,807.7969 Q665.8438,807.6406 666.2656,807.2031 Q666.5313,806.9375 666.6797,806.8594 Q666.8281,806.7813 667.0313,806.7813 Q667.3594,806.7813 667.6172,807.0391 Q667.875,807.2969 667.875,807.6406 Q667.875,807.9844 667.5313,808.3906 Q667.0313,808.9688 666.2344,809.2969 Q665.1563,809.75 663.8594,809.75 Q662.3438,809.75 661.1406,809.125 Q660.1563,808.625 659.4688,807.5547 Q658.7813,806.4844 658.7813,805.2031 L658.7813,804.0469 Q658.7813,802.7188 659.3984,801.5703 Q660.0156,800.4219 661.1094,799.8047 Q662.2031,799.1875 663.4375,799.1875 Q664.1719,799.1875 664.8203,799.3516 Q665.4688,799.5156 666.0156,799.875 Z " fill="#000000"/><text fill="#000000" font-family="sans-serif" font-size="14" lengthAdjust="spacing" textLength="25" x="683.75" y="809.7285">Ispit</text><line style="stroke:#181818;stroke-width:0.5;" x1="611" x2="749" y1="820" y2="820"/><rect fill="none" height="6" style="stroke:#C82930;stroke-width:1.0;" width="6" x="618" y="831.3047"/><text fill="#000000" font-family="sans-serif" font-size="14" lengthAdjust="spacing" textLength="58" x="630" y="838.5332">ID: String</text><rect fill="none" height="6" style="stroke:#C82930;stroke-width:1.0;" width="6" x="618" y="848.9141"/><text fill="#000000" font-family="sans-serif" font-size="14" lengthAdjust="spacing" textLength="106" x="630" y="856.1426">Student: Student</text><rect fill="none" height="6" style="stroke:#C82930;stroke-width:1.0;" width="6" x="618" y="866.5234"/><text fill="#000000" font-family="sans-serif" font-size="14" lengthAdjust="spacing" textLength="114" x="630" y="873.752">Predmet: Predmet</text><rect fill="none" height="6" style="stroke:#C82930;stroke-width:1.0;" width="6" x="618" y="884.1328"/><text fill="#000000" font-family="sans-serif" font-size="14" lengthAdjust="spacing" textLength="79" x="630" y="891.3613">Datum: Date</text><rect fill="none" height="6" style="stroke:#C82930;stroke-width:1.0;" width="6" x="618" y="901.7422"/><text fill="#000000" font-family="sans-serif" font-size="14" lengthAdjust="spacing" textLength="85" x="630" y="908.9707">Status: String</text><rect fill="none" height="6" style="stroke:#C82930;stroke-width:1.0;" width="6" x="618" y="919.3516"/><text fill="#000000" font-family="sans-serif" font-size="14" lengthAdjust="spacing" textLength="94" x="630" y="926.5801">Ocena: Integer</text><line style="stroke:#181818;stroke-width:0.5;" x1="611" x2="749" y1="933.6563" y2="933.6563"/></g><!--link Univerzitet to StudentskaSluzba--><g id="link_Univerzitet_StudentskaSluzba"><path codeLine="95" d="M688,231.22 C688,260.23 688,291.34 688,317.22 " fill="none" id="Univerzitet-StudentskaSluzba" style="stroke:#181818;stroke-width:1.0;"/><text fill="#000000" font-family="sans-serif" font-size="13" lengthAdjust="spacing" textLength="7" x="680.743" y="252.2761">1</text><text fill="#000000" font-family="sans-serif" font-size="13" lengthAdjust="spacing" textLength="7" x="680.5734" y="306.5101">1</text></g><!--link StudentskaSluzba to Administrator--><g id="link_StudentskaSluzba_Administrator"><path codeLine="96" d="M686.11,435.6 C684.75,477.74 682.92,534.12 681.62,574.2 " fill="none" id="StudentskaSluzba-Administrator" style="stroke:#181818;stroke-width:1.0;"/><text fill="#000000" font-family="sans-serif" font-size="13" lengthAdjust="spacing" textLength="7" x="678.4531" y="457.2677">1</text><text fill="#000000" font-family="sans-serif" font-size="13" lengthAdjust="spacing" textLength="5" x="676.4963" y="563.4632">*</text></g><!--link Univerzitet to Student--><g id="link_Univerzitet_Student"><path codeLine="97" d="M806.35,166.98 C870.3,189.59 943.8,227.97 982,291 C1023.89,360.13 1006.99,451.93 982.65,521.63 " fill="none" id="Univerzitet-Student" style="stroke:#181818;stroke-width:1.0;"/><text fill="#000000" font-family="sans-serif" font-size="13" lengthAdjust="spacing" textLength="7" x="814.156" y="165.9305">1</text><text fill="#000000" font-family="sans-serif" font-size="13" lengthAdjust="spacing" textLength="20" x="965.227" y="511.2897">1..*</text></g><!--link Univerzitet to Departman--><g id="link_Univerzitet_Departman"><path codeLine="98" d="M597.82,231.22 C573.04,256.98 546.66,284.39 523.63,308.33 " fill="none" id="Univerzitet-Departman" style="stroke:#181818;stroke-width:1.0;"/><text fill="#000000" font-family="sans-serif" font-size="13" lengthAdjust="spacing" textLength="7" x="583.9404" y="252.2761">1</text><text fill="#000000" font-family="sans-serif" font-size="13" lengthAdjust="spacing" textLength="20" x="509.6052" y="297.5107">1..*</text></g><!--link Departman to Profesor--><g id="link_Departman_Profesor"><path codeLine="99" d="M449.48,444.53 C445.74,470.91 441.37,501.65 437.32,530.17 " fill="none" id="Departman-Profesor" style="stroke:#181818;stroke-width:1.0;"/><text fill="#000000" font-family="sans-serif" font-size="13" lengthAdjust="spacing" textLength="7" x="441.1373" y="465.8814">1</text><text fill="#000000" font-family="sans-serif" font-size="13" lengthAdjust="spacing" textLength="20" x="417.5846" y="519.4898">1..*</text></g><!--link Departman to Predmet--><g id="link_Departman_Predmet"><path codeLine="100" d="M391.56,444.53 C362.16,473.76 327.35,508.35 296.19,539.33 " fill="none" id="Departman-Predmet" style="stroke:#181818;stroke-width:1.0;"/><text fill="#000000" font-family="sans-serif" font-size="13" lengthAdjust="spacing" textLength="7" x="377.2443" y="465.8814">1</text><text fill="#000000" font-family="sans-serif" font-size="13" lengthAdjust="spacing" textLength="20" x="282.6516" y="528.779">1..*</text></g><!--reverse link Korisnik to Student--><g id="link_Korisnik_Student"><path codeLine="102" d="M903.8512,479.8977 C908.1412,499.1177 908.81,502.15 913.24,522 " fill="none" id="Korisnik-backto-Student" style="stroke:#181818;stroke-width:1.0;"/><polygon fill="none" points="899.93,462.33,897.9953,481.2048,909.7071,478.5906,899.93,462.33" style="stroke:#181818;stroke-width:1.0;"/></g><!--reverse link Korisnik to Profesor--><g id="link_Korisnik_Profesor"><path codeLine="103" d="M782.6886,461.4522 C776.8286,465.2022 786.02,458.96 780,462 C679.15,512.91 632.4,468.31 533,522 C526.73,525.39 520.55,529.22 514.51,533.37 " fill="none" id="Korisnik-backto-Profesor" style="stroke:#181818;stroke-width:1.0;"/><polygon fill="none" points="797.85,451.75,779.4546,456.3984,785.9227,466.506,797.85,451.75" style="stroke:#181818;stroke-width:1.0;"/></g><!--reverse link Korisnik to Administrator--><g id="link_Korisnik_Administrator"><path codeLine="104" d="M800.4529,476.2785 C770.0129,513.5985 746.7,542.2 720.55,574.27 " fill="none" id="Korisnik-backto-Administrator" style="stroke:#181818;stroke-width:1.0;"/><polygon fill="none" points="811.83,462.33,795.8034,472.4862,805.1024,480.0709,811.83,462.33" style="stroke:#181818;stroke-width:1.0;"/></g><!--link Student to Ispit--><g id="link_Student_Ispit"><path codeLine="116" d="M851.78,728.17 C843.96,736.45 835.97,744.5 828,752 C804.06,774.52 775.71,796.88 750.25,815.62 " fill="none" id="Student-Ispit" style="stroke:#181818;stroke-width:1.0;"/></g><!--link Profesor to Ispit--><g id="link_Profesor_Ispit"><path codeLine="117" d="M501.07,719.56 C511.46,730.82 522.25,741.9 533,752 C556.73,774.3 584.75,796.52 609.93,815.23 " fill="none" id="Profesor-Ispit" style="stroke:#181818;stroke-width:1.0;"/></g><!--link Asistent to Predmet--><g id="link_Asistent_Predmet"><path codeLine="118" d="M213.4,427.09 C213.01,459.14 212.49,501.7 212.03,539.04 " fill="none" id="Asistent-Predmet" style="stroke:#181818;stroke-width:1.0;"/></g><!--SRC=[jLPHRzem47xdLrWyRPsejDUegaG5cn1TgGYyx2Kw4fSTYUt8Tf2MRVzzZaDCl9WMLHeln7VdyzrttvqDEwKbf9ga1IX5vboZ_ab-ZOZvJSXY5f5OI-JxqP_Hg8GqXpqbunYLfepKG5uWhmfDzVYqfVMovNYaiaQZECa7xix29wZn690_YXnIF410zLLao24Hofm3l35PSDtJFqXnI9IkCif1XxL2YLqnt1bhq9LA89SqGzsSJmFdFmjUPGVACIcbs4jW6957WybTQtblJGrWPqIMGgA9DdyRZWKBdYXfZK7DoNEQYoHiC6U0HK0-CvcoH0e3KeE3ML8F_HfvxeD_oeZoYf4DbbrEq4igtcndywUDMp-lLr_cyMhj1DFPjyNJ8jwifvkUzBGjNawJ-77x_M4wH32svRo2Jp6ZyZ9d6bRWiEup0qDXAve95dAgiQIytRaJed2gJwOqHdh4XIfHV_ZOKwooiDniC56Kk8J2k0HPMHC8sfYwPz1m75bduA7oBCKBLKA-3KlZYL7TCVMqlEyp2NXA2v2Xdlj4bfAYX4CWJPsR3XxAjqqBhK6LmdpyDm2cgfb5r_2YWofoNrUY4wAXoY4kgde7xvzlgvPnmG5ZHrGDfL068VnnPgkVUyQGOpE_zJKCM4F6HSAeqYB8S3-nQ20P1Z2Z9KZDWByVXPY-10iIspvL-QiZjdEjD1nDQkrCfww6hTFxKDVOyhu_QfTuTFwybcfTIrmgko6z6iod9k9A5UBuoatJltN7dyTaCh5_mJ8EQDnjk1dxjBhi-VRsnZb_myh7wCmQtyh3whAHBLsRiRjLxtvF9builiRpxAlyP0sIBKFiH0ezWxncYRmptHI9N9IzcxPtmtRFZ7-ShbBpNB65ftjgO-dkF1Ed3MZanhsJkFatSSUF_W80]--></g></svg>