<?xml version="1.0" encoding="us-ascii" standalone="no"?><svg xmlns="http://www.w3.org/2000/svg" xmlns:xlink="http://www.w3.org/1999/xlink" contentStyleType="text/css" height="1172px" preserveAspectRatio="none" style="width:407px;height:1172px;background:#FFFFFF;" version="1.1" viewBox="0 0 407 1172" width="407px" zoomAndPan="magnify"><defs/><g><!--cluster Univerzitet--><g id="cluster_Univerzitet"><rect fill="none" height="372" rx="2.5" ry="2.5" style="stroke:#181818;stroke-width:1.0;" width="225" x="171.5" y="794"/><text fill="#000000" font-family="sans-serif" font-size="14" font-weight="bold" lengthAdjust="spacing" textLength="77" x="245.5" y="810.5332">Univerzitet</text></g><!--cluster Predmet--><g id="cluster_Predmet"><rect fill="none" height="230" rx="2.5" ry="2.5" style="stroke:#181818;stroke-width:1.0;" width="234" x="167" y="540"/><text fill="#000000" font-family="sans-serif" font-size="14" font-weight="bold" lengthAdjust="spacing" textLength="59" x="254.5" y="556.5332">Predmet</text></g><!--cluster Studentska Sluzba--><g id="cluster_Studentska Sluzba"><rect fill="none" height="509" rx="2.5" ry="2.5" style="stroke:#181818;stroke-width:1.0;" width="210" x="179" y="7"/><text fill="#000000" font-family="sans-serif" font-size="14" font-weight="bold" lengthAdjust="spacing" textLength="129" x="219.5" y="23.5332">Studentska Sluzba</text></g><g id="elem_PrijaviIspit"><ellipse cx="283.9297" cy="846.0784" fill="#F1F1F1" rx="59.4297" ry="15.5784" style="stroke:#181818;stroke-width:0.5;"/><text fill="#000000" font-family="sans-serif" font-size="14" lengthAdjust="spacing" textLength="67" x="247.4297" y="850.595">Prijavi Ispit</text></g><g id="elem_OdjaviIspit"><ellipse cx="283.9074" cy="912.0891" fill="#F1F1F1" rx="60.9074" ry="15.5891" style="stroke:#181818;stroke-width:0.5;"/><text fill="#000000" font-family="sans-serif" font-size="14" lengthAdjust="spacing" textLength="69" x="246.4074" y="916.6057">Odjavi Ispit</text></g><g id="elem_KalendarIspita"><ellipse cx="284.011" cy="984.2022" fill="#F1F1F1" rx="96.511" ry="21.7022" style="stroke:#181818;stroke-width:0.5;"/><text fill="#000000" font-family="sans-serif" font-size="14" lengthAdjust="spacing" textLength="153" x="207.511" y="987.9307">Pristupi Kalendaru Ispita</text></g><g id="elem_Predavanja"><ellipse cx="284.035" cy="1060.807" fill="#F1F1F1" rx="89.535" ry="20.307" style="stroke:#181818;stroke-width:0.5;"/><text fill="#000000" font-family="sans-serif" font-size="14" lengthAdjust="spacing" textLength="137" x="215.535" y="1064.5355">Pristupi Predavanjima</text></g><g id="elem_PlatiSkolarinu"><ellipse cx="283.8567" cy="1133.0713" fill="#F1F1F1" rx="70.8567" ry="16.5713" style="stroke:#181818;stroke-width:0.5;"/><text fill="#000000" font-family="sans-serif" font-size="14" lengthAdjust="spacing" textLength="90" x="235.8567" y="1137.5879">Plati Skolarinu</text></g><g id="elem_KreirajIspit"><ellipse cx="284.1463" cy="738.0942" fill="#F1F1F1" rx="61.6463" ry="15.5942" style="stroke:#181818;stroke-width:0.5;"/><text fill="#000000" font-family="sans-serif" font-size="14" lengthAdjust="spacing" textLength="70" x="246.1463" y="742.6108">Kreiraj Ispit</text></g><g id="elem_OtkaziIspit"><ellipse cx="284.1685" cy="672.0838" fill="#F1F1F1" rx="60.1685" ry="15.5838" style="stroke:#181818;stroke-width:0.5;"/><text fill="#000000" font-family="sans-serif" font-size="14" lengthAdjust="spacing" textLength="68" x="247.1685" y="676.6004">Otkazi Ispit</text></g><g id="elem_KreirajKolokvijum"><ellipse cx="283.9506" cy="599.0901" fill="#F1F1F1" rx="100.9506" ry="22.5901" style="stroke:#181818;stroke-width:0.5;"/><text fill="#000000" font-family="sans-serif" font-size="14" lengthAdjust="spacing" textLength="163" x="202.4506" y="602.8186">Upravljanje Kolokvijumima</text></g><g id="elem_KreirajProfesora"><ellipse cx="284.1203" cy="127.8241" fill="#F1F1F1" rx="77.1203" ry="17.8241" style="stroke:#181818;stroke-width:0.5;"/><text fill="#000000" font-family="sans-serif" font-size="14" lengthAdjust="spacing" textLength="107" x="228.2783" y="132.1856">Kreiraj Profesora</text></g><g id="elem_KreirajStudenta"><ellipse cx="284.2256" cy="198.9451" fill="#F1F1F1" rx="75.2256" ry="17.4451" style="stroke:#181818;stroke-width:0.5;"/><text fill="#000000" font-family="sans-serif" font-size="14" lengthAdjust="spacing" textLength="102" x="230.2256" y="203.4617">Kreiraj Studenta</text></g><g id="elem_KreirajAdmina"><ellipse cx="284.105" cy="480.221" fill="#F1F1F1" rx="89.105" ry="20.221" style="stroke:#181818;stroke-width:0.5;"/><text fill="#000000" font-family="sans-serif" font-size="14" lengthAdjust="spacing" textLength="136" x="216.105" y="483.9495">Kreiraj Administratora</text></g><g id="elem_KreirajAsistenta"><ellipse cx="284.1002" cy="269.02" fill="#F1F1F1" rx="75.6002" ry="17.52" style="stroke:#181818;stroke-width:0.5;"/><text fill="#000000" font-family="sans-serif" font-size="14" lengthAdjust="spacing" textLength="103" x="229.6002" y="273.5366">Kreiraj Asistenta</text></g><g id="elem_DodajPredmet"><ellipse cx="283.7859" cy="338.8572" fill="#F1F1F1" rx="72.2859" ry="16.8572" style="stroke:#181818;stroke-width:0.5;"/><text fill="#000000" font-family="sans-serif" font-size="14" lengthAdjust="spacing" textLength="94" x="233.7859" y="343.3738">Dodaj Predmet</text></g><g id="elem_ObrisiPredmet"><ellipse cx="283.7859" cy="407.8572" fill="#F1F1F1" rx="72.2859" ry="16.8572" style="stroke:#181818;stroke-width:0.5;"/><text fill="#000000" font-family="sans-serif" font-size="14" lengthAdjust="spacing" textLength="94" x="233.7859" y="412.3738">Obrisi Predmet</text></g><g id="elem_UvidProfil"><ellipse cx="283.841" cy="59.1182" fill="#F1F1F1" rx="65.341" ry="15.6182" style="stroke:#181818;stroke-width:0.5;"/><text fill="#000000" font-family="sans-serif" font-size="14" lengthAdjust="spacing" textLength="75" x="243.341" y="63.6348">Uvid u Profil</text></g><!--entity StudentAlias--><g id="elem_StudentAlias"><ellipse cx="64.5" cy="953.5" fill="#F1F1F1" rx="8" ry="8" style="stroke:#181818;stroke-width:0.5;"/><path d="M64.5,961.5 L64.5,988.5 M51.5,969.5 L77.5,969.5 M64.5,988.5 L51.5,1003.5 M64.5,988.5 L77.5,1003.5 " fill="none" style="stroke:#181818;stroke-width:0.5;"/><text fill="#000000" font-family="sans-serif" font-size="14" lengthAdjust="spacing" textLength="49" x="40" y="1019.5332">Student</text></g><!--entity ProfesorAlias--><g id="elem_ProfesorAlias"><ellipse cx="64.5" cy="618.5" fill="#F1F1F1" rx="8" ry="8" style="stroke:#181818;stroke-width:0.5;"/><path d="M64.5,626.5 L64.5,653.5 M51.5,634.5 L77.5,634.5 M64.5,653.5 L51.5,668.5 M64.5,653.5 L77.5,668.5 " fill="none" style="stroke:#181818;stroke-width:0.5;"/><text fill="#000000" font-family="sans-serif" font-size="14" lengthAdjust="spacing" textLength="54" x="37.5" y="684.5332">Profesor</text></g><!--entity AdminAlias--><g id="elem_AdminAlias"><ellipse cx="64.5" cy="203.5" fill="#F1F1F1" rx="8" ry="8" style="stroke:#181818;stroke-width:0.5;"/><path d="M64.5,211.5 L64.5,238.5 M51.5,219.5 L77.5,219.5 M64.5,238.5 L51.5,253.5 M64.5,238.5 L77.5,253.5 " fill="none" style="stroke:#181818;stroke-width:0.5;"/><text fill="#000000" font-family="sans-serif" font-size="14" lengthAdjust="spacing" textLength="83" x="23" y="269.5332">Administrator</text></g><!--entity SluzbaAlias--><g id="elem_SluzbaAlias"><ellipse cx="64.5" cy="449.5" fill="#F1F1F1" rx="8" ry="8" style="stroke:#181818;stroke-width:0.5;"/><path d="M64.5,457.5 L64.5,484.5 M51.5,465.5 L77.5,465.5 M64.5,484.5 L51.5,499.5 M64.5,484.5 L77.5,499.5 " fill="none" style="stroke:#181818;stroke-width:0.5;"/><text fill="#000000" font-family="sans-serif" font-size="14" lengthAdjust="spacing" textLength="117" x="6" y="515.5332">Studentska Sluzba</text></g><!--entity AsistentAlias--><g id="elem_AsistentAlias"><ellipse cx="64.5" cy="731.5" fill="#F1F1F1" rx="8" ry="8" style="stroke:#181818;stroke-width:0.5;"/><path d="M64.5,739.5 L64.5,766.5 M51.5,747.5 L77.5,747.5 M64.5,766.5 L51.5,781.5 M64.5,766.5 L77.5,781.5 " fill="none" style="stroke:#181818;stroke-width:0.5;"/><text fill="#000000" font-family="sans-serif" font-size="14" lengthAdjust="spacing" textLength="50" x="39.5" y="797.5332">Asistent</text></g><!--link StudentAlias to PrijaviIspit--><g id="link_StudentAlias_PrijaviIspit"><path d="M89.05,948.14 C105.93,925.16 130.62,896.46 159,879 C180.53,865.75 201.4741,858.9742 224.6541,854.1842 " fill="none" id="StudentAlias-to-PrijaviIspit" style="stroke:#181818;stroke-width:1.0;"/><polygon fill="#181818" points="230.53,852.97,220.9067,850.8741,225.6335,853.9818,222.5257,858.7086,230.53,852.97" style="stroke:#181818;stroke-width:1.0;"/></g><!--link StudentAlias to OdjaviIspit--><g id="link_StudentAlias_OdjaviIspit"><path d="M89.37,972.99 C108.06,964.63 134.85,953.21 159,945 C184.94,936.18 208.7557,929.6614 232.5557,923.7714 " fill="none" id="StudentAlias-to-OdjaviIspit" style="stroke:#181818;stroke-width:1.0;"/><polygon fill="#181818" points="238.38,922.33,228.6826,920.6092,233.5264,923.5312,230.6045,928.3749,238.38,922.33" style="stroke:#181818;stroke-width:1.0;"/></g><!--link StudentAlias to KalendarIspita--><g id="link_StudentAlias_KalendarIspita"><path d="M89.19,984 C112.97,984 145.18,984 181.41,984 " fill="none" id="StudentAlias-to-KalendarIspita" style="stroke:#181818;stroke-width:1.0;"/><polygon fill="#181818" points="187.41,984,178.41,980,182.41,984,178.41,988,187.41,984" style="stroke:#181818;stroke-width:1.0;"/></g><!--link StudentAlias to Predavanja--><g id="link_StudentAlias_Predavanja"><path d="M89.07,994.59 C107.83,1002.83 134.85,1014.28 159,1023 C181.03,1030.95 199.8714,1036.9913 221.3114,1043.4013 " fill="none" id="StudentAlias-to-Predavanja" style="stroke:#181818;stroke-width:1.0;"/><polygon fill="#181818" points="227.06,1045.12,219.5829,1038.7096,222.2695,1043.6878,217.2913,1046.3744,227.06,1045.12" style="stroke:#181818;stroke-width:1.0;"/></g><!--link StudentAlias to PlatiSkolarinu--><g id="link_StudentAlias_PlatiSkolarinu"><path d="M88.37,1023.24 C104.95,1048.39 129.58,1079.81 159,1099 C178.07,1111.44 195.7886,1117.9896 217.2286,1123.0196 " fill="none" id="StudentAlias-to-PlatiSkolarinu" style="stroke:#181818;stroke-width:1.0;"/><polygon fill="#181818" points="223.07,1124.39,215.2215,1118.4401,218.2022,1123.248,213.3943,1126.2286,223.07,1124.39" style="stroke:#181818;stroke-width:1.0;"/></g><!--link ProfesorAlias to KreirajIspit--><g id="link_ProfesorAlias_KreirajIspit"><path d="M91.85,667.51 C110.02,679.58 135.12,694.91 159,705 C183.32,715.28 205.8456,721.7523 229.3056,727.2023 " fill="none" id="ProfesorAlias-to-KreirajIspit" style="stroke:#181818;stroke-width:1.0;"/><polygon fill="#181818" points="235.15,728.56,227.2886,722.6272,230.2797,727.4286,225.4783,730.4197,235.15,728.56" style="stroke:#181818;stroke-width:1.0;"/></g><!--link ProfesorAlias to OtkaziIspit--><g id="link_ProfesorAlias_OtkaziIspit"><path d="M91.74,651.77 C125.29,655.32 178.3132,660.9294 221.9332,665.5394 " fill="none" id="ProfesorAlias-to-OtkaziIspit" style="stroke:#181818;stroke-width:1.0;"/><polygon fill="#181818" points="227.9,666.17,219.3702,661.2463,222.9277,665.6445,218.5294,669.2019,227.9,666.17" style="stroke:#181818;stroke-width:1.0;"/></g><!--link ProfesorAlias to KreirajKolokvijum--><g id="link_ProfesorAlias_KreirajKolokvijum"><path d="M91.74,642.97 C121.56,636.11 165.6326,625.9845 206.9926,616.4745 " fill="none" id="ProfesorAlias-to-KreirajKolokvijum" style="stroke:#181818;stroke-width:1.0;"/><polygon fill="#181818" points="212.84,615.13,203.1725,613.2485,207.9672,616.2504,204.9652,621.045,212.84,615.13" style="stroke:#181818;stroke-width:1.0;"/></g><!--link AdminAlias to KreirajProfesora--><g id="link_AdminAlias_KreirajProfesora"><path d="M106.2,198.5 C121.89,186.22 140.49,173.23 159,164 C179.96,153.55 198.668,147.1588 220.338,141.4488 " fill="none" id="AdminAlias-to-KreirajProfesora" style="stroke:#181818;stroke-width:1.0;"/><polygon fill="#181818" points="226.14,139.92,216.4179,138.3452,221.305,141.194,218.4563,146.0812,226.14,139.92" style="stroke:#181818;stroke-width:1.0;"/></g><!--link AdminAlias to KreirajStudenta--><g id="link_AdminAlias_KreirajStudenta"><path d="M106.15,227.46 C138.61,222.23 178.6961,215.7823 215.6461,209.8423 " fill="none" id="AdminAlias-to-KreirajStudenta" style="stroke:#181818;stroke-width:1.0;"/><polygon fill="#181818" points="221.57,208.89,212.0492,206.3692,216.6334,209.6836,213.319,214.2678,221.57,208.89" style="stroke:#181818;stroke-width:1.0;"/></g><!--link AdminAlias to KreirajAsistenta--><g id="link_AdminAlias_KreirajAsistenta"><path d="M106.15,240.54 C138.61,245.77 178.6961,252.2177 215.6461,258.1577 " fill="none" id="AdminAlias-to-KreirajAsistenta" style="stroke:#181818;stroke-width:1.0;"/><polygon fill="#181818" points="221.57,259.11,213.319,253.7322,216.6334,258.3164,212.0492,261.6308,221.57,259.11" style="stroke:#181818;stroke-width:1.0;"/></g><!--link AdminAlias to DodajPredmet--><g id="link_AdminAlias_DodajPredmet"><path d="M106.17,269.57 C121.85,281.86 140.46,294.84 159,304 C180.56,314.65 200.0604,321.0698 222.1804,326.6198 " fill="none" id="AdminAlias-to-DodajPredmet" style="stroke:#181818;stroke-width:1.0;"/><polygon fill="#181818" points="228,328.08,220.244,322.01,223.1503,326.8632,218.2971,329.7695,228,328.08" style="stroke:#181818;stroke-width:1.0;"/></g><!--link AdminAlias to ObrisiPredmet--><g id="link_AdminAlias_ObrisiPredmet"><path d="M82.46,273.23 C97.99,304.66 123.91,347.58 159,373 C177.12,386.12 194.1696,392.9137 215.3296,398.0537 " fill="none" id="AdminAlias-to-ObrisiPredmet" style="stroke:#181818;stroke-width:1.0;"/><polygon fill="#181818" points="221.16,399.47,213.3585,393.4586,216.3013,398.2898,211.4701,401.2325,221.16,399.47" style="stroke:#181818;stroke-width:1.0;"/></g><!--link AdminAlias to UvidProfil--><g id="link_AdminAlias_UvidProfil"><path d="M81.69,194.76 C96.98,162.48 122.96,117.97 159,92 C178.07,78.26 196.6101,71.4825 218.7201,66.8025 " fill="none" id="AdminAlias-to-UvidProfil" style="stroke:#181818;stroke-width:1.0;"/><polygon fill="#181818" points="224.59,65.56,214.9568,63.5104,219.6984,66.5954,216.6134,71.337,224.59,65.56" style="stroke:#181818;stroke-width:1.0;"/></g><!--link SluzbaAlias to KreirajAdmina--><g id="link_SluzbaAlias_KreirajAdmina"><path d="M123.21,480 C145.11,480 164.58,480 188.66,480 " fill="none" id="SluzbaAlias-to-KreirajAdmina" style="stroke:#181818;stroke-width:1.0;"/><polygon fill="#181818" points="194.66,480,185.66,476,189.66,480,185.66,484,194.66,480" style="stroke:#181818;stroke-width:1.0;"/></g><!--link AsistentAlias to KreirajIspit--><g id="link_AsistentAlias_KreirajIspit"><path d="M89.61,759.34 C122.57,755.7 176.7062,749.7282 221.1962,744.8182 " fill="none" id="AsistentAlias-to-KreirajIspit" style="stroke:#181818;stroke-width:1.0;"/><polygon fill="#181818" points="227.16,744.16,217.7755,741.1714,222.1902,744.7085,218.6531,749.1231,227.16,744.16" style="stroke:#181818;stroke-width:1.0;"/></g><!--SRC=[TLJBRiCW4Bpp5IZt_4AbIBrKEJHIb0_On2HTcq34muTK_VVQF6mlnZx1pEoox8wHukwuqzpWuyVn1esuETIACRWvRVZkx7mZbDjni3oj3nB1Plvaz5rORO8WRuZYq3nHeNK6N985X6XIPji1Fql_la8yBonfCZjaolNaJLImiNHG3oduxgAm5-QDJWpANyQ7prjn0ol6Yh657lcNVQ5BPGSa05JxtHJI25IKGmxh_0lv4QHG3HWVe-9DCXYXZSYJ4Gtqe5fyGgeh0MM418Vyt6a91fMFsX6R8FP7sZ4cUbPQSJG23RIB-oMarWhNmPkq8W0LvULbe9VjKBVWHorrrsFhd_bIwOIPOAoejcA6ZRgptqZc2Qp7fEma96Fr269W4XUOhQXaJXgGGHhpgPjmcpIbGH-G11Hpk0v-GIAEK5LzwR7XFZGAPH2FIDoERL_-qdo__w3_mefTsdz55YQlf9xilEQeVHbvIMBsfJFNzDADcy74TFChj9JCxgdparNgz3pWWYS3BJWwlu9Sp8ij7aHoQBGX8-_Xkcd_]--></g></svg>