<svg xmlns="http://www.w3.org/2000/svg" xmlns:xlink="http://www.w3.org/1999/xlink" contentStyleType="text/css" data-diagram-type="DESCRIPTION" height="1219px" preserveAspectRatio="none" style="width:427px;height:1219px;background:#FFFFFF;" version="1.1" viewBox="0 0 427 1219" width="427px" zoomAndPan="magnify"><defs/><g><!--cluster Univerzitet--><g class="cluster" data-entity="Univerzitet" data-source-line="9" data-uid="ent0007" id="cluster_Univerzitet"><rect fill="none" height="434" rx="2.5" ry="2.5" style="stroke:#181818;stroke-width:1;" width="227.35" x="187.29" y="779"/><text fill="#000000" font-family="sans-serif" font-size="14" font-weight="bold" lengthAdjust="spacing" textLength="87.4863" x="257.2218" y="793.9951">Univerzitet</text></g><!--cluster Predmet--><g class="cluster" data-entity="Predmet" data-source-line="18" data-uid="ent0014" id="cluster_Predmet"><rect fill="none" height="226" rx="2.5" ry="2.5" style="stroke:#181818;stroke-width:1;" width="241.91" x="180.01" y="529"/><text fill="#000000" font-family="sans-serif" font-size="14" font-weight="bold" lengthAdjust="spacing" textLength="67.457" x="267.2365" y="543.9951">Predmet</text></g><!--cluster Studentska Sluzba--><g class="cluster" data-entity="Studentska Sluzba" data-source-line="26" data-uid="ent0018" id="cluster_Studentska Sluzba"><rect fill="none" height="498" rx="2.5" ry="2.5" style="stroke:#181818;stroke-width:1;" width="212.56" x="194.68" y="7"/><text fill="#000000" font-family="sans-serif" font-size="14" font-weight="bold" lengthAdjust="spacing" textLength="147.3486" x="227.2857" y="21.9951">Studentska Sluzba</text></g><!--entity PrijaviIspit--><g class="entity" data-entity="PrijaviIspit" data-source-line="10" data-uid="ent0008" id="entity_PrijaviIspit"><ellipse cx="300.9554" cy="1182.0036" fill="#F1F1F1" rx="57.3554" ry="14.5236" style="stroke:#181818;stroke-width:0.5;"/><text fill="#000000" font-family="sans-serif" font-size="14" lengthAdjust="spacing" textLength="76.8701" x="262.5203" y="1186.6521">Prijavi Ispit</text></g><!--entity OdjaviIspit--><g class="entity" data-entity="OdjaviIspit" data-source-line="11" data-uid="ent0009" id="entity_OdjaviIspit"><ellipse cx="300.9612" cy="1118.0036" fill="#F1F1F1" rx="58.6412" ry="14.5236" style="stroke:#181818;stroke-width:0.5;"/><text fill="#000000" font-family="sans-serif" font-size="14" lengthAdjust="spacing" textLength="78.6885" x="261.6169" y="1122.6521">Odjavi Ispit</text></g><!--entity KalendarIspita--><g class="entity" data-entity="KalendarIspita" data-source-line="12" data-uid="ent0010" id="entity_KalendarIspita"><ellipse cx="300.9644" cy="1047.0049" fill="#F1F1F1" rx="97.6744" ry="21.9349" style="stroke:#181818;stroke-width:0.5;"/><text fill="#000000" font-family="sans-serif" font-size="14" lengthAdjust="spacing" textLength="170.9189" x="215.505" y="1051.6533">Pristupi Kalendaru Ispita</text></g><!--entity Predavanja--><g class="entity" data-entity="Predavanja" data-source-line="13" data-uid="ent0011" id="entity_Predavanja"><ellipse cx="300.9646" cy="970.0029" fill="#F1F1F1" rx="89.6646" ry="20.3329" style="stroke:#181818;stroke-width:0.5;"/><text fill="#000000" font-family="sans-serif" font-size="14" lengthAdjust="spacing" textLength="152.9814" x="224.4739" y="974.6514">Pristupi Predavanjima</text></g><!--entity PlatiSkolarinu--><g class="entity" data-entity="PlatiSkolarinu" data-source-line="14" data-uid="ent0012" id="entity_PlatiSkolarinu"><ellipse cx="300.9596" cy="899.0019" fill="#F1F1F1" rx="67.5596" ry="15.9119" style="stroke:#181818;stroke-width:0.5;"/><text fill="#000000" font-family="sans-serif" font-size="14" lengthAdjust="spacing" textLength="100.1602" x="250.8795" y="903.6504">Plati Skolarinu</text></g><!--entity PrijavaZaPraksu--><g class="entity" data-entity="PrijavaZaPraksu" data-source-line="15" data-uid="ent0013" id="entity_PrijavaZaPraksu"><ellipse cx="300.9599" cy="831.004" fill="#F1F1F1" rx="75.4199" ry="17.484" style="stroke:#181818;stroke-width:0.5;"/><text fill="#000000" font-family="sans-serif" font-size="14" lengthAdjust="spacing" textLength="119.7451" x="241.0874" y="835.6524">Prijava za praksu</text></g><!--entity KreirajIspit--><g class="entity" data-entity="KreirajIspit" data-source-line="19" data-uid="ent0015" id="entity_KreirajIspit"><ellipse cx="300.9591" cy="724.0036" fill="#F1F1F1" rx="59.4291" ry="14.5236" style="stroke:#181818;stroke-width:0.5;"/><text fill="#000000" font-family="sans-serif" font-size="14" lengthAdjust="spacing" textLength="79.8027" x="261.0577" y="728.6521">Kreiraj Ispit</text></g><!--entity OtkaziIspit--><g class="entity" data-entity="OtkaziIspit" data-source-line="20" data-uid="ent0016" id="entity_OtkaziIspit"><ellipse cx="300.959" cy="660.0036" fill="#F1F1F1" rx="58.559" ry="14.5236" style="stroke:#181818;stroke-width:0.5;"/><text fill="#000000" font-family="sans-serif" font-size="14" lengthAdjust="spacing" textLength="78.5723" x="261.6728" y="664.6521">Otkazi Ispit</text></g><!--entity KreirajKolokvijum--><g class="entity" data-entity="KreirajKolokvijum" data-source-line="21" data-uid="ent0017" id="entity_KreirajKolokvijum"><ellipse cx="300.9584" cy="587.0017" fill="#F1F1F1" rx="104.9584" ry="23.3917" style="stroke:#181818;stroke-width:0.5;"/><text fill="#000000" font-family="sans-serif" font-size="14" lengthAdjust="spacing" textLength="186.9287" x="207.494" y="591.6501">Upravljanje Kolokvijumima</text></g><!--entity KreirajProfesora--><g class="entity" data-entity="KreirajProfesora" data-source-line="27" data-uid="ent0019" id="entity_KreirajProfesora"><ellipse cx="300.9612" cy="58.9962" fill="#F1F1F1" rx="74.1312" ry="17.2262" style="stroke:#181818;stroke-width:0.5;"/><text fill="#000000" font-family="sans-serif" font-size="14" lengthAdjust="spacing" textLength="116.6143" x="242.6541" y="63.6447">Kreiraj Profesora</text></g><!--entity KreirajStudenta--><g class="entity" data-entity="KreirajStudenta" data-source-line="28" data-uid="ent0020" id="entity_KreirajStudenta"><ellipse cx="300.9643" cy="396.9969" fill="#F1F1F1" rx="72.9843" ry="16.9969" style="stroke:#181818;stroke-width:0.5;"/><text fill="#000000" font-family="sans-serif" font-size="14" lengthAdjust="spacing" textLength="113.8047" x="244.062" y="401.6453">Kreiraj Studenta</text></g><!--entity KreirajAdmina--><g class="entity" data-entity="KreirajAdmina" data-source-line="29" data-uid="ent0021" id="entity_KreirajAdmina"><ellipse cx="300.9606" cy="468.9961" fill="#F1F1F1" rx="90.2806" ry="20.4561" style="stroke:#181818;stroke-width:0.5;"/><text fill="#000000" font-family="sans-serif" font-size="14" lengthAdjust="spacing" textLength="154.376" x="223.7727" y="473.6446">Kreiraj Administratora</text></g><!--entity KreirajAsistenta--><g class="entity" data-entity="KreirajAsistenta" data-source-line="30" data-uid="ent0022" id="entity_KreirajAsistenta"><ellipse cx="300.958" cy="328.0016" fill="#F1F1F1" rx="73.558" ry="17.1116" style="stroke:#181818;stroke-width:0.5;"/><text fill="#000000" font-family="sans-serif" font-size="14" lengthAdjust="spacing" textLength="115.2129" x="243.3515" y="332.65">Kreiraj Asistenta</text></g><!--entity DodajPredmet--><g class="entity" data-entity="DodajPredmet" data-source-line="31" data-uid="ent0023" id="entity_DodajPredmet"><ellipse cx="300.9624" cy="259.9985" fill="#F1F1F1" rx="69.2924" ry="16.2585" style="stroke:#181818;stroke-width:0.5;"/><text fill="#000000" font-family="sans-serif" font-size="14" lengthAdjust="spacing" textLength="104.5898" x="248.6675" y="264.6469">Dodaj Predmet</text></g><!--entity ObrisiPredmet--><g class="entity" data-entity="ObrisiPredmet" data-source-line="32" data-uid="ent0024" id="entity_ObrisiPredmet"><ellipse cx="300.9559" cy="192.0012" fill="#F1F1F1" rx="69.3059" ry="16.2612" style="stroke:#181818;stroke-width:0.5;"/><text fill="#000000" font-family="sans-serif" font-size="14" lengthAdjust="spacing" textLength="104.624" x="248.6439" y="196.6496">Obrisi Predmet</text></g><!--entity UvidProfil--><g class="entity" data-entity="UvidProfil" data-source-line="33" data-uid="ent0025" id="entity_UvidProfil"><ellipse cx="300.9634" cy="126.0027" fill="#F1F1F1" rx="61.7134" ry="14.7427" style="stroke:#181818;stroke-width:0.5;"/><text fill="#000000" font-family="sans-serif" font-size="14" lengthAdjust="spacing" textLength="84.5537" x="258.6865" y="130.6511">Uvid u Profil</text></g><!--entity StudentAlias--><g class="entity" data-entity="StudentAlias" data-source-line="3" data-uid="ent0002" id="entity_StudentAlias"><ellipse cx="71.0057" cy="978.35" fill="#F1F1F1" rx="8" ry="8" style="stroke:#181818;stroke-width:0.5;"/><path d="M71.0057,986.35 L71.0057,1013.35 M58.0057,994.35 L84.0057,994.35 M71.0057,1013.35 L58.0057,1028.35 M71.0057,1013.35 L84.0057,1028.35" fill="none" style="stroke:#181818;stroke-width:0.5;"/><text fill="#000000" font-family="sans-serif" font-size="14" lengthAdjust="spacing" textLength="55.1113" x="43.45" y="1042.8451">Student</text></g><!--entity ProfesorAlias--><g class="entity" data-entity="ProfesorAlias" data-source-line="4" data-uid="ent0003" id="entity_ProfesorAlias"><ellipse cx="71.0004" cy="607.35" fill="#F1F1F1" rx="8" ry="8" style="stroke:#181818;stroke-width:0.5;"/><path d="M71.0004,615.35 L71.0004,642.35 M58.0004,623.35 L84.0004,623.35 M71.0004,642.35 L58.0004,657.35 M71.0004,642.35 L84.0004,657.35" fill="none" style="stroke:#181818;stroke-width:0.5;"/><text fill="#000000" font-family="sans-serif" font-size="14" lengthAdjust="spacing" textLength="57.9209" x="42.04" y="671.8451">Profesor</text></g><!--entity AdminAlias--><g class="entity" data-entity="AdminAlias" data-source-line="5" data-uid="ent0004" id="entity_AdminAlias"><ellipse cx="71.0013" cy="196.35" fill="#F1F1F1" rx="8" ry="8" style="stroke:#181818;stroke-width:0.5;"/><path d="M71.0013,204.35 L71.0013,231.35 M58.0013,212.35 L84.0013,212.35 M71.0013,231.35 L58.0013,246.35 M71.0013,231.35 L84.0013,246.35" fill="none" style="stroke:#181818;stroke-width:0.5;"/><text fill="#000000" font-family="sans-serif" font-size="14" lengthAdjust="spacing" textLength="95.6826" x="23.16" y="260.8451">Administrator</text></g><!--entity SluzbaAlias--><g class="entity" data-entity="SluzbaAlias" data-source-line="6" data-uid="ent0005" id="entity_SluzbaAlias"><ellipse cx="71.0029" cy="439.35" fill="#F1F1F1" rx="8" ry="8" style="stroke:#181818;stroke-width:0.5;"/><path d="M71.0029,447.35 L71.0029,474.35 M58.0029,455.35 L84.0029,455.35 M71.0029,474.35 L58.0029,489.35 M71.0029,474.35 L84.0029,489.35" fill="none" style="stroke:#181818;stroke-width:0.5;"/><text fill="#000000" font-family="sans-serif" font-size="14" lengthAdjust="spacing" textLength="130.0059" x="6" y="503.8451">Studentska Sluzba</text></g><!--entity AsistentAlias--><g class="entity" data-entity="AsistentAlias" data-source-line="7" data-uid="ent0006" id="entity_AsistentAlias"><ellipse cx="70.9998" cy="718.35" fill="#F1F1F1" rx="8" ry="8" style="stroke:#181818;stroke-width:0.5;"/><path d="M70.9998,726.35 L70.9998,753.35 M57.9998,734.35 L83.9998,734.35 M70.9998,753.35 L57.9998,768.35 M70.9998,753.35 L83.9998,768.35" fill="none" style="stroke:#181818;stroke-width:0.5;"/><text fill="#000000" font-family="sans-serif" font-size="14" lengthAdjust="spacing" textLength="56.5195" x="42.74" y="782.8451">Asistent</text></g><!--link StudentAlias to PrijaviIspit--><g class="link" data-entity-1="StudentAlias" data-entity-2="PrijaviIspit" data-source-line="37" data-uid="lnk26" id="link_StudentAlias_PrijaviIspit"><path d="M89.39,1046.43 C106.04,1078.88 134.21,1124.08 172.01,1150 C193.82,1164.96 216.0793,1171.8988 240.4393,1176.1488" fill="none" id="StudentAlias-to-PrijaviIspit" style="stroke:#181818;stroke-width:1;"/><polygon fill="#181818" points="246.35,1177.18,238.1714,1171.6927,241.4244,1176.3206,236.7964,1179.5736,246.35,1177.18" style="stroke:#181818;stroke-width:1;"/></g><!--link StudentAlias to OdjaviIspit--><g class="link" data-entity-1="StudentAlias" data-entity-2="OdjaviIspit" data-source-line="38" data-uid="lnk27" id="link_StudentAlias_OdjaviIspit"><path d="M98.75,1033.95 C117.77,1051.06 144.7,1072.68 172.01,1086 C196.4,1097.89 219.7374,1104.4491 244.0974,1109.3391" fill="none" id="StudentAlias-to-OdjaviIspit" style="stroke:#181818;stroke-width:1;"/><polygon fill="#181818" points="249.98,1110.52,241.9433,1104.8269,245.0778,1109.5359,240.3688,1112.6705,249.98,1110.52" style="stroke:#181818;stroke-width:1;"/></g><!--link StudentAlias to KalendarIspita--><g class="link" data-entity-1="StudentAlias" data-entity-2="KalendarIspita" data-source-line="39" data-uid="lnk28" id="link_StudentAlias_KalendarIspita"><path d="M99.05,1012.63 C129.24,1017.79 173.5559,1025.3784 216.2359,1032.6784" fill="none" id="StudentAlias-to-KalendarIspita" style="stroke:#181818;stroke-width:1;"/><polygon fill="#181818" points="222.15,1033.69,213.9532,1028.2299,217.2216,1032.847,212.6045,1036.1154,222.15,1033.69" style="stroke:#181818;stroke-width:1;"/></g><!--link StudentAlias to Predavanja--><g class="link" data-entity-1="StudentAlias" data-entity-2="Predavanja" data-source-line="40" data-uid="lnk29" id="link_StudentAlias_Predavanja"><path d="M99.05,1003.49 C130.54,998.24 177.9017,990.3466 221.6917,983.0466" fill="none" id="StudentAlias-to-Predavanja" style="stroke:#181818;stroke-width:1;"/><polygon fill="#181818" points="227.61,982.06,218.0748,979.5944,222.6781,982.8822,219.3903,987.4855,227.61,982.06" style="stroke:#181818;stroke-width:1;"/></g><!--link StudentAlias to PlatiSkolarinu--><g class="link" data-entity-1="StudentAlias" data-entity-2="PlatiSkolarinu" data-source-line="41" data-uid="lnk30" id="link_StudentAlias_PlatiSkolarinu"><path d="M98.89,982.81 C117.98,966.18 144.92,945.12 172.01,932 C194.72,921 215.682,914.6578 238.882,909.5178" fill="none" id="StudentAlias-to-PlatiSkolarinu" style="stroke:#181818;stroke-width:1;"/><polygon fill="#181818" points="244.74,908.22,235.0878,906.2615,239.8584,909.3015,236.8183,914.0721,244.74,908.22" style="stroke:#181818;stroke-width:1;"/></g><!--link StudentAlias to PrijavaZaPraksu--><g class="link" data-entity-1="StudentAlias" data-entity-2="PrijavaZaPraksu" data-source-line="42" data-uid="lnk31" id="link_StudentAlias_PrijavaZaPraksu"><path d="M89.7,969.45 C106.46,937.16 134.62,892.25 172.01,866 C190.48,853.03 207.7252,846.2582 229.1752,841.1182" fill="none" id="StudentAlias-to-PrijavaZaPraksu" style="stroke:#181818;stroke-width:1;"/><polygon fill="#181818" points="235.01,839.72,225.3257,837.9274,230.1477,840.8851,227.1899,845.7071,235.01,839.72" style="stroke:#181818;stroke-width:1;"/></g><!--link ProfesorAlias to KreirajIspit--><g class="link" data-entity-1="ProfesorAlias" data-entity-2="KreirajIspit" data-source-line="44" data-uid="lnk32" id="link_ProfesorAlias_KreirajIspit"><path d="M100.36,655.18 C119.87,667.03 146.74,682.08 172.01,692 C197.91,702.16 222.1759,708.6201 246.6959,713.9301" fill="none" id="ProfesorAlias-to-KreirajIspit" style="stroke:#181818;stroke-width:1;"/><polygon fill="#181818" points="252.56,715.2,244.6105,709.3858,247.6733,714.1417,242.9173,717.2045,252.56,715.2" style="stroke:#181818;stroke-width:1;"/></g><!--link ProfesorAlias to OtkaziIspit--><g class="link" data-entity-1="ProfesorAlias" data-entity-2="OtkaziIspit" data-source-line="45" data-uid="lnk33" id="link_ProfesorAlias_OtkaziIspit"><path d="M100.41,639.87 C136.82,643.54 194.6903,649.3775 240.3703,653.9875" fill="none" id="ProfesorAlias-to-OtkaziIspit" style="stroke:#181818;stroke-width:1;"/><polygon fill="#181818" points="246.34,654.59,237.7871,649.7065,241.3653,654.088,236.9838,657.6661,246.34,654.59" style="stroke:#181818;stroke-width:1;"/></g><!--link ProfesorAlias to KreirajKolokvijum--><g class="link" data-entity-1="ProfesorAlias" data-entity-2="KreirajKolokvijum" data-source-line="46" data-uid="lnk34" id="link_ProfesorAlias_KreirajKolokvijum"><path d="M100.41,630.77 C131.45,623.96 176.5594,614.0659 219.2194,604.7059" fill="none" id="ProfesorAlias-to-KreirajKolokvijum" style="stroke:#181818;stroke-width:1;"/><polygon fill="#181818" points="225.08,603.42,215.4319,601.4417,220.1962,604.4916,217.1464,609.2559,225.08,603.42" style="stroke:#181818;stroke-width:1;"/></g><!--link AdminAlias to KreirajProfesora--><g class="link" data-entity-1="AdminAlias" data-entity-2="KreirajProfesora" data-source-line="49" data-uid="lnk35" id="link_AdminAlias_KreirajProfesora"><path d="M91.91,187.47 C109.22,157.69 137,117.68 172.01,94 C191.08,81.1 208.9407,74.3095 230.7407,69.1595" fill="none" id="AdminAlias-to-KreirajProfesora" style="stroke:#181818;stroke-width:1;"/><polygon fill="#181818" points="236.58,67.78,226.9015,65.9563,231.7139,68.9296,228.7407,73.742,236.58,67.78" style="stroke:#181818;stroke-width:1;"/></g><!--link AdminAlias to KreirajStudenta--><g class="link" data-entity-1="AdminAlias" data-entity-2="KreirajStudenta" data-source-line="50" data-uid="lnk36" id="link_AdminAlias_KreirajStudenta"><path d="M90.66,264.5 C107.67,295.6 135.67,338.14 172.01,363 C190.88,375.91 208.5707,382.5936 230.2807,387.5536" fill="none" id="AdminAlias-to-KreirajStudenta" style="stroke:#181818;stroke-width:1;"/><polygon fill="#181818" points="236.13,388.89,228.247,382.9859,231.2556,387.7764,226.4652,390.785,236.13,388.89" style="stroke:#181818;stroke-width:1;"/></g><!--link AdminAlias to KreirajAsistenta--><g class="link" data-entity-1="AdminAlias" data-entity-2="KreirajAsistenta" data-source-line="51" data-uid="lnk37" id="link_AdminAlias_KreirajAsistenta"><path d="M119.13,262.85 C135.22,274.09 153.77,285.67 172.01,294 C194.27,304.17 214.3237,310.368 236.9637,315.768" fill="none" id="AdminAlias-to-KreirajAsistenta" style="stroke:#181818;stroke-width:1;"/><polygon fill="#181818" points="242.8,317.16,234.9736,311.1811,237.9364,316,233.1175,318.9628,242.8,317.16" style="stroke:#181818;stroke-width:1;"/></g><!--link AdminAlias to DodajPredmet--><g class="link" data-entity-1="AdminAlias" data-entity-2="DodajPredmet" data-source-line="52" data-uid="lnk38" id="link_AdminAlias_DodajPredmet"><path d="M119.24,233.04 C154.71,238.34 197.5657,244.7247 235.5057,250.3847" fill="none" id="AdminAlias-to-DodajPredmet" style="stroke:#181818;stroke-width:1;"/><polygon fill="#181818" points="241.44,251.27,233.1287,245.9858,236.4947,250.5322,231.9483,253.8983,241.44,251.27" style="stroke:#181818;stroke-width:1;"/></g><!--link AdminAlias to ObrisiPredmet--><g class="link" data-entity-1="AdminAlias" data-entity-2="ObrisiPredmet" data-source-line="53" data-uid="lnk39" id="link_AdminAlias_ObrisiPredmet"><path d="M119.24,218.96 C154.71,213.66 197.5657,207.2753 235.5057,201.6153" fill="none" id="AdminAlias-to-ObrisiPredmet" style="stroke:#181818;stroke-width:1;"/><polygon fill="#181818" points="241.44,200.73,231.9483,198.1017,236.4947,201.4678,233.1287,206.0142,241.44,200.73" style="stroke:#181818;stroke-width:1;"/></g><!--link AdminAlias to UvidProfil--><g class="link" data-entity-1="AdminAlias" data-entity-2="UvidProfil" data-source-line="54" data-uid="lnk40" id="link_AdminAlias_UvidProfil"><path d="M119.31,188.82 C135.34,177.62 153.8,166.15 172.01,158 C196.46,147.05 219.4176,140.651 243.5076,135.601" fill="none" id="AdminAlias-to-UvidProfil" style="stroke:#181818;stroke-width:1;"/><polygon fill="#181818" points="249.38,134.37,239.7508,132.3016,244.4864,135.3959,241.3921,140.1314,249.38,134.37" style="stroke:#181818;stroke-width:1;"/></g><!--link SluzbaAlias to KreirajAdmina--><g class="link" data-entity-1="SluzbaAlias" data-entity-2="KreirajAdmina" data-source-line="56" data-uid="lnk41" id="link_SluzbaAlias_KreirajAdmina"><path d="M136.41,469 C159.32,469 179.55,469 204.19,469" fill="none" id="SluzbaAlias-to-KreirajAdmina" style="stroke:#181818;stroke-width:1;"/><polygon fill="#181818" points="210.19,469,201.19,465,205.19,469,201.19,473,210.19,469" style="stroke:#181818;stroke-width:1;"/></g><!--link AsistentAlias to KreirajIspit--><g class="link" data-entity-1="AsistentAlias" data-entity-2="KreirajIspit" data-source-line="58" data-uid="lnk42" id="link_AsistentAlias_KreirajIspit"><path d="M99.5,745.11 C135.62,741.3 193.8729,735.1674 239.9029,730.3274" fill="none" id="AsistentAlias-to-KreirajIspit" style="stroke:#181818;stroke-width:1;"/><polygon fill="#181818" points="245.87,729.7,236.5011,726.6631,240.8974,730.2229,237.3376,734.6192,245.87,729.7" style="stroke:#181818;stroke-width:1;"/></g><!--SRC=[TLIxRiCm3Dpr5KJs_aA10bsA30qGPEd6nafAMx42FJoawB_NrYCMRTcJTNUaAEf49IyEd0P3rny73HbvTgHx8V3ij87TqVb6zcu7Q27zlob2c_c3qHTfjGc2l62Aj-P6FLbdq2LPG9WcPROTmb7vnpV6_S8lJsR7JBcUl8WACPME_LL9s9rw6gHva9EZybV0-7ahpsZbL36rE11ys3kvL7P00i2rdyr26e6ASinXdRyJx579la7ZOrGyIGOZj15vCBB10VkMRfZgIi0oGg4ZE7PQeQ7UH-s4FQ7QYH4U27U3dVN5gV4B3m4JVwo3qzwtIlVsHfB1jcX9GchTSnq-MFS2K56Unhe6rOv7bR3NIdS3jVwM-v1sc0aX5jLM_BDHTxOeo_m4wp4fEml9M3s2UPx51MOhAlcP1sIGnxph9fmctTAe3qW25lVmFLgCc3X2LVLfe0PyQ1If89wGk0nzByS0lBoyylUpOiidio8N3wEI-la4rXot_4PPiy456qzn-zAxQxhqwsOmi-Kysah9xAyw_pHJdPujiE3PbIyuViCBihpHOigoJQDH1HkogwRz0m00]--></g><script xmlns=""/></svg>